<mxfile host="Electron" agent="Mozilla/5.0 (X11; Linux x86_64) AppleWebKit/537.36 (KHTML, like Gecko) draw.io/26.0.4 Chrome/128.0.6613.186 Electron/32.2.5 Safari/537.36" version="26.0.4">
  <diagram name="Page-1" id="VM-J1N2ZBg3Jeg90o2bn">
    <mxGraphModel dx="1114" dy="1198" grid="1" gridSize="10" guides="1" tooltips="1" connect="1" arrows="1" fold="1" page="1" pageScale="1" pageWidth="850" pageHeight="1100" math="0" shadow="0">
      <root>
        <mxCell id="0" />
        <mxCell id="1" parent="0" />
        <mxCell id="1CqdtWAffQ9HiO-EJ7Oa-8" value="" style="rounded=0;whiteSpace=wrap;html=1;fillColor=none;" vertex="1" parent="1">
          <mxGeometry x="330" y="378" width="240" height="332" as="geometry" />
        </mxCell>
        <mxCell id="1CqdtWAffQ9HiO-EJ7Oa-13" value="&amp;nbsp;Insert&lt;div&gt;processed&lt;div&gt;object&amp;nbsp;&lt;/div&gt;&lt;/div&gt;" style="edgeStyle=orthogonalEdgeStyle;rounded=0;orthogonalLoop=1;jettySize=auto;html=1;exitX=1;exitY=0.5;exitDx=0;exitDy=0;" edge="1" parent="1" source="1CqdtWAffQ9HiO-EJ7Oa-9" target="1CqdtWAffQ9HiO-EJ7Oa-3">
          <mxGeometry x="0.1429" y="5" relative="1" as="geometry">
            <mxPoint as="offset" />
          </mxGeometry>
        </mxCell>
        <mxCell id="1CqdtWAffQ9HiO-EJ7Oa-9" value="" style="rounded=0;whiteSpace=wrap;html=1;fillColor=none;dashed=1;" vertex="1" parent="1">
          <mxGeometry x="426" y="440" width="78" height="250" as="geometry" />
        </mxCell>
        <mxCell id="1CqdtWAffQ9HiO-EJ7Oa-12" value="&amp;nbsp;Trigger&amp;nbsp;" style="edgeStyle=orthogonalEdgeStyle;rounded=0;orthogonalLoop=1;jettySize=auto;html=1;entryX=0;entryY=0.5;entryDx=0;entryDy=0;" edge="1" parent="1" source="1CqdtWAffQ9HiO-EJ7Oa-2" target="1CqdtWAffQ9HiO-EJ7Oa-9">
          <mxGeometry x="-0.3361" relative="1" as="geometry">
            <mxPoint as="offset" />
          </mxGeometry>
        </mxCell>
        <mxCell id="1CqdtWAffQ9HiO-EJ7Oa-2" value="Amazon S3" style="sketch=0;points=[[0,0,0],[0.25,0,0],[0.5,0,0],[0.75,0,0],[1,0,0],[0,1,0],[0.25,1,0],[0.5,1,0],[0.75,1,0],[1,1,0],[0,0.25,0],[0,0.5,0],[0,0.75,0],[1,0.25,0],[1,0.5,0],[1,0.75,0]];outlineConnect=0;fontColor=#232F3E;fillColor=#7AA116;strokeColor=#ffffff;dashed=0;verticalLabelPosition=bottom;verticalAlign=top;align=center;html=1;fontSize=12;fontStyle=0;aspect=fixed;shape=mxgraph.aws4.resourceIcon;resIcon=mxgraph.aws4.s3;" vertex="1" parent="1">
          <mxGeometry x="102.5" y="526" width="78" height="78" as="geometry" />
        </mxCell>
        <mxCell id="1CqdtWAffQ9HiO-EJ7Oa-3" value="Amazon S3" style="sketch=0;points=[[0,0,0],[0.25,0,0],[0.5,0,0],[0.75,0,0],[1,0,0],[0,1,0],[0.25,1,0],[0.5,1,0],[0.75,1,0],[1,1,0],[0,0.25,0],[0,0.5,0],[0,0.75,0],[1,0.25,0],[1,0.5,0],[1,0.75,0]];outlineConnect=0;fontColor=#232F3E;fillColor=#7AA116;strokeColor=#ffffff;dashed=0;verticalLabelPosition=top;verticalAlign=bottom;align=center;html=1;fontSize=12;fontStyle=0;aspect=fixed;shape=mxgraph.aws4.resourceIcon;resIcon=mxgraph.aws4.s3;labelPosition=center;" vertex="1" parent="1">
          <mxGeometry x="720" y="526" width="78" height="78" as="geometry" />
        </mxCell>
        <mxCell id="1CqdtWAffQ9HiO-EJ7Oa-4" value="AWS Batch" style="sketch=0;points=[[0,0,0],[0.25,0,0],[0.5,0,0],[0.75,0,0],[1,0,0],[0,1,0],[0.25,1,0],[0.5,1,0],[0.75,1,0],[1,1,0],[0,0.25,0],[0,0.5,0],[0,0.75,0],[1,0.25,0],[1,0.5,0],[1,0.75,0]];outlineConnect=0;fontColor=#232F3E;fillColor=#ED7100;strokeColor=#ffffff;dashed=0;verticalLabelPosition=bottom;verticalAlign=top;align=center;html=1;fontSize=12;fontStyle=0;aspect=fixed;shape=mxgraph.aws4.resourceIcon;resIcon=mxgraph.aws4.batch;" vertex="1" parent="1">
          <mxGeometry x="330" y="378" width="78" height="78" as="geometry" />
        </mxCell>
        <mxCell id="1CqdtWAffQ9HiO-EJ7Oa-5" value="EC2 Instance" style="sketch=0;outlineConnect=0;fontColor=#232F3E;gradientColor=none;fillColor=#ED7100;strokeColor=none;dashed=0;verticalLabelPosition=bottom;verticalAlign=top;align=center;html=1;fontSize=12;fontStyle=0;aspect=fixed;pointerEvents=1;shape=mxgraph.aws4.instance2;labelPosition=center;spacingLeft=5;" vertex="1" parent="1">
          <mxGeometry x="438" y="531" width="48" height="48" as="geometry" />
        </mxCell>
        <mxCell id="1CqdtWAffQ9HiO-EJ7Oa-6" value="Spot Instance" style="sketch=0;outlineConnect=0;fontColor=#232F3E;gradientColor=none;fillColor=#ED7100;strokeColor=none;dashed=0;verticalLabelPosition=bottom;verticalAlign=top;align=center;html=1;fontSize=12;fontStyle=0;aspect=fixed;pointerEvents=1;shape=mxgraph.aws4.spot_instance;labelPosition=center;spacingLeft=5;" vertex="1" parent="1">
          <mxGeometry x="438" y="610" width="48" height="48" as="geometry" />
        </mxCell>
        <mxCell id="1CqdtWAffQ9HiO-EJ7Oa-7" value="" style="sketch=0;points=[[0,0,0],[0.25,0,0],[0.5,0,0],[0.75,0,0],[1,0,0],[0,1,0],[0.25,1,0],[0.5,1,0],[0.75,1,0],[1,1,0],[0,0.25,0],[0,0.5,0],[0,0.75,0],[1,0.25,0],[1,0.5,0],[1,0.75,0]];outlineConnect=0;fontColor=#232F3E;fillColor=#ED7100;strokeColor=#ffffff;dashed=0;verticalLabelPosition=bottom;verticalAlign=top;align=center;html=1;fontSize=12;fontStyle=0;aspect=fixed;shape=mxgraph.aws4.resourceIcon;resIcon=mxgraph.aws4.ecs;" vertex="1" parent="1">
          <mxGeometry x="426" y="440" width="78" height="78" as="geometry" />
        </mxCell>
        <mxCell id="1CqdtWAffQ9HiO-EJ7Oa-14" value="" style="shape=image;verticalLabelPosition=bottom;labelBackgroundColor=default;verticalAlign=top;aspect=fixed;imageAspect=0;image=data:image/png,iVBORw0KGgoAAAANSUhEUgAAAGcAAACNCAIAAAAl/PNKAAAAAXNSR0IArs4c6QAAIABJREFUeAEku/ePI/mdJZh/zeHuh8Pdzs5otFK31NVlstI7eu8iyCDDWzIMgxH03nubTMP0ripNedPVXW3VaqlbIy+tNLOjHY3B3c7sGexhDtkJBAiSIAjy4fP5ft7nvRdTDrPhzg/f0SzNry7Mri3OLc/dn5++Y9Ss6FeXFmfuLc/d160sLs7c060srszPWPSalfkZk3bVrFtbuH/XbTMb1padFuPqwqzHbkZ8ntWFGdjrhr1OzO8xrC3gAcBtM0QEppyJnGw2KnFmr5/fHxTSIjyqRo/Wy89ORmdb9U+fHT47GX3+4viLlycfP9m/2u8+OV7f6BcblcT2uFnOq8VsRJHITEIq5aLVQiqbiAgsGRE4wGFBfB4UAmjEm1NDW93y4Ubn7bOHLy8OTyeDjXbpcNzbaFU6xfSbRw8uD3Z2+u2kGCwn1Go6iUBgPB51OGwrKyuKong8IBzAHXbA50UMervF7A6yitMO261+0EPa7QG7E9EanCYraLS4p9797l/eu/Xu/ds/1C3OmdeWF+/dXr5/17iyaFxZXJu7r12YvbksmpXl+3fNa8uG5QWnUWdaXVq8d9tjMeqX5u16zfL9u26zAQFcmoVpu2E14LEpPA0DVlWgKNgTFel8TMgrVIRyNzP80Xq5Wwh//GT/zeXkfKd1OCq9Pt96OGk+PR4ejyvb7XQpSiUFJBfjcL8lFiZVEQ9RXoGB+o3c0aS/O+50qtkgESADgNOkSUZ4t9nAYlCYDlQSfCcfOxg2Pnt+frU/fvlg78Orkwfbg0ZaGZTTe/3m+c74eNzr5JMJKegDHMVSlmEJAHSKIm+3210ul9cLoQhp0Fv1OltYioMezGRwgx7C48EdLnRmQQfBjNXhnVqavbc4c/fWO981LC84DNq52++tzd03LC8YVxa1C7P6pXmLZsWqXTWtLs3dfm/h7vsrM/f0S/MrM/fW5u5r5me0C7MOg3bx3u2Fu+/b9Cseq3517i5PIc1SCoecPBVQeFLhSQZ2Z8L44ai0PygcjytnW/WXDzZON2vH48qrh5sfPdp9dNB7fNg/GBa3WqlxPd7IiLkYF+FhOYT0GplwEC6mpd1x6+3Li8moVc6oNOJFvU7IZWkU0x6LkUMhhUP65fiDSff1xd7vfvLJ+c7w5YO9x4eb5zujvX59WMn0islGOjquF7uF1N56h0C9yZQaUQQpHDRb9Ha7FQQ9KIoaDKblJc3C/GqQkwE3urJkMujcq6s2PxycXzbjlOgGsamYGNIuzM7fuWVcWXSbDTO3fnADlml16Qa7pek7q7PTy/fvauZnVmenzWvL5rVlq3YVctp0i3Mei9FtNhhX5zUL04DNECQCIdIvMogqUD6nEbRr/W4jjbjreXXcyLx+ODler/UKysPt9kY9dbbZPF6v/ejlg0f7g4NBeViOJUMwB1liLESCBtJvzcRYDDInFYrB3DztS6ns4aS7t9GOh2kW87KYlwwAqsAQfg8G2lGPqaCyG83siweTn336/GJv8Pbx6auH+7u96na7VIlL2TDbzsW2WqVEiIiLTD6jVGs5QaSTKdVs0SmqZLNZfD6fy+XBMdoLwslETuBVBKYxJOhw+Bku6kdDHh+1qrNPee0W7cKsZn7GuLII2sz333tXtzinW5wzrS4ZVxZNq0u6xTnD8oJ+aT7gdjgMWptubfn+Xe3CLO4DdItzgNW0OjutX551GNcCHhvh92gX7wUJKK3ykMsE2DSREBbmkIzKbTTTjXSooBCVOPP5i+PLvc5//vrNyUY1L5MkaOBhu0x5BcwdQpzDSrqclGC3qVlKoD6Lx7YaorwwaEip7NnB6PJkWxUogYbDHEEjXrdFJ9AoaNVR0PU38Khrq51/+XDnfLf/9Hh7t1fd6VYudtdvwCqqfDkZVmi0mJDjaqjezPn9jnw+Wi7EP/v4VcDnFIKUw2IM0pTVbIO8sNPhc7lgBAlZbH4xkkUIEfQzMC5Mzb73Q/PKsmV1ZebWD/VLC4v37szdvrU6e3/x3h2nUc8ggaXpu9qFOZfJ8P73vqtbnHcYdCsz00vTdy2ry5bVZcPivM9m0S/M+R02DoUY2BtwWTHQSficMouN2xWJRnZH7Yd7o2KUaueEXjF8vtN8+3TnaKNYTtApKVCK0RmFrCT4QozvllMiEaAhIIQhAbfzxeXDXFwKeExe5xpPeyI8/PHrh+VMpJRWJBa36zUeixEBHTyFuIzLAgpUYiHcpW9nI1f747Ot3tPjSS0pS5T/cNwrxsLlRKSeiTULyYwsZGNiqZQQBKzXyafjoXo+8n/+6dd/+/PPX1/s2VZmIJsBAdyYH0URymyFDGY/CPMhOWsDMCoUNzuRKdPyksugt2nWPBaTXa+98873UNDDIAGZY5xGvX5pwWHQ+V0O3eK8RbPqsZi0C3NL03cNy4tLd2+vTN91GXTmlSWHTuM0rLGID7QaOBRy6JdlFmuX0oN6ISaQ662yREGdQvhqv/XmcnO3ly5EEQ7WVVP0g51auxzuVqLlpMDjXjrggd02gcCr6RTkcBbiCb/bCtg0sTAeotyoz/Dm+Um9ELs+KBG/y6S3aFacJg3qteNeGws5shI5aRcQu0YmoaP11uvzw2cnO91SJq+KjN/TLqRKSTUfkyUai0lMPh+VZWp3qy2yvoBr7c3l5G+/fvP3P/voo4vdoN8JWPTpaFSvMyN46L17GrMbV5JVCOf9uKiz+KbcRv1f/M//k1Ov1czP3oAC2ixzt29ZNKs2ncZh0GnmZyNBdvn+PfPainltZW1uRr+0sDR916HTmFbmIYfZaVhzGTWGpftem95j1gQxXwj3piNcKRnuVtJUwBHh0O1eabeff346KkVxt+72Rkv98PHm5UFrf5TbXS9s93OVlJiUaIEMED43ZLeFMDTgcpvXVgi/x7Q2IzBe0LHcqqjPr/YaxTiDgqTf63NY7YZVHHLDgBX3WRUGokFjMgSPa8msTEVo30ePTl6fH3z19vnxVm9Yz/WrmZhAj9uVXjWXkLlKMWG3r/Xb+bRCZ8J4Ix36xSeP/uW3P/rzrz7/2599pnCowJIcwzpdXoMF0FpAG4CZXX6rE3Z7ySkeRzWz9/0Om35p4Qff+cs773wPctp9DtvKzLTTqEdBz9L0XSXEGZYX1+ZmDMuL2oU5i2Z1dXYasOiNyzPm1QXc6/CYNQGXkYRc9Vw0zMCk317PRavZCOm3M4hjMqx99ur80+dHKcEvk869fub5g+Enz3ceHXW2OonXjycnk0Y+ymUV7gY10GIK05TLaEJBD+SymNZmohLGYPbtUenDF6e1fJQMuDkMDrgdCOgoZ1QOBz2WlXgIGdeSoYDtYqe7Xk/XUuLl/pDzO482Ox8+OfvHP/ziZLsf4fBiQm6X0gpPiiFcDOE8Be2Mqpkw/s3Hl//y2x/99PXJP/zy0z//5se/++azTjWLwxAIghjFGqxOq8sH+ikngJOsMrXRbt40msukn7v93q3/9B3N/AxgNflddgRwrczc87vsVMDnd9nNa8s3Z//q7LTHYoQcRrdpxWvTEz6716alAg4W8QybOQQwMYijkBDy8aDM+Td6ucvj8flBPxfBiyqx28t+8/H568uN15cbZ5Pqzz67HDSih5vVjU52UMskJDbM4IQXUDiGRWGPxbg8c6tZjrO4q5ThXz7e2xqWS2kZ9doZxA85bQzqq+ZiAu1HQWM1GeoWwgWFqCbYg1HlzdVeMyulJaKSEre65T/+4sunZzsfPn2w2a10yqmoSEOAhcJAgfYXYnxawjp58f/508//8NWLn789/9uv3/y3v//FL3/ytlKIYyhkd5gBL+jxwoAPW9FY9Sb3lHFpYfHO+4bF+fvvvWtYXvjBd/7j7Ps/vPvu96iAj/R7rdpVBHD5HFaexG5I79rc/cV7t6265YDLjAKWKE8A1lXIqfM5tLDHqIRgyKlJymQkGOg3Eqd7naNJs5IV9tYrZ9uNs636Nx9fffHyuBQnPn2x/8nzvW5JvDzuvXmyN25naL8NtGrCDJqS+WI86nc5JIYMeCwi65dDgWpeevP8aNTJ5ROi322GPU6XSc9iEI0ALAZko2w1GSqq5OcvjqMsmAnjnzw7fvvksJ4WCrFgmPbVs4pEQa8fneyOmvvjdqecyiciAY9t8e4P4gIR5aAk7//y+dEff/Ly52/P/+X3X/z9rz/9P/7hl3/3u69yGQkELQEYFCUZIzm7C9IanFPT735/6e5tCvIu3b29eOf97/+H/w31uCjIK1EEE4BifFC/MGdZXaYg78LtW+995y+tayvWtRWbdtmuW7Dp5oI44DTOB9w6r30V9ugrWSEmIcVUsJoTP//wwelea9xND1uJySD/YNLeHxQeH/b3B/mjjeLzB8PHx90v35xcHveePhhvdnM87gnhXolGQngA8dgJL0BCnl41w2Eev0vbKiu///lnw2YuJbOEzwm7HOaVpQhH+uw6ifF3yuoHl5NWlv/k6f6To/52JxOhPY8Or590ymq3Em0VVAqyVrORYlJ8fDZ5eXmk8HQuLp/urEdDOAmaMNfqo53WH7568a9//PJ0nP+3P33zb//0yz/++tNPPngQFvwMA8my5A9g/gC+sLg2de+d74EW062//qsQhgzr1bQsGRbnl+/dcRv1QRQmvMDyvTtzt35oXVtx6rX3f/CO26iHXY4wg+Nem1U76zYv4j4zaFtxmxetunu74wpPuT/94MHhdu3F1fbNtbNe3FsvrdeT7Wz4+cnGei32cLe5P8o9Oxv8w+8+2xnlJ8PcRiebidBx6RoFv9PEwN4gCpOQp5iQqtkwGTC/frL/6tHB/kZLCWJhBqf9Pt3C/WJCZmD3daFlhAeT5ssH48u99tF66aPHe1kZG1TUz14cTwbFXjWWU9mkRBQSghJCm8VYMsxs9BrFZKxXLahBzGdZribYKOU+367+zUdnj/aqDybl//7nb375k2c//vQhARvq1Vg8FvEHkGCQX9MYptZm7868932nYW3UrPzjH3/75smFYWm2mFAgh3lt9u7SvVuARW/TLt99569NK/P6xRmXUaOGaMCiZWA35NQt3P0uh7n0S+/7Xdq0SqpCICFjAu0pJJlOVdka5M6PepVs6Hi7Pm6kGinh4XZ7XI/vjwovHo4/fbH/5KTXr6snO/U3Tw6YgD0bDUIOPeQwIh4raNbXM7EIi9Qy4WQY+/Dp4aCWKiXElMR5LYZKMu7Sr1E+VyUVpgOWk0lj3Iw/2K6fbdVePdyYdLMnm7VJN/vTt5frrfSomZr0y41cJKNyCGAqJkWJDmwP2+NOs5KOlRMRFnJop7+HuVYTIVBEDJf79Y2m3MzTh9u5b748f/N8e2OUF0Ok0WhkKJqm2SmHftWuWymnovVcctSs/PGX3ySkIAY6vx2OLvPqAuy2zd56B/HY9YszxuU5DoVQwGHVLKCABfdZCcjGIA6LZhpyasppMRKCeMotsWBKIeoFMZ+g25UITzm7lejJZqudjYxr6XEtOaioD3ebp9uVnX76ZKf+/GJj3E5F+QAVsEFOHQZa1RAp0+ik19Av3N5o5ytp/qefPtrsFBIiWUtHSa9bpkmXfo2DwUrqGtNqJlRUiW5BqsTp3V72eKOaV4huUd5qpzMKWcuKu8Pq6aS73i4QkI3023nC12+UlBB7uDmUWezB7jAtEbTPQHq1B8Pc//Xnb/77P3z9r//w1WevdrYG6k8+O/3Dbz4Z9Wtul0OrWYX9gSnz6hzld7tNa+blWdPSjID7dXN3B9W8x7hWjIX18/eCiHf6ne/s9JumpRmZRgnQEWEw29qC32kArRrEY5YYv8u0xJPeMBsAbSsc5ooEA0oILqaCURHOJ1gasRbi7GYrV0sIuTBVjQdjQd/JVvXyoPXoqPP04frhVqWRF+mAxe/S7ozqcZGKixTps1OQQ2YCSYkYNVO/+smrzU5hvZkvxsIE6MI8Dr/dKBC+SkrcHRVLKaYco8sxuhJnIpR7o5lWGG81GYoF/aUEX01LzXy0VYgNG3kliMFuU1xk4uFgROBG7Wo1E7063i4lxGpGQDxre8P86Xbln//4xa++unpx3vvkxfabx8P//KsPP3x1YdStpGIKSxJToFUHuy2rM+8v3fnB6vQt4+L9EOqL87Ru7m4xFraszPmseqduOSEw0SCJuq2w0xymELdhNYRDGGgFrbqdYQMDre1yAgUsPoc24DagoBEBTDRslxhfTEJIv1UkwaIaSoZwmQCzEp6ViVfnWx8/2788aA0a0ScPRlu97LARD7NQo6CMWvmERGOARSC8focmLiJ766WvPn60O6xGQ1g2wsNOKwf7whQiklA+yj0+HU2GuWwYHdfjX74+o716EjSgLo3CeOtpqRgPyUygkVM9puVnD/fLKTnCoRTsoVCfWbeaTUQkFn9wsKmG8A+eHCm8n0bMO6P8n37/2W9/+uxwnPvg0eirt0dvX+z97hdf7GwN4qoUlcUpr00fwiGrZgEwafx2I2QzbHfrS3d+ANkMtrUFyufCATtkM3iMa+lwkPQ6ccCusLjfbkQBG+y2uE3a9VbZtDKbkGiXcRVy6AMuo8+hpfxOwLoqUD6R9uI+Kwu7woQPtmkxp64cZTdbmauD3v6oEOd9Hz3f3d8o7Y6KH784qmSki6N1zGsRKF8Q9fgdOonycqj9zZO9rV7+aLNViAmtfBJ2WpNiMK+KahDNRenT3caj08FmM3m22Xz1YFuhQIkAEjzKoy7O70yF6XYxQfudhPf6B9eysSDmO94ZZRMRt8MMuMwsEShklMuT7VY5WcqEm+XoxfHw6y+ePNhvBdyLg4b8N59f/Pv/+K9//M1X//SnP7x4/LCcS13X2urM+5DDyAYA0Kydfuc7YQqBbAaFxVG31aVfKUQl8/Is7DTDTnMpLss0qnIE4rJEeYZFfJQfCDO412ZUgkRCYmG3hfA5MdCaDDM+u46EHDzp9dq0IQwMExBs1fGw+2BQPRhV+mWlV5arKfbyuHO2V//ZF08fn44ujoewR5+P8zzp5XHQ79AEUddWL78/Lk8GxUIs+OzBXruQAky6CEOkJK6UEHvV2PGk9umLw0Y69MWLs9cPJ28fHbRyEcytF1AgEcIzES6IAqjHzMLudildiIcFMpCJSp16MRWPwJBLszI77FUHnXK9nBoPqr1GhsVd4252o5epZoMXR+39Ue5Pv//i689f/fyrT37x9Y9ePb2YchlX3aY108psCAPNK/d187eDKBCmAwLhG9ZzNs1cWma9Vo1Tv8gEXCIJVdMRwLwK2QwxgfWYDAGn3bK6HERh2G2rpGPG5TmvzegxayQauT4rV+ciHKpbuMfC7iiLKmQgysDnk16/HO2XlYP14uVB5+qke3XSfXGxdX7QzcWZ9XaOwzw0fF0jaYmAHZr9Yfnrj69SIjqsJpM8mQ0HfSY9DbpFDOoW4pNu/uFu/ccfnj7Yav3o5XkrI799dHS03koJZEZiEiGC8rlSEpeRQ71yFgOdbpP2mgbWixyNVKtZjsNQFMxmo4kof3ywcfFwp1VLV3KRclqcjEqvH+2MO8lHR70v3jzIx3nC7/jDr376868+m9IvThuXZ7Tzd6ff/UvYZfCaVlyGxWyY2eyUSMDSKSUSIVxmAiHYLTOBjESnZQZ1GgJOg0AGLGuLlB9APPZcNGxamS8lVadh5VumsoiBdo/5eqXvVXOmlVmZRlGnkfU6HKszJZXjUceoFutXIhkZeX6x/vCg/dGzg61eftTK0rCdgd2I2wQaV3jEk5Wp/WH5x28uqslQNSlwfmeMwzi/iwSstNfWKaiDino4Lnz0ZPLx06PHR+Mg7Ghm5VZW7ZaT+UgwIVJBxFuKyzwG7fSbKOBQghQJeQIeWzTM0wT85tXTmMKn4mEKh7bH7WSUD/NYWg0eT3pJmXx6tn201bjc7799dnqw0QkS0NdfvD092J5anbmjW7hvWZlz6WaDsA13aXGPLhmCN1uZy93e3qDEQZZWLrxRT+Ee3agSv5b/SQAwLnCIx2vTR3kqwuEr929ZNQsc6rXrFhz6ZatmzmlYMi5Pz73/n2ICiXttkF0XDACo3YDYdYkgUk2GBhV10svU0tzuemHQiO6tV9rFKBVwNPKxgMvKYwGZhPmAp5VW+8XEo/3xuJbmYaeAOEoqEwrYuoXwei1WVIm3jyePj1pXh+0ffXhxuNE83mqjHkMqTNZy8manlFbYrBoiIYcSJFgE9NkNx9vD050NJgAxSMDrsn/1+Sc+tz0e4fMptVFMdqrZUlp2GZc75ZTMwBvt0t6omZTo0+3R0daIw/0XR/u//OYnU/rFGatmya6d91mWHWu3FdqTk7FhRe0V5ZONajPDH48rRZXcbCZjnHevny8oxKSTwT06Hgf1i3chhz4h0bDbBFjWKL/TuDwNOfSWtVnK79TO357+wV9llCCLePwOPQnYJdQbCriyEllNhtbr8W4pLJGOZ+fjq+NBp6ye769TfqfbtCaSuIDDmMuS4PBaPDwoJV+c7oQCjijj85pmfea5tBgoqthuL93Ocx8+2vj46ebVYfNoqzFsZsppsZjkadjeKCiJMIV5LRhovZaFC0nEY1WCREbhWcRXjEcFinAYdBJDNQrZTFRKyKHDzf5Hzy4KcZFFPDlFkGm0X8k92Bkfb47GzWq3XGzms41C7mCyOXXv3e8GXFb9wp1mVrYuv6cygMoAW63UZjP57GSUkZBSlMpISDlGx4O+zWYyHvR1C2EBc9azCgpYAMtaCPeaV2fmb38PcuitmjnEYw64jHTAdef7f2FcnpZZRLdwhwm4kjxZjUky4UsLeEpEa6lgIUqkpMDOsLDeSuZjTFpmJDrgNq1dHR3INB4MABLqVcjAuJY9nwyqcX6zkQ7BloyE1FNcM8Mlee/FXu10q/jR4/HD3epWL//m6XE2ymajLE8CzaJ6LcOgbthtWm8VUcAGWnUiBQMWrRKk/A5bwO0UKCISZHEf4HdboyKbkoNxkUqGGZlFtroVxG3qlbPffPrm55++rWcSGUUsJWJUAGpVS1Pm1QW3SWtenh1WkxSo6xXlZoZ/ejx8fb71+nxLxOw+85zKAMGAOcZ5s2G0FKU6eSkW9KtBlEMBwmePcCgKWFzGZTrgMi5P3wghQQwELGt33/mPnXJKpPw87o1xWCcXrSfDpxutrXa2kgiqLFhO0G+e7K230jzuaeRU0KoJuMyEz01DAOGxZQR6UEoKiKdfjDXT4UqM++LFGQloFdr95KjfSLOfPN3tlfj1uvzxs91hI9koKOW0OGikq9kwh7kkxg85dWoIH9RzHrOmX8uXkpF7735n3K7RAdDvsifCQohA5SBJBoAQ6af8ziAGtoqJXjVDeG1ZJZgQGMxj6+YzKZ5Lh3mBRGgYKmVT1x0Ku212zaJEAEHY1i9HJ9386VbzaFzbaKYFzFmOc4hzTSLcaQkrqHQrF375cDstYc18VOEQ0LIKuwwYYKYgO4+Ddu1cXCAk6tpns6zevzzcCDj1WYU72e5lJHpUSdeT4W5ezcqEwnjzCnG4Xk5HiM3utZYbRD2aufcL8TAdADkYRBwGv2Xt0f44F2bqSTErkTLhaabFjUZiu50aVdXNZuzzFwcfP90e1cLPzgYP9rr9eqqSkYpJ/vXjQ6/9mi1u9SsfPn2w3a9t9xshHILdlmSYO9oaBTG/22yo5zMWzcoHTy94AhbIwGRQT8p0KSG2CjHYZSgnJbduUWUQlcE+fXZZissZRazl0qrET4FWg27hvsesYSAr7tGJuGt/WJ508+28XIqxEuGuJkMyBYCm+cv9voA59walTBivpfhBLVNNy/WsMmrkNtrFaloOoh7Qsuq1rhXjgswEILv2BspeJSUQ3jiHHg4bFzv9nU5xVEus15PHG/X9Yblfiw8byUpKJH02mUVIyOF3mmCnmfE5BMRTiQn7/UouTHVyCg/b7St3nhwNfvnFs6P10rCinO/UD0f556eDJye9T16e9mrJVikaxN0c5tIt3spGg7Wc8s3nH9SyqkQjhM9pWLp/urNO+YF0RIgKwT/++meE34NDzjCDllPyZx9c/frrT1Jheqtb5hB3EPXkZG63V/vqzdNnJ3vNXGKrU9sZdtrlwpRpZdaqWUA8ZpnyYm4t67c8P9s83+1utjK7/SKPOqIc5LMs5hUqKxM7vUKUg1i/JS1hMR5XOCQTYUMYIFFQKkwzAafMBMwr0/loiAk4fTYNj4Ms7JIoSKKgosIOSvFeIXp9rnNQIyNe7vcHlUSnFDvabIVpv0j6TCv3qxkFtOoMi3dJwPLybKLSUEYk0gKel0nCresX1UFZOd9p7fVzjXTwk6f7x+PiJ093mzn+cLN+dbJxdbIRFVCJ8fEkIHNwmA3M3vouT/gCLnNcZJan3zvaGuBel0RjKOBgEZ9IoSk5WEqGRRr64NFxq6D+4ssPJMrbyIRxj2G9lq2n5L1+rZlR28XEw92NvfXO5cneFOy2QA5jQqITIk55jQSg32imUyKaV6iPHh9kwng1GQKMcwkebmTEYpTZamezMpHg0ZzK5qOhYlxw6hdQj6mZj7KwCwPMsMsQwoAw7S8lxEZOrablTilxvNEc19KtjNxMhyXM08iIw2r8+dl2MyuPGplSglc4JBrC7v/wO1GeWJ15z2NaiXKBG8+pGucHpahMeAalKAdZxvX4w0nzi5fHT476V/udk43K+U7zbFK/bvOMdDzpNAqKyiNhFkpFmHycX7r3rmnlPgrYCJ/TZVyNcHgQ8+NeV8BlPdoaUH53r5p59ehI5vy7w6oShP7wi0+VINQtKvW0VI6HJp3yb7/6+O9+/mU7F/3g0cnRVu/BweaUz67jCV8+JkiUl/RZapmwSIL1rMwhzs1OIROhCa+Z9tsCTm0hFsRB086gkgqT682sQ3OfgaydgkqCpjAJUl5zWiLK8VAzK3cKaoJHo1xgp1dqZMLnu/2UiGdErBz2RhHiAAAgAElEQVRlc2FiWI7t9EqlWHB/UN/pVqpp+XqwIB6FQ++/91cBt8FpXAw49QLmNs79YFiOHQ4rw3KMcOtyMrY/KOz185d7nVcPN083a0+OBtkwcjwuPz8bj5qpmIj1aslSSigkQmmFRgATT3pZxIMCFrtuCQPtN48cCn27CKKlZES3cG9wbV+lr/9vN/f8fPPN1c7xRnVUi3WLysVO959//835pPfLH72upcRvPnu11asOW6WphETHRUrmYMC8QkFWFnakwqRIgjIDxXg0TPuK8VAmQoskmFNZmYFaBVUNwgkRj9A+r3kJMC5QXnMQdsiUt5oU2nmlkuDbeSWvMMcbzQeTbkFlu8VoQaU7eamaYBspYaOe2u4UOgX1cNT84OIwq3CAeVVm4GgIX539YSSImFanw7RPZX0e3Uw7G560c/v9UtBvzYbRVlY4HldenI1PN2uPDnpvLic5GdvpZjeaSYF0t0pRlUeSMikxPgKyhNkAAdlYxEP47G7TGouAhM/ZrWQDLms+JptX5+IidS1PDqoR1p+S8Uo62CqGrw56X7w6beel//LLT3/z5esPznf2euWDQfVHry/+33/+w96oMW6XptqlZFYNhQgQtKyqQZhDnK2CmhDxQiwoUd64gCUlQmYggQAoyMohTpEEJcobDSGs30b7LFzAXooFGchaSfCtXCTBoykR32hmo1ygW4y288puv7zTK6UlrJ4KhglnMgRnRGxQSVzsjrqFRCcfH9ZzEuV36hdLCcllWjKu3PNYluIClhJREbNXE+yoGn04aaZFuBSl0iL85Gjw8ZP9WpI7HldON2sZCemXIgWVjvFoKkIB1mWeBETaKzE+FDRzmCfKE5V0hIRcSpA42OhV0irisdMBUMD9ahB7eXFwst1Zb2brOameDmUj6NPT4YOdRr8k/+yTqydHg4vd9rgSf3Ox+/Lh9lcfXr55fFTJyFP5mJCSWSWIAeaVIOoSSVAggFomzMKOEOaOsH6vdQW0LMsMBNnXELeegqw4aMqprFs/hzi1sSAcQpygabGZlTdbuV4pNm5kzrY7nYJ6stnKRWiFgSoJfm9Qigd9GQm+Dq8JaCZMPjrYqCbCBSXUr+RIrxMDLDIDWzQzKGgEbSuNfDjB+zt5qRyjB2XlcFQa1+OjarQSZy522x892o2y4HY7XVTJWpLLiFg8FCjGQ6WUYNFMs6hTpL3ZKAt7jDzpFSl/TCADLnMIh0531kvJCAo4EI+VQzzauVvrzWyrGHl+vr3eSrYL4k4/e7HfrqW5Dy62rvY7e/380+NhKyU82u1c7LbPthvDRjKjclMcCtwQYhZ1B3Ego3IBt2GrX4GcuqiA37z0u/TFpMhhHirgiImEXT+flinUpbOv3CkqNOszy4SnEKEowOAzLVzu9o5G1X5RPZ90zjabw3Jss5GedDJH66V6ihuUlVDAVo6HPrw6rsQlzu+JBmmFxdUgxiEei2YmzEKk3yrRQJh0Ha2Xakl2s5kYVaNPjgZnW/W9fv5macnL5OGwolDgTicvos54KMAhzsdnW07jPE8CKGgUKDCtsAhgSoYZ2G3iUG+EwxMSe3W8Y9Mux0WGQzw4aEnLVC5KH65Xd/t5Abe1C/zFbmO9pjw/HWy14g83a6NS5PnR8OFmvZnhD0alyaAoc/4pErpOFChBjIadNOyUOdjn0LbLCZdpKUSAiTAVl8ggDkQFHPYYMa8lH+ft+vlUmAzY13T3vy+iTrf2PupYG5Zjo0q8V1DSAjosx45G1d1uYauZaWfDZ5vNi932ei2ajyCjajQjYtdZGCUUgsFgAFA5qhCVUbc1wiIBt8FjWQoSTg61hlDL/iDfzgmHo+Kwon70aPdqv/v0eLjby13td1sZabuVVShw0s7JhKeevp5m24Oy27wYIjwBt+7bPoUQwCSzCAZa8zEpJQezqrDZrX3boR7IrqukxEcn6ykZf342fvt0b3eQOdkqNzNcJU5e7beenw4+e7JfiuAHvXw7zceD3jjva2alMAtNSYwf91lFGgoRoED5VB6TObhXS98IqmmFjYmEzMGwx2jTzSGASaQh0LZ23bDWFdSxlgsTu90CbFvZ6eTPJ51uPnI4rGQlPMZCrYw0qsTDuDsZgntFeaebSYtQPoKX1OtBkQgRYSLgM+nZgNelX0NcFtJnhz3XNUL4TZ1yRMBt1QTTK4YfThonG5U3l9vH48rjw/5NLVfjwWo8mJfptIBHGX89LeVUVqS9bvOizPlp2B4JBnwOrcT4UcASE8h6Ls4iYK+a+5a4cXbdUlpm+tXkv/3XX2Vl4otXp1eH3fO9xul25Wy7tF6Xr3YbF5NaLUZHKXcEd+y0UohjqZpitzu5j56fTiVl2qqdFWkIcur8Lj2LugXKV8nIHssK7DEyiIv025MyjXktKGiWOdjv0nssK6BlNRaEaZ+F8pp///XHXvNSOy8/3O4Oy7FBKVpLhHJhoqjQKR4REEeEBDISMqwo5QRZipJpCZl0iyRgyckcBTpWp2+FUB8O2AmvDfNawiyUiVI84YrQHgG39UuRy4POBxfbT09Gm83kyWbtwVarV1KzEp4J45uNbMC+FsYBmfIyAXsqQvkc2nw8yCAuBDBFgkhMJPbWWy8vj54+OOBQb1YVAIuWRUC/Q1/PyhHa87c//7iVEz98vPNwt3m8Wfri9VGvLB2Pi4ej4odXkzDhLEWpKAs+PR7mIuTeeuXR8caD3f418zCvzvCErxAXvTZthENvln6fXSdSfjrgiosU5NAX4mJWDYUZ2GO+NgdCuFckfZBdC9m1YdrfLsZTYbIcE/7x9193CmozKwuYuxwPRUggGYIjJBAP+jjYVEySo3q0EKcjHChSHh73iCTo1C9kIiwF2XHQgrhNahAN036nfi6jkMUEE+WgQpweVuPffP7seKM+aqYaGTEhobUUL9HAqJbIx5ikgERYfzkpKRxSTUe65aR1bbacDIcwEHYZX5wfnO0MaxnFqV9s5KKm5WkWdsMuQ07B/suv3qbD/naB3+mn//1ff3++13q42+yV5Rsf4+3zQ8ixUk6F3j47zcf5D56erXcquSh/MG5dz1AUsNzMhAiHBjHwhsFJdOBGOMO9tvVWMSWzMYG8JsN0IB8TCvFrI1aiAzdnYpj2p8J0jMc32sWjceNsu5MScZ9luZYIiahTRJ2lGF1NsYOGEhV83WokqxJxMaAEIZ5wWVbvFWLBIOpBPSafTcshnlSYKSclJmDHvYaYABcT3PlBf6OT/ejZ0cP9XrMgd8rqtZ0epeMiEhPgCOf7lmAGskqQghzdcspjWmkV4hzikRn4F19+9PLiMMYTg1o2iAKlhGRanoZdun4lPOlGBdzUzLH//Mcv/+9/+sUf/ubDq8Pu7qj45UeXn7w++/Mff2bXz756dCQx/n4jx5FwtZAiIdewnp1KRzjdwh2BhDgUmAzqfqdho1PGQGtCogHLWsBlzKqhyLdJvl41szz9A5HyIx5zLsqjgIUOuEK4FwOtHtNyVrn2PlJhem9QeXa6td0pNLNyPcnnZbIaD262UnkVLySoUopRea9AOsspLog5QOtiNITEBUwggDDts6ze91rXsgr37WJLZlUqIaEvLibrrbRAug82aqNmqpjgUjLOofaMQhI+Y5gBg5gj4NR6rWsJkRIIXykhyQzMfiujKxw6bhWH9VyMJzqlpET5RRKiIIfbuNDM8dmI/2K/udmOf3C1Xc8EX15uH2/Xn5xtnExavVqykBBapXgpGf7Fj996HQYS8VKoL6PwV0ebUyhgIXx2mUVkFmkW4iLlz6qhei7KoYBDv4iBVq9Ni3jMQQx0m1YQj5knfD67LhlmGNhNQg464PKYVwHzChNwShSEAWYedTWzci0l9svxm9OtlggNykoseF1lhQQlMa6Y4Pc7lwf1BAmZMhG6GA/hoImFHSLpoyB7hIVvCEGzIIcZ8KefPknJeDKMjduZcio0GRRLyWBcRM52O61iZNhI9mvxnMpmImwqzMR4IhrCU2HG79B7rZoQBgZRIISBvUqa9Nlx0NopJSMskpSIv//1p81c8CdvHwyq8rCm/uPvf/yrn7z6/IOHf/rdj7/44PK//fn3pZR0HV1Xgq+ujiMhIhWVKNTXKWd+9Obx1DWZWbnvMi6HGZgnfCTkwEDrTcgr4DIysNuuW3AZl23aeZ7w9aoZ08p9r00bZuCbWgtioMu4HEQ9PpvG79BZVu+zflsuQksEQADGnU6+nuQbKWG7ne4WZYl01NJcnPfFQxDiXCnHme1OJisTuEdH+yx5heECdtSlq6VElfWnRFQi3FEO2mpn8wpVS/Enmw2V9Q0qsYJKd4vKTq+gsr4gbONRh31t+svXj0pRHnHoJdxLgdaCEkSdBh7x5GR2t1etp2Taa6un5O126eFksNMrZWVsVI/W0tzhuCSQzrfPD3/3s7etglpOiz/++JnLtFRKhpfuv5eMBFNKyGXWZhOqzbi22a1lFW7q8emOdv42BlrdphUW8YBWDew20QHXdr92U2s27Tzhs/udBsJnt6zNMrAb99rsugW7boGEHJTfaV6dYQJOxG0UCC8OWli/LUyCmFsfC8J5mcyFiUKEGlXiSSFQjJGM37DdTRejFO0zbLZSzazABaxh0sNA5mKU2x9WUyKuMJCAOTNhnAQNERqUCHdWJopRZr2eJEFDpxApxdiHO539YXmjmX6407k6GFQSwU+enYoYSAIWHvHgblM2zBAeM+ExZ8PMsJLe6VZKUX5YSV/sjpoZ5cnxRj0dqmeCJ1vVnV5OIJ2fvX7QLkbDtD8XC10db0MO/WTQtOoWKRhkMQj2OhkcpjEoHQlFQ9hUv5Zl4Gtx3bw6c62ysYjTsHTTkgGX8cYEAK0a3Gu79+5fXscvIIdNO19MXO+OInWtGqOAxalf8FrXrg1ADJCIax6gMNCHjw4jJFCNB1sZ6WBQjoegvEJkwuhuP5+L4M2sMKrFsjKmsmAIsUZoz7iRenQ4HFRio1pCZX1ZmWD9JhLURWhPQSXjIagUo1MifHXQa2T4s+3GoKL2SpGHO63NViorE91ilEc8RTVUjgkxDmUhB+q8NioBw9JurxoPYi/OdhMhfLNZyMnspFtsZMRRLbbZzUg0EHCt5aOcQIGVjBwTSJnFKNhTSke1i/dpGCL9XhQCOBKVeXrYKF6jhoFWp2HJoV/02XWU30kHXAIJsYhHogMyi6ghHPGYEY8ZsKxBDr0awh36RdhtQgGLQEIM7MZAazWj2LVzXuuaSPpE0kcARtZvY/223X65pDKJYCAtoPv9Ui6CJ4UAAxlrqaDCAIhzpV9W0hKSi+C11HVe5tpGiDOY+1ptjwV9o1osKQRkyp0Jo6NazGueU1mwng5tdzIMZGxmhXKciYegZlZIifC4kaqlxFE1U4mLF7ujnMymBBJx6GG7TmXgXjExqmY6+VhBCdZT8mazUI6HwqTndKu+P67Wc1K/mryOg3BwPib47IYwg3K4H3JZMK8nLvEo6PYDzlo5FwAd9Vz82YPdqZtjC7CswW7T/R9+Jy5SShDDQCsGWgMuIwpYqhlFCWLm1ZnVmfd4wucyXtudHvPqTasysHvYyGOA2W1ciguEQzcfJsEEjyYFrKCyIuqMkIBCgevVxLCipoTATW52vRa7oY4qAxQUPCPBBQWvp7gPryZbraSA2hTaU02wAmqLsiCPWPMRvJOXBmXldLPWzPAbjUQlzrRzYj0VbGZ4hfZEGZ9MgCWVS/FYJ6eMKkkJ8yRDaIwNVGKhRkrKy3Q9KY5r6XY2cjisVRL8uJH66adPNjpZFNBFggHMaxo0siHcGyQgzOegYNCiXaoVs5162WE2+NyOUj6liGxMoN88Ppmyaee9Nq3PrktHuLXZW5TfKbMIClhuTCa/0+A0LImUP8zAxuVpwmd36Be/lfav3w/h3giHDhv5G/dgq1sO034edfGoq5YSB5XEdisb9Fsf7Q9yYSIlBGKcNxGCmhm+k5duJMaUEKgl2W5BGpQjjXTwcq89rscSIV81wQwrSk7G1muxWpLrFsK1JFeKUg8nTZUB2jmxV5TbOTEjIUnenxbhi912Ihjo5lUedlZioaxErldTo0oyIxLDciIZQl+cblfjfC5M/eTNozgHNzLhjU52Mig28mHAssBhrriEx0Ri2MhDLpPEooNm2apbjghcQpG8LrvAUnFV4hksJtC//frTqbXZWzbtPGBZEyn/zHt/bV6dYREPYFljYPcNoDfDISaQKGBRghho1Uh0gIQcN03tMa/yhE/hEIVDcNBC+x15hSEAIwNZXbrZksp4dDNvLnZriRDh1kUZn8oAzQxfiTPVBFtPcdUEU1DwjUZ8r5+pxMluQchHkEQI3GhEiyqh0O71WrQco3a6mY1GPB70dgtSMxM6Hpe/eHm82UxMOulEyBfjwK1Wym9ZKipsWsBHlWSU8W+38hc7/Um78G3OMB3nYIXyBayrpxstl2Zmt19ulxTMZzg/GkCuVQZxIIAhHeUuT7a1i/cwnyMVlbTLsyJHRQQuHhEp1J9JqiTivU4lZSJT2vnbhbioX7zrdxpW7v8Q99qUIPbtzQMO0Kq5YWQu4/LNInXzGYd+0bg8DVjWjMvTN7YxBphpvwOya7MKF4QdmFvPoy7UpdtuZWMslBExhQJRx1qKR1JCoBSlCgpRilLZ8PVyutvL7vbS47raSLPb7cS4Eakmic2WWlSxKAtsNhMxDtxup47H5VKU7BakbBjJSPCD7XqYcHz+4uh0szrppOup4LeKS7RfjO12S42UNK6lj9cbhQgzqiRVGtpsZFUaWq+mWhkZc+p6JbWaEVjM/uXHVzhkDOLuUSt7sjew6ufkIKoKVFIVBRb3A07D2lIpmwyArkoxk01ELo8mPA5O6RfvooBl6d67xuVpzdz7QQwMuIw3z43L0zbtPIcCN2tTIS6CVo3btHKdLfXa3KaVlfs/dOgXXcZl3fz7HOKmIHsQ9WTCpMr6RdxzTT5YiIMsNGisJ3kZc5UVuhbj0iG4FCFSQagWo3fb6XqCOh7l35yPH+83hiUhzQNlFfnk8dZGTSnK2EEvF2eAToZvJrlGgn24WdusxcYV9dFuOx2CTtfLjQTbzQrrZbWXk0sRqhShBgUlwUIb1cT5VqubDcuYS8Zc3Wx4u5FuJEKbtWSUAqOMr5jgtIvvyEGQxawCA/zNV68uTzcapdij8z2fx8gQvk4jj/hcDO7fGnezKQV021SJG9QLIQyY8tq0dMC1NnvLaViy6xY4FLDrFkwr982rM36n4SZGioFW3GvrVTOw2wRaNT67LszAw0be7zRADj3ld9o0s0HUw8IuHLTctGeE9sWCMOnRO9fucZBFRJ0ZHilFqGaST4fgikophGurHt9tp3faiY2aMmlFzzYKR8PMdlNtZ6iLSWW3k1RJ17AoN5PcYT9fUclBIfxws7bXyey0UutlZb+bXS8r9TjTy4nPDvtlhd6oJoZF9WRUxeyr6+VYPx/JS3iS829UE2WFzgro04NhIxFKBQPnk87xdr1Vls/225hPF5exf////ulkrzdoZX7ziy/uvPdXsM/eqmW9LktMDiHXjvMKgUJWw2pcZKppecptWrFq5lzGZc3c+9r52w79on7x7urMe4aley7jstemdZtWjMvTqzPvZZQg4bODVo3HvCqzyHa/5rVpTSv3ORTw2TSI24gBZg5xe81LuMdwQ9lYn7mo0BESEBBHkvMnOX9RJqtRtqJSKuk+36qvl5WjYe5wkD0aZq52a6fj7MWkdNBPvDkfHQ1zqaBvvaxs1mJPD3qDQvh8qz5pJh9sVDeqUZV07Xezh/38YT8/rqhZIdBKCf18pJEIPTsc1WLcx1f7+91CLcZFcHc7LSY5f1mhz7dax8PK7Pf+18+enfz6p6/TKra3UdoaZH/0ycW//49/vDrb3BnXPnx1btDcrxSiR3tDJcyUC/GYwsdVQa9ZSkWlzW6NhV3XMzSIgYjHrF+8a9POu4zLAZdRO39bv3hXM/e+y7hsXp25AS7gMtp1Cz6HFvfaQgQY5QkCsl0bg6QXdhm+VSw0buOSx7SIegy0z+I1LwmY82efPsXc2hSPhFGnhDhitLefj1RUJsn5XhyPOhn+oJc76Gd22onDQXrSij7er51tFD54ODwcZPsF4XCQrUTxeoKKMa6LSa2RpDvZ4MWk9ni/dblTn7TitTh5uVMvRfDNWryVEgYF5XLSqUbZXk6uqEwzGSxFqM1avB5nj4ely0mrlQp1MsLZVv3vfvMpaJ+3G+4ebteiErLRL16dbX/y4aPz020SddO4Vw0zDAkRqDeTjDBkgEC9+PW9DcG9UW3KY9XqlqbDHMYioGlldvbW91Zn3jcuTzsNS9M/+KuFO98HrKsWzYzDsEDDTsxrgZwaBnHhPjOLuiGnxm1eFigQsC5DTg0CGNzmRbt+lsOuXRu/Q5OWqUYu4ndoIrTv6dHGpJE77FWGRbUaZdfL6kY1Nmmmzrcaj3bbG9XoqByetOIPNosfXmycb5ePB5mtWmSrFinJgVFRKEjQTjO6WZWzPPhop/Z4t97NsOslcbMqn63n86J/oxzdrqV6GfHF4bAsE+OSWo8yw0I4zUFVlTzfrJUjeCPOdNKhTpp7sFkeVJVCggoznpePdj225WSE/fjNk2g4CHkcVpM2pohCkGJwuFm51oia1Uw8ykp8oFGUd0fFKbdFszh7i6P8oFWnX5y265Z61Zxu4Y5m7v2Ay/j9v/hfZm595/b3/3f90p1vsZuDPXrIqUFBYyUjpRUaA4y4zxymfUoIRtx6u35W4QIhwjOspy2a6e1eKS7hSYm4dghDaAQDChKVl/CyQq+X1fWyutvOPNysX2w3dlqp7WZsuxk7HV+jdrlTPRokP3uyebVT3m2r/Txbj6Nn4/+fp/fubXzN0sTqOxj+wzDWhndn172zPd33dt2KUimLOedMkWLOOeeccw4Sc5REKmdVSVVSqepWuDn1dNwOM7OzYez1ru21MR7eAgwQPxAEQYAH57wnPc/zhmsJY9TK6+Ts/aKrkTJ3845Gyrzfjr08aJwPq+20f1AIxa3y726OTnqls2H5dFBqZzwFv96rYZdDhuu9xlY1bJWQ9tqplFfj1HHCLvXb66Oo1xTz2794+1IlFRKxqEjAS8KhP/nor1rrZaVEYDOqbSYlewUdC5uyMcu7m907Vp2MQoDTSEjhCplLw1vUkg++xqFiMOA5LGRevErCQGZZZAQVCxKycAbFKosM08lYbpP42WEvZFM4DcKwXUnDLlmVq3oZUyOgaMQ0FY8kYKKUXKLPKlNwCHY1N/Zjgsv5jFmvbj3u6BWCnZx/u57caaR2molRLTqqhds556gWvj6on27kd5uRL59vXGzlD7uJw26ilbFe76+1MtZOzj4ouetJUyNlHpY941rwbCP7X/74+emg1M36r8aNzXJ0p55sZzyjtdjZsNzL+9djtlrcetBOX22vD4r+UlA/qkVradfrp5trWd+4N2FvJILO/fHAZtRqlTKtUmYz6ZlUEpNCkAm589P3q8WEw6Ys5X2taviz2/07ShGbRkKS8TA6Du40KFcpWAV/UqkpBUw8bBGxPO00yigYIBo8g4cvSLkTLgEBMa/kU48319fT7ohNKWIg2vnQZj1pkjBNMkbUrlLzibmAmUsG5wJmg4QWc6jtKrZfL4pYpH69wKvl/mg4eyPl2mkmthvxUS180E0d9pK9omdUC17trl2MCrvNyFEvebVT3mmEPz1tlULq881cK2OtJYzDsqeRMtcSxq01/+kwU0+aXh21bg+79bjz9qC338yeDkob5fB2LdHJetei1rRL1UjaiwHdaC1S8Gt7eW/EKiqETf/wp68CdoVazFAI6CrxqlmnUIj5AY9Tq5R1mzUuiwEFLEgFnIDbKheznXZVwKsLuZXH22uTcw28PI2AzONhy1waXsFfEbOpH7orNGh2kkxRywjA1NzDv0IApvhMDIeGXCFBpRy8zyiUMBFOJZtHBjmVbK+BL2eiXFpO2Cxx67hOJTtskzoUrJBVYpHQLRJa1qurRq1Zrzbn13RyvkE5MK7HzjYL243o1nrgZJg53UyP66HddvhsM3e5U95rRUfrgbfnnXEt+GxcrEZ17aytEtEedhPnm7lu3pH3K+pJ024zUgqpLzaLa1HzRjl8Oa7t1JMXm9WNcrhf8L09GwyK/n7B10jaqxHTi916MaCrRkzbjXi/Ev7dNy+SAaPXqjCrBXaDIuixaeRijUKqU8mDXheFgBXz2IJVZr2S46wQAz7T1rAS9mpvzjfu4ODLKNgiDgUkwAEsEppDxWHAC0TEslLABM3ep+OgU3d/ggI9QQCm8PCFVSpCxMYrhTQBEyVnoy1SiogC8ek5EYtEzUEXAoaAkefVcp0qplVKT3uUUas059dELJK4Qxo0CjNeVdqjrMbM3YK3nXMOK/5hxbvTjIzq/uNh8mQjdbaVOdlI7nejV3ulp6PC+Wbuen/tuJ96Ni5+d7u9347VEsa3551Xx41xLdhMW3oFZ7/oGpTcX78Yb1ZCg6J/LWodFP29vH9Q9Hey7p16/MObSti4XYt1c552xlWNmI76ue1W+tl+M+E3WLWCdNihlnC0CpFCzOexmRQCVibim3RqJASglAgQ4EWv0yDkU8N+c8ijW8/57+ARABRs8dG9n5JRYBISJGCSeHQCh4qhYsBhlxE0e5+MBiCB02jwDA42T8eDPmSDVQpUxkDIGRC/juPTspwKRswqtEmpSYckbBK4lHS7jObXsbMeVdQiSDnleZ/KLCH79OywhV9LWvol7+aa/2JUOOgm9tqxnVbooBc77MduT9af7xe2at6rveLFVvZqp/whSF8e1v7uh+e3R/XRemCnET7sJg468fPN3M3B+rDsGZTce63o+UZho+x/vlPbbcTG61GPmnU2LPYLvsvxWi/vbaWdp4NCv13dFeEAACAASURBVBD47funl+NaK+O53Gu+PJtQZrTSFYtGyCShmBScViERcFg8NlMuFtDJBDIOpZIKOUwyj0Vt1vKxiGNvq1bNeO+QMRCpcEUqXEEB54gIIIeKY5MxSgETBZwBzz3wWtTJoA2y8AAwcxcDmeXSUToZi8dAq0VUGRPmVjGSDknIyPXr2AW/2ijARS2CrWqwkbTGrMKwiZdxyz1qpl/HTtjFGa8i61NmvIpW1tHMWDt5x+TwakX3u9G9TmS3HdrrhN9ftm5Pqv2y7WqvOCy7ToeZs43s9f7a2UZ2ux76YKxn4+Lldmm/HdtrRW8O1if22sxtVn0fDJewiw87qU9POpfjytmwuFkJdbLujXLwoJ0erUUOO7nvXh6O1mLjWuLTi83b8+HN+VYyaFma/piChaplAp1SKhcLJAKuTiWHABZ9TqtMyJWLOA6rrt0oO23aUibQqsTvgOYfaZWCDzkUvvSERyeAZh8y8LAPywQMeI5NQVKxICRwmk1BEpELQhZOJ2PJeUQxDexU0LyaFZ+W5dexwyZe2iXzaVkbZX/GLe9knce9TMIu1vMwpaA27ZIlXdJCUNMveRtp27Di7RVdpxvZy53y1V7pdDP9dDt3uVs4HsbOtpJXe/mzrfR+O3IySF/vr50M0h+C9LifOuolR+uBL66GLw9rT0eFp6NCI2X+9bvD0Xrgcru014ruNMLH/VQppN6s+nYbsW7OddzL7TYSjaS9HDJcbdcP2tlJfnCrN9ZjV4ftnX4pHbbRcGABi2zRK/lsBotOcVpNRq1qhUZuVIu1cn6Fit/oN+QSLptJcliU/yQFdIeABLIZ+OX5hwQ4gIwCC5gkIgIIW3y8QkTQsBA0aBY8fx80dw88f59JhDEIYB4DLedT2GSIVUp3KelyxsTjvBq2Q051yOkppzRiFpZDukrYGDRwnu/UWml7v+BbixobaUe/5B1W/LWkpVf0jOuhcT3USFvOt/IHvdjpZvpinD3sx0424s928icbycvtwrNx8f3T3ou96tNR4bCb2G/Hzjayz3crNwfrr44bT0eF26P6YTfxf/7N5z9aMHe2kT7fzFxs5ddi+s2qb1D0ppzS0VrkqJs97GT6Bd9hJ9fOeNai1kbK1SuH/uZXn+4NKyoRnY6HfJgOKcR8AgbptlvwaISYz2GQ8Xw2g0HGysScSNi3M+r5XHqlkHFHwCLDwXPL8w95dAKTgGQSkGQUGPDkkw8DDx4dhwI9gSw8gCw8ICAWJ7EpZsT9pohbo+ETbHKaR8NRraLSbrVegPfr+U4V061e/fZ2P2aT1ZKTzjEf0JbD5nxAm/FoKlFTOWIsR4zFkH6jGjgZ5m4OawfdxHYzeNiPn26m97vR42HiYpw7GiReHtZOBunXJ82rnfKr48ZxP3XYTVxs5S+28oOSe7Qe2G1GDjrxZ+Pif/j1y4ut/FEv/nSUfX1Se3PWPOrFbw6ql9ulTs5+tV09GxaPe7nNyiRCe3l/Pe7M+w3FiPn3315H3BoZjxz1mthU7Mn+SCrgCDgsi0HLoBDlYsEqg0JAw31Os9dlBgLm9TqlZiLVwr7DZRBAS1N4NIiOg+OgSww8ggAHfOhD6TgoGjSLAj1BAqfx8AUKBijlkvhMjE7GErEwcjZGsYqxy1fEDLiGg+dTwGGzxKpg+vUCm3LFJKIqOdhCwJgPGVMudcKhKASMabc6bpc3M5NBRT6gbWVdt8etcT2yUfXtdyZWO+xNMunTcfF4kH6xVx2tB04G6YNO/N1F9/aofrldOu6n9tuxp6PC65Pmu4vuaD1w3E999qz/1YvhbjN42I1e75ffnDVe7JXfnrfenncmx+Jebace/bEQCZxvVI57hZ1aqhq1bdUTE9JgyKyTsTIRJ3jhcS4ZphIwSqmIQSEKOCwui6GWifAo2AoV73VZV9kMkZCjlPC4DMKdham7s1O/AC1NIQGzBDiAAAeggHPL03cx4DkyCgiavU9ELlEwQDoeskKCa6Ur4lWCVroiYRO4ZKiMjXFp+J+92PMbJWG7fLIi0HIVbLxJxjCI6CYZQ8unCOnwiE3pNQgSDrVfL/BouI2UqxKxFgKGqFVajZkH5cCHMdHpRvaon/mxWKueDDPPdyuH3cTTUWG/HXt13Hh73nm+W9lvx373+cn7p72jXvJyu/R3Pzz/2++vXp80T4epdxet53v52+PKm/Pa7dHa5Xbhen/txV71+c7a6SB3vlHZriX2Gpl+PrhRirQy3kE1MmqlkgHjjyQiy/LM/XQswKKRjFoVnUxQycQBj9OiV9uMWjIOYTVpnz09xeNQMjFPIWTdgQNmcCggHg3CgBdISBBscdqqkULmH8KXpoAz99hkFGjuHgIwBZq7hwI9EbHxMh7ZqhXY9SKVkMJnIKUsbL0QpCLnxezJbsmhF8RcGrdJbFGwZVyCZAVTSXtIsJlVIlhIRRgEVLuc7dcL/HpByqXOeLRZr7aedNaSts218GEvfdBNnQxzT8flw97E126P6u8uulc75ZNB+kPe3GmETwbpD/lhpxH+r3/+7Iur4Y9fa//wenxzWHqxX7g+KL48rB52o09HudcnzadbpWej8uW4Nl6Pj9cSjYSrm/UPSuFsQL/dyaxlfT6b0qjkreXjfDZthUo06zUMClEpFZn1GiFnRSHmO8xaIY+lVsl2d7ZUcpHLrL6DBM1hkQAI4Alw5gEWsohYniklQ0wCHA2anbn3UyoGDFl4QMdDKBignE9zGiVOo8So5BgUq1rpCoeGVAvp4lWCkInFwWbVQjqTCEEsPeTQkGwSDA+fk7AJTCKET0fLueRVPETHpdplHCkdJaYidDxiyCSO2xVZry7r1bYynnE9NqpF99qpSQnamNQTL/aqH/xlUHLvNML1pGlY9nyobMthTb/o+uWne+ebuZNB+vlu6XgQHVasm2vOYcV+1IttVFxHvfjz3cqg6B2thTbK4XrCcdwt7tbT+838+ebacC36/buz3npi0MgGHNqj7b5GLmRSCD6XXaOQ2kx6Losh5rGJGITfZRHx2WaTgc/jWAxah1F9h0lCCVhkBHAWsTzDIqE/TIo+/sn/DFl8REIDMdD5hamPCfAl0Nw9JhE2QW4quQYZ26EX2A2CFTKYjFmg4YAaCXP5yUcIwCMM5AkdDyKhlkFz99gU5OLURwuPfw6YubtKRvJIyFU8TEjFsLAQ5SpJwSbaFKt2JSdkkYdtslLU2iuHeuXAZi263Ur2q/5xPTKqhfsl74fJ+LDiT7kVzYyzmXGOatGIVTRuJipR02QxaBI10o5OwVZPG7pFez1t3G2HN9f8x4P003FxuxE93SjuNZP1hGO/lelm/Z2Mb6+VrSYc5bh9PeevFyMrRITHquWzGQa1gkLASoU8MX+SFrQKqYjLEqwygx6HzaTnrNBT0VAmHryDBMxSMVAsZBG68IiKBj3++CfQhUcEJBC0NLU4e18uZvNXKQIWmYaFsCkTaLZRyjRJmA4Nx6blMAnLLBKQhJzj0uCIpYcsIhQNfAJbeIhcnsaBF8EzD7GgJdj8EwxwEQtaIkGXoTP3eWQ0emkaB5xl4+EyFlm6QnTrpBoBLeHRjFqpRt49WA/XsvaDYbZT9m82EvWcp1nwufX8YtTqNok9ZknCZwra1UG7trueyYQcEbcpYNO6DDKDnNGvRwoJ83efnQ5rkWEtcrXf2KrHzsfVw0F+cy383auD043iy8PuZjW618p0S6GTrVou4vDbNVIOnUMnhrxOu0mPQcApBLxBoxbzOTqlTLC6YjfpOUxq0GkzqxU4GNhlNd7Bw5aZBCQaNEuALeKh81jIPA6+CFmcAi4+FvFXrCY1AQ3lskg46NJkGMkhTRbjmgn20WsSGBR0CQdNxy2ySEAWCcwiQsGz95h4qJBJYBFQ8IUZKgq2+PD+zN2PUcuLegkPB1588NN/RYQBVvBIPo1AQYJxkHkJm6TkU70WqdcqCrnk+bihVnA2y552NdQqh6oZd9ynDTlV6ZDZZ1Pq5RNQgEbMVolXrTqZmMOw6hRBpy0X90c8eq9NstFOf/P+vJR0lFPOP/5wu9vLHQ6K/+Vvv+tXguNmop1zdwveg25maz2y1823CqH1bNBlktfyCQGLqhDzhZOyQy8Tid12G51MYlKIbDqFSSFSCRgMeEmyygg4rP900t1Bg+ZXiJMxNw4yD569B5l/CF54SMXBaCSkTi3hsqlw0AIJByUhQUIWwSBZUfPJhYDRbxL5zEKfTWhU0tRikkFBdxkFehlTxiGtkuFKPl0jYomYZBWfhVyag80/4dMIXArOohISYIsowJPlx5/gwItMPAwDmuVS0dJVok3LCzpl63lP1CurZm2tinevn20WfI1iIBe19GvJuE/vsykneGudVC2a6HwqRWwqDsFlkH58ElapCJWYrJfR4z6tWkRulUNHm+VC1NzMeXfamT9/dx0yC3aaiVcn3VbavlENbdWT9az/8nCoFE60FyhYuFomQkFBVqOBy1pBw2EMCpnPZhIxSB6LbjfpOtUCBQ0zKmXDTuPOhxqNggaRkQAqGrj4+GPA7D29QqBR8EX8FSYNT8EjaSQkCjiHAExZFJwJjzvhDFrExZgpE9GmQtqIRx73qxwGrlpEdpuEO/2STjJRLwk5dFoxe5WMErNIkLkHhZjXZ1FzqRg8dIFPx2HBczQMmIYB8WgYvZRl0/IKCeu4l87HDe01z6ibuNhd71ZCzVKwU40cjWpu02RErJOxhCwCAb4kWqVyGQQGEc1lkLAwAH+FIOURuAwYAT5tUbPlPLxBzhCvIDbq8ahD3sh60h5lMaQvhQ177dSb0+7mWvj2dHA2rmXDdgYBukpBU3EIBHiZRsRZDHo0HEYlEkg4LItG1sglCPCy32V7fXmmkwqsWtU/SfXeoWFhVAwUtviYjARwqWjE8jQesUQnIGgkJJWEFvKYK1S8TMQCzjzAweZVPIpRyoxYpEmPOuaWxjziVtEdc0uzIY1BStaKCCG7NOHR9CqRRi4Qd2vX036jlGVXCc9GnfVU0KEWqXl0DhHh0csscp6QhhVQMWw87McVqiDmVpbi5sF68HAzczDMnu+snYzKraK/kfeu57wm5YpWQjcruXo5h4wG8Bl4GhaChS3BATPQpWmzRlRIOjlUiEHOEDAREhYy6lJEnHIuBRSxS0xSyn4nXQobTge5y3HlpJ/dqIa+ennwdLeZjzodBilieZqMga0yKEgIkIjFmHRaFp3GpFLYdIpeJZfwV8k4VDrkFTApAYfVqFFMsgEBDkCDZvHQBRxkUtlKuNSlJ/fAy9NkAhKDBBExsBUalkPFCVmEH8V8KDYZ028SOrXMkIO73Y1FXMJsWBWw8oM2QdQlibpkGiE+5la2iv7NenKznnx+2D/Zqu10Cs/2es8Ph91yPOLQ5EI2GYskYmD4VKTPJAlYJNWUo5Z1Hm7kTrcLT/crL46bP7w/3ajHC1FzxK2KuFVxnz7hNzgMYoWA7jYrLGqRmENbmLo79clPxaukVQqUhl3orkUbxQCPChavIExyulZE8hq43ZK/kXa0sq5hyXe9V+vl3TeHrUE18s3rk1Enz2OgYYuP4YAZEhaJgUNgICCbQVfJpDw2k89mhrxOEZfFok1YtBoxj0Mjq2WiO5D5xyQkiI6DUlBAEmKJS8MqRStEFIhCgHPZ1MW5RyIuc2nugU7Kk3DICY9BxsaFTOKAWZQPq1NByd4gXoxr8lFVJqT0WVbtWlrEKbap6YWosZywxNxKl54bcystSmbIJnPrhRGHqluO5kKWmEvj0AgiDpWaTzbJVvJh86iV2h/knu2vXx6uvXraeXM5/MP3z8ftZC3rbBZ83Upo2Ej2a0mVkKIRMSIe41ou3F3LaiWrHCpm4oCo+UrGuT8o5CMmk5y+lna6tGyvgavmoMsR43rM1Mk6Xx+3O1nnoOjtl/ynW9VWIVBKuoQsHGT+4dKTewjwMmR5gYjF8FfZJBzaZtIbNcpVBsWoUUgFbAIctErBy3irdBLuDpOAZJF+3BODZnk0DJeGRYFnaXg4CQddoROgoPlMPLgwc4+GhfEY2IkghZheCpnbOXchorFqiIW4ai1rKMTU1bTBZaC7DPSQg++3cmIesUPLtGsYZgUl6pLE3HKzghGwilN+bdytnrRfGl4964+5NDoRzapkdSuhUtzcq/pvTttfvhq/ftZ9/bT/xcvtdsmzUY9eHTZHrdSom9nu5bfamXohWEx6muXE6W4v5rUYFXy1eGV/o3xzMdzuZAxS6lrauZZ2xl3yTtG320pWoqZqxLDbiJ0N8/2C53SQO9ss5IK6zUbiaFQTrxJm7v8bHHx54ckDFBRIwCCpRAIRi9KrFSqpkM9mhLx2r8PEpRENcpGMt+p1WCYqKD6rjoIG0TBgNmkC2mCSEMsz91GwxZDfQcTBSVg4eHkaC1mU82l+8+TfBgzCesp+tJFpFa2FqHKw7i4nNOsZQy4szwSlmYAs4RFlg/KglZv0Sn0mdsQh8JnYMZck7pLHnLKkR/0jKCZSz3iSHo1Hzw9aJFv1RDPn3uulXhw13jzrvb3sXx/Xz7eLX7/aPtkq/Pmvb3a66ZNRea+fz8es424hF7Xt9CqfPj/44vXT6/Ods73u4Vb1fKfWKvqvDtvdkn89Za9nnHvdzI8bnHAjaT1oJ59u5o+7yduD2tuzXj3j3Gwk3KYJcg0wcxcLW2LTiUQMgozHHOyMFBKhgMMyqOUiLutkf+R3WQJ2k5hNLySieBTsDmxxeubez+w6KZ+Ogy08JCKWBSwiCjzPouMW5x4tzj2KBd1apWAtG0sErBoBTUhHmkRUv55/sVOqJLWVpHa7EyrF1ZsN324vUk3p1tPGWsZUy5gyAVk2KE96xUmvOGTjpHyyYlRfz9rbBW8946wm7LW0q13w/8gb1fbKgbWkbbsdv9yvfvq0+/n15ouj2l4v8fqiczrKf/Fy+9n++suzXqvoXc973t/s27Q8n1Wml7Or2UDYrdts5l9fbL047g5rsXE7PSGOdTObteioEW+kbUf9zPVebVD0Xo6Kh+349e5kmtLKe07Hazw6DAOdYhJhqzQMHgWRCjgEDPLZ2TGDQpSJeWw6WacUi3krLqs+4XdpxDwWmbBCJd7BgBfKqTCPjksHHVQ0kEmAm9RCq05GwIBJeEQ2FUZClsDL0xvNiknF3+tVzsYNp5IdsUiCVm6n5OhVXIM1T6/i6lVctYxp1Az2q+7tdni47m3mraW4upE3V5LatF/ayFk6Jde4FdnrpXoVXyVuqWeck+apEi5FTWtJ21rSdjDIXO5Xb04a7656r07rzaz5fDv/2YvBq/P24TB9fdIat5Mpv3armXToeQG7TCuhu4wTQmw14x230/uD3F43M6iGWnnPXjez24rvNGPnG4WtavA3bw+fb5e314M3e2v/4a9fnG/m9nvZbMgwffefs6lQn03NIMKhgLlcMjze7OnUMqNOKeKzbUZtxO8s5xLdZqkQD3kteo1EmIoGJ1WuVsJlk1FcKmbp8UeI5WkGEY6DL7frBQR0aXWFzGfT5qbvUtCQj37yz3a75cNh1SSi6vnEpFe+14utp83FqPrF0dr18XqrYBs1g4M1z+EwudUIDNe96xnDuB3sVhz1nGl/EBu3QluNwHY7OmqGexVfu+Dtlvydoi8f0qd96kbO8Wyvcn1cf7ZXuj5ef3m81s5bzrfz75/3310NTrZyt+fd03Fpp5uuJO299di37867a/GgQ5kJW2xaTtyjqiStg2rofFy92m/sdTPHg+x+J3m1XW2l7Td7a8+2ChmXZFh0n/QSw7KnVXAVokYuDcpjInkMtEa6atJJ+WwaEYe0mrQ0Ms7jtDgtOu4KxaiVuGzaWj7lMetsOrWIy5pUuYAn9yeoeAwYvvgIPPeAjAHh4Mto+BKXTSXi4FgEiEZCguceLU1/jAE8xoEeWyT0tFtdiRoqUV3GqwhbuKWwpl9yb675O3lHt2jfbgaHVfe4EegW7UeDxE4rNG74z0eZw35sq+btl52ba/7txqQzr8aMtaStENSFzLxG2vZif+31aetyt3hztHa6mbray395PTgaxL+63fr8evj92/2zcend89HpuHK2vf6P//n3m610Je0qJuwRt6qachTChkLY8NXLvb/75c3V7trTcXm/k/wwEH65v37USbzcLZ90YgWP5LSfjjhE6YDGZRTQ8MsTGQuPadCpYuBAHBpmMWqUMmEyFjTrFAfbQ6WUIxezbVpFvZAOOm1KieAOA48wq8RYyLyQSeDRMBPYPI9GQoPL+ZiIvzL96Bd/9ZN/joDMz97/+dL0x0ws8MuXx2GzxK/nJ13yRtq2UQ2UI/p8QJ3xyvol9+lG9oPhukX7uBEY1f0fVlDHw8RhP3I0iO60gp2CtZWz9EvubsFdjRnX4pZG2hEy8+op6+VO+c155/qw+vqsvtMKfnXT//P3F0+3c9+92bk5qX35cvTtp7sXu9X3L8Yvzwaf3+wdbFZKSUd3LTruZbdb6VbeU01Yv77d/+3nZ+dbxYNuajLm3Mi+PKy9OWn18863x/XzfnK/Hjxsx1sFl9vAUYvIXAbCphOqJex03CfiMpEwoIjPFvHZJDyKTSeyaASDRuy26zRint9mTIX8kxxKQk7mkXjYIouIoKInKlYI4BMKFoqELrCZJAIWtvDkARYJYOARjz7+V2Im9h/++K2QDDGLqQEjL+6YLInTHnm/5C1H9OWIvp2zb60Hmhlrr+jaaUaOh8nNde9OK3Q+yux3Q/u9wE7L3y87GhlTPWVuZuztnLMaM+40Y4WgZqMauDmsfX41vDlauzmqnm6mvrrp/+7Lgy9edH94s325W7w9a/3x+8t3zzf/+vPT3359+Wy//s2nx4WoedTJbrSS+738Vj22309fHzefjsufnnW3a5GnW6U/f/vsaqf89fPh1biwVwsctSJ/fTsuB9Xb7Xg5YSnEbRIu3m9XUXEQi0GOgi5XS9nFuSmTXmXSq4gYmFTA3hrUWRPGxUQFJOSyT841IgKIhy2bVWIcdGGFBGfgYSjwvIA1yR0o6DJkeZ6CR0998jM4YAYDnuNS0ToRg4qc14soWa/WKCKuxS2D8sTdcn7VYS/dL3kPe8lmxrpR9e21Y892Ch+c7nyUPdpMjlqBwbp7sO5uF+1rKdN62twtu/Nh9dm40Cm5TrZy75/3v341ujosH2+l3lw0v7ndfHPRfH1W//rlxm+/OPr8evP1Reff//7Nb766+M1XF3/zq1d/+P56r5+92K2PWqmL7bWdTuLFUeOonznqp/7vv/vy6Wiy5frtu4OTXuJqXPjlq+2DVuR6t/rbd0fFkDYd0AScsnE/b9Jw/E41Hg2IhZwo2KJeI+Vz6GaDUiJkq6R8qYD9n//Tn9lUrFKw+uL0oN+oSDisOywKBjj3kIAE0gkwIgqAAs9TcTAJl8kk4hCAJSwUjAAsLU49mnt4D7wwjQLOfRCMlHPJRgnVIqfZVcyteqyWdrQL3krCNFgLdMvecSt2uV892cqdbOUGa75xKzRuhQY1f7vs6lY9w3qgWXTkIupy0tBf9zSLtpNx9tWz5suL+tdvNr95u/WnX118+270/LB6sVP47MXgi5uN1xet27PWD+8Ovnuz9/tvLn739fl/+P3rf/jj+7/79e3RRu7z69F2O3571tmoBt49HZwOMwed6LfXmxeb6avt/FfPunvN4Nkg9eq41sxYt9vxYsQYdivGw4LHrQz4tbmM1+3U0CjwRMylkLFFPLpKxrUY5Pc++svXz8+NKsnbm2cULDwVdDkNyqjHalRJ7uDRIDhghk5AgBce4hFLqzScmENbpZKQwCXY4hIVg4UuLKLBQARgCQGchy3P6hUCCZeqENDVfOLJZulsVAlZRV4Dt13w5sPaRs7Rq/h6Fd9uNz5qhg+H6Y1aYKPma5WchxuFzlqwlLJmo7pEQBkPyMoZ02YnlArLyxn94Tj97efbf/7d5esXjc9eD754s/H59fD1Red8u/j59ebL0+anT7tXB2tvL/vn28Xv3ux9cbP1h++effdm72Kn9GyvcjhMf3U93mnGDjrxb19uTZxrO3/cDv3hs/3LzdRW1X3YjZ1t5rbb8ZNRuVHy9+pxv1eXL4Qq1bjdoXLYlA6bUq3kSkQMJhUl4JDjYdc/TXo+e/XcopUXUxEsDHC+t7lCRNGwMKWAdYeIhdDwcCmPIeXROHTsKg23QkZjIEDAzBTgyQxwZhYJANLxWPjy4vzjT6bv/Vwr46klbKWQIWNjmjnvH759YZJSMn5NyCoqx8yDaqiWsdUytsFaoFPyjJrhVsHRKbnWs5adbrpWcKdC2rhflQio02FNOW1pVd2ltHHQ9F+drn/5ZvSb705fv2i9vx2+fNZ8d9V7fdF586zXr3q/eb1zspV7frh+uV/dbkdfnbffXQ1eHNX+3W9e3p61vnuz99mLje/fHn72Yuv5XvXbl1tHndjpIHHajbw+KL/YLT7dypxvZg66ibNxadLYFrydeozDxlssCpdLh0ItrVeTVrMchwaZ9DI4eG6VSeCsEEk4qFrCsWilYY/l5unhr756qxKyvRatmE29g0UCsLAl/gpJK+NQcRAUeB4FnocvL0wU5mFw0Ozc9N1PUCAAcPYJYPbR8sxDpYjNXyGQ0QAVj8AlAQthU8gq+v8Nt5a05YK6atK8WQ+3i+5OyVWK6Zp5e7s0mc0Wk7a4XxP3q3IxcyVjX8+71vOORsl9uld6e7Px6Yve1+923t9ufPvZ3vOz2sVe+d3V4HCYPhikbs9aT3fL2+3o16+2z7eLl/vVd1eD/X7yb391/fK0+buvz99e9q8OardnnffP+qeb6ev9ypvT+vvT2n7d9/6i9fll92IrO/mpYT4ft6zlPX6nEgVfstl009OfzM09HHRrUtEqAQvTa6QI8KJczMahgFwWScKlxwMOIgpk08tzUR+PTkiH503W7QAAIABJREFU3KsU7MTXwAuPmSQUFQfBI5YoWCgJDYYuziEAizgoDLa4NHv/AXRxfvnJFGD2EWD2EQ0P568QhCzCes4voEPdBp5JTs9HTIP1aLcSykcM2ZCukrQOa6FG3tkquosxQ6vo7lX9jZK/mLBHPeqQayJAvZ73tCrBZtlXydi3+6mbi+7nr3Z+/c3TLz7d/uVXJ+9vt25O27fn3cF68Oqw/u755sVutVP2fv/u6MPnX97u/PD++P2LydfeXm1MJiX767vd5KuT5tEg8easeXNQORsmz4bJ5zuFN2eNzarndJTvVgLZqGnYSkn5VAIWoVTIiATcwvyskMve3hz87N/8K7mEz6aTS9m406IDLT7RyfnZ2ETQloqD+Kw6Lg1vVAh1Ut4dGgkJWZxiU7FkDIhOgDGISCxsCTAzBZp7glgGwBaXlqefwJYW0GAgGrJEQkNx8GW1hO0wSLUSulXJWiUCww5ZyC6t5zxhh6ycsFWS9lLc3Mi7K0lzt+Kr5xy9qr9d8hXitkLclg4Zox51wq8rJuzllDMXM6/l3Of7jXc3uy+fDr56c/j952d/+vWr9y933lwO315t3Jy2t5rRb98cfPpscHVYPxhmj7cKJ6Pir744+7vfvPrsenS2Xb45bb84bk4Kjt3qq5PmZHXfT5xvpgdF+/Odwn4r9GKvXE+ZjzfzubBxo5nq1hIkNHD+yWOz0QIFw7BoDJfFdljMaDgMg4CKuGyX1SgTrnKYZKNKRCcghGxSwKnfaq/JuAwFf4WBR9xBw5egS9NcxqQyI6IACODs4vQnkIVZPBxCgCNwUNjUL+7OP3pAw2GEbFrYY5tc06AVSzhkMnJRySXqxfSgVTpcjxul9MllAnFrMWbJR0xraWcxZpo02xlHtxJol3y5qKWc8eQTjg/S9F6bzGeXO02CmF97MKpeX2zsDAsXh6031zs/fPnsdLf2/Kj19eu9z65HJ6Piq4ven355/d3bw2EtdDIqjlqxT58NPr8Zf3Y92mxEdnupq8P6bi/16bPBy9Pm8SB9tjHZkD7dyjwbZYdl1+V2oZ1zjpsT/vHXb85jPiMcPEfAYCkkOgaFByyBrQYLFAiiEIhoOAwKWMwmIga1lIxDULDQZiWz0S531rP9WlEn5fmsOhmXMbEaBQvVynhI0MwKGUnBQmHLT9BgABoMWJ5+Mv/wERGBXHj8ELo4jwQtxAMuvUIQ81vlfNoqGS5ZwYiZaKOUWYo5jFL6m2djrZCc8GiyIUMj7y3GLJWkPRvStYr+Xi3arERa1Wg2ZjMoWQIWWi4gmTUcm57PYyIdRmE159vs5C4Ou+N+8WC03q3Fbi76253Er788v9it/vvfv3n9tP83v3p5eVD70y+vv369tz/IfH4zvj5pXexWywnT1WH9xXHzu7eHHzrW716PD7uxq+18I2WoJw0nw0yn6GuXAn6b/P/6hz+YtUIcEuy0OFgMLp3CWphbthntwAUAFolCw2FoKDQZCdTKea1CRMXBRKtUAYuoErN+vL+IZpALWuXMHTIexqHj9QoBYPYeBjrPXyEtz9wnImE4GBgNAlPQGDQIjIGAlp9MoSFLaMjSX/yz//63378XsggqAU3GIUlXiRYVT8mnJvyGYsKpEdOsGm7ErcpFLemQMR+z1ou+fi3eroQb5XAl48/HXev5EJMIYVPgePgcZOEeGjw9WS+J6K+v9t1m2Xa/kgxavvv8Mhs1bbTiO4Ps3kb+9z9cn+/X/tv//uvvPz/77rPTr98e1Qru4+1KrxZ+fbW53c/sbWT3NrJfv9s73y3VMpZvbreGVfdGxd1Mmw468W7BmQvqKkl7pxr77rPnMw/+SiUVmnWmxw9mYGAUFk0Q8yRkHEkplWGRCL1S6bGbEeDlYacmWqVqpFwOHauRruplfKNCSEFDKunIHfDyNAEJJKJASNDMj685rYxHRMK4dMr8w0dUDBYyv0BAwODLi49+8VPY8uz84188P9sxqYV66aqMQ5KwCXopyyBjr2eD69mgzyrz2+RhlzobsaaChoRfVy/4a3nfsJGu5nytSnzQyBYSbjJ6CbJwDw+fYxIhROQCHQ+iYIAiNjETcRaTPp1s1aYTLk3/a/jyR2zKcsgl3eoktzrJ6/Pe7bPh1Un7j7+6LadtR+Py3kb+z795Pe6lX18Nj8bF7784+uXnR8+Pa1cHle1m8KgX32mF2jl7u+h+tt+sF/xvr482u+UHd/8SBl5aZXEkIjkUjMBhiHqVDgoEhf0BNoMu4XOoBEw2EeKxqKV0WMyh6eRci1ZsUoralSwBDijEA3eQ0AUqDgZdmiYgl9GQORoeDlt+Mv3Jx2Q0gkkgQuYXZu7dn4QncPln/+v/Al2agQNmtDKOcCKDyFslI1lEOJeK5lBQNo3AKF+NuvV+qzJgVyT8hkrakwwYG8VQNmLt15LVnK9eDnfryWTYrJWzyNhlEmaJiF5EQ2epeDAcOEVEL6cjLoWQubfZ1EiYBgWdQZhHAD6W8zEOw+rZ3vq4l351ubG/Wfji9f6om2qWfWd76+9f7ox76cNR4fxwfdSP/7s/3DYK1md7pUJEdXtSa+etb847u530Zj0Z9WjfvDgupYNo+BJwaVYsFLFXVkEAMGBpGQYC/+t/+RefvfmURadYDVruCg0JWTJqJoL+yZDLpBbKBYyQ0yRiURT8FSxk8c4qk8BjEtGQhVUahogCiFapShEbCVxiEnEC5goSAATOzC5NP4Yuzs8//oSABGOgi8szn3DoE3FhCZts10piHpPbKDcr+UImvlmM6iQrXrPcY5IN6qlyyr2e82fClvVCoFtP9pvpZjVaSLnKWb/XrlSIaLwVzCodjYXP81ZwRPQyCQ0kY0DZmMdjU/kdMo+FL+djvFaBx8L//NXeuJfe28gfjkr7m4VXlxu9WnjcS/dq4d1hrlHyvn+1fXZQ+d/+3ftB07/bjXZKjuf75Uk73Es1c+7herxVip1s9/RqEYtGQMFBZBLOZjWbjHrWCqPTWLcadbxVBg4NyyYictHk9oPTg7GARTapxRGvOR6wBewGg1yQj/nzMf8dLotEQoPRkAUaHsqioLIxH2x5csUSBgL02+wz9+6DZuee3Lv7+BcfLT15AJqfwkAXgXP3OXSsjMsQrhA1YrZaxBKxSAoBXbxK2uqUhSyCxyLXSJjd9VQx6UmHbaWUt5zxVHK+QTtVKwfKOXc+6YwHjU6zNOIzuK3KejmuErPkAsaH11o+nkt4sjHLZiddSjv6jXgl63r5bPNsv7G7USylHc1K8ObpxtOj9lY3czCqPD/rf/Z67+Kodn5Y/S//8cthKzBuhQoRVTNvb+Rsh8NsIWwqxRzNYtRjVq3QsDIhl8umAwHzf/rTr7VaqUCw8off/fC3f/pNLh0J+R35VIRJxeTTod1Rx6QWB5xGrYzndxjalazToGTgEf/43/7znRUaFjT/iIQGcxk4HHwRvPCYioM9+vhnjz7+GXhuHgkAzj14uDT9eOrux4DZR9P3fo6FLUGXHgPn7v9TsefQK/Qy7gfos1klnJBGf7zFy21WKATUdNgWdGoCDnUp5S2l3cmIsVENrZf8zbVwsxpdKwTiQXMh5Qm4dD6HppQOKkUrUh6tXkq0qtlyNvj1u4tvPzsfNBM7w8JGO3W8s37zdONsv7G3Wbq+GP7+l7cHo8rJbq2ac68XvFdnnfEg1a37f/fDRXvN9e5Fv1t2DtZ8zbxz1IiP2+lMwPTy6R6ThAi4rTQSnrfKcDh0b99eBoPWtbXU//vf/uOnr84PdgdYFFAl476+OdcqBb/6/jPg3MObp4ckNHjQLAuYpIDdUM1Ev3z9/A6DgoYuTasm+tvgFTISBZ7HQBcxECB8eQEyv3Dvp38Fmp3DQsGQhTkMdBm8ML1CRsOWp+Yff4SDLullfJtWZlKKFPwVi3qidCZcmWiRWbUih0Fq10tMKr7Ppg441PGAYa3oq5X93UZso5t+dtrbG1Wa1Wg2bk+ELJmYo9/M5xIelZgV9pguT3YyMdez4/7bm93djeLpXv1wXD3eWT8/aA6aiVY1NGgmfvjyWTFlP9mtlTPOrW7m8rTdqvnTUXUuru6su/vrnqOtdDGqzYU0G+uR79+ej1u5zlr6n/+P/53VoCLjMbVqYTxugSHT/oDJ7lD97jdfFHJBIZ+q0wjcds3nb6/MetkKDWtSS0Nu64crNz1mjUrIDjlNzVL6Dp2AwEAXA06jQSk0qcWg+SksDEDFolapZAwEBJqdgy4sgudnpz/5xfKTx6D5KToB9cE3AbMPOPQJg8huUMh5TAGLPIlTIdOk4mtk7HTYoVdytVJ20K2fQFqM4krOl4qaaqVQJmbb2aisFQKTi8z8xkLK06zGu/VsMe332FQxv3WzU9kfNUe9wh9//enf//GLX351eTCqnB80L0+6h+Pq/la5V4+9v93vN+L5hLW9Fh71st1a9OZZr5q3rxds7TVPPW+rZe3rGVshaixELM9Phi/ORjQ89MHdv/wRokxMJsK1WkYkphuMYhjkiVy64vPog36TVMxw2dRfvHteLcbEHAoGumjRSpkklEq8yqXhV4gojZiTCrvv4KAALGRZI+VjIECdUgpcmFmem2ZSiCQsioLHzE8/ggGXFmemph98svDk8cKTR3DQEgmLhAHngYuPocBpk1oomVC3WAoJSy1hr9DQolWyVMiI+a0um9qqk6jlHLdFZdKJLAZpOu4uZkOZhGd31EzFXPVqslqMbvar443a86e715f7nUZu2C3328WjndbeZvXtzd4378/P9puXJ70X58NBM/nifLi7UTocrx3v1OqlwHrBN2gmT3brtaLv4qB5fd47GOY7Zf/rq1HYpcwnbKd7rXo5+un1cSRgXaFhf/7Tf6nXKX1e51q1cHQ03tvu8TgkNgMr4JBJOLDbrpGJmPmk97PXFyaNwK6XrJDgVq2Ix8AyiTAWBbVKw1l1ss1ObaKejgYtem0G8eoKnYQHL81LBVwKHkNAI6QCLmB+hohBQgGLUMDi1P27s48fzE09JKARkOV5wMIjLHJJKWW77RoRj6pV8uxmhYBDlgjoGgVXIqBbDFKllM1ZwYt4VAYFyVkhykSsfDoU8Jj77VIkYO008tGgzWlVxsP2rcHa65uT66vdrWHl9Kj//Nno0xd7R9vr717uXxy2T3brrWp4b7P8n/7220LSvrtR6tXj7bWI3yHr1ePVnMdu4H3z6fGwFutWQv/2u5uvPj3LRK3ZqOO7L27+7W++un1xCgMvoOCA+/c+0mrkMDjI5bYatAqf23J1sT/ZK7FIMhFLxKMKOGSdgnO63+fSUZmInYhc8FoVKhGdQQDbDTIMdD7kNgvZtDsEOIBLw9sNKi6dwmPR56cfcphUMY8NAy4C5p9AAQvgpbm5qQc4JHThySMUFLg0O0XCIgHzEyQlePkxBrGokq0KuRQSDsxfJclETKtRJhMxLQapWs6RiZhy8QocPMOkov7N//o/QQBPjFoJFDhDxIKMWlEsZMejAcvz9zCIBc4KzmVTRUNmnZqz0S999vYs7NH06vG//vp5rejfGRb3tyqDZvL8oNWqhnv1eLMSykTNqbCxnHHtDIuVrLuR975+upkJ6n//7fXzk+HhuPaP/89/vL06eHN7HvRaFuceEbCwf/2Tf6HXqShUAg6PTCfCiajv2y9fP3n0ER4NshoVbAbWYVHKhfSIz2RQrLIp8LVccMKENcsMitVuLUfBgq9Od/uNyh0WCR1ymrgMApOEsZt0KCgQBQVa9Go4aOnuz/7yR8DI/MO7P0fDQD/Cu7AI8DIaBlqafQQFzhAwQAoBSicjIgGrSrZqNytyKT+XRXDbNRIBXSFh6VR8DGJRyKXQyQg8GoSAzKPhS4uz93/yF//DwszdqQc/nZ366O7P/8XS3Ccw0DQRC8ShF6CgR0oZs9/J+uzyYSv12+9fmjXsRFA/bKV0cnol6375bKvfSNRLgVzc2igH/Q7Z7kZpd6NUTti+vD1I+jTVpPPmfOu7zy//9nffHO10BBxqLOR88vgul02/98lHnXYdDFnm8dlKmfDxg4/+/m9+8+DuX8ZCTqtRsTx/325WxINWLhOrkTCdRkk+7or7TemwLRt1nO73EcAniaDzyzc3E/21uM+KRwDIGBiDjGdSCAjwMpWAgSzPUwmYqfu/4DCpC08eQZbnMXAwDglFQgBLs1PLc48XZu5BgdNY5BJ4+TGPTZQKGQIOeYWGXqGh7WaFRsFVSFhKKduslxg0Qo2CK+LROStEAgaMhi+Blh4xqSg8GmA1yvRqvsUg4a8SYaDp+3f/AgJ8eP/uX0iEpPODDn8FEfGqMdBHkMWPBSwkCvzg+y+ene41WtVwwClvVkKVrDufsJ0ftN7e7N2eDzfq8YRHczgsH26t//m3n/0f//73qYgDDV+Si9kw8MLUw7sSMV+rUczNzaywaKsr1BU6oVKIc1aIzfWc264TcilqOcdmkKSjzlUq4oPJmuWYXS8aNnN//6cfvDYNg4hsVnJ3LGqRgEkgIIHghemFJ4+IGARwYWbhySMoYEEu4s08usekEBZnHiMhADIOhYGD8SjY4sxj8NIMFgkALz+GAKa8Th2bgTVqRRoFl79K0ip5nBV82G+RChlcFuHyfGeSHEJ2m0mZinlDPiuFAOevkuTiFZmIqZSyYyFbPu13WBQyEcOkF1ycbiRj9ovTwZ9+856MmXOaBHIBgU5YykTNAaf8dz/c0vCLYg7Gpuc2ysG9zXI54/rwvD0frqWdUafyD9/d1gvBX3/z6h//699z6Fg4eI7HJuPQMMDijFDAwWGRs7NPcHgUGgEm4uAeh35p7kHAY9arRQGPMeg1aeWrqYhDL2c3SlG3WWbTCVuVeMil9Tu1dqMUCZpJBJ13TCo+CbUsWiUjQQtUAuZDSGLgYAIaTsahWDQSFLCwOPOYx6ITMQgkBIBFQGDARSRkye82VQpRNgPbbRb4qyQqEcakohgUpERAF/NpCsnkcJUKGbmU323X6FR8g0YsF7PVcp5KxrUaZXQyQiKg61R8m0nWWEvl0/542D7sFb/96rqY8w+6uWfH/bBHtdXN+h2ysEd1tt+sZN1Bl6JeCmRjlmzMEnQphq1UwCn/9MXO3mb5cFhu5Hxpv/7l6XB/ozps5jQSloxPn3rwM4dFzVtlPPjk5+GQDwoBLS8v8vhsLApaLaWjQcfFyXY67hNyaQaN0GlVWfXiYtqvkTATgQl+2m2eyItHPPpUxLbRKeHgiw6j8o5NJ1QKGV6bhk5A8dmMuakHGDgYBQXCgIsP7/5csMpEw0BYBMRm1EKW52cf3/+QE7AI0Nz03Z2tJhQ4zaSisMglCGBKzKeJ+TSNgivgkF029SoTZzXKlFJ2NGj7MVo5MhFLImDazSoRj8qkopRSNo9NVMnYrVomHXe7bKr1SnR3XI9HrLVqJORWb7TTp3sNn1260U5vdjKVrLuYcrSq4WLKEXIrG+VgZz3qs0tHvVy3FuuUQr1KJB82v73cPdpqKIU0n1Wjka4uzt7ns2m/+PlfouEQEhEPhYAAgCUqjei0GWViDnDx8f52b3uztV5OrZcTb27PR/2qQsQwq3k2ndBvV8X9JrOal4nYi2nvy8tdOHAKCZq5Y9ZwODQkdPnR8sx9wPwUj0VdnnsMBcxh4MAVKp6EhRPQUBwSrBBz56buLc0+Ai/N0Iho4MI0aGkq4DE21tIIyCydjOCs4KHAaamQIRHQBZxJyaZRcN12jZBLCXiMP5YmApNOajUq9GqRmE9boaGpRBiVCAMs3G/VMh6HxqARsBjIxnpC/v+19F3NbZ1pmvwVe7E3W1tTNTu9271je9qWbVkURUnMBEgQOed0ABwcpIN8ABwABznnnAkCJMGcRYmkRMlKtmRbdnfbndzTYXa7u6pnt+dqq3cgzg0uThVu3vq+93ueNzyPglUrhyIYfLrfbldCpTTaqYb/zx9/9uJyZ62TigeM9YKv14wXU65M1FbNebv1aCXr2V7OvtX9C9TTWC0TkPNJGtmQopEWp4j4adzsBJNKWiIs4HFzc3Nz09OTGlAuFjAFHHKlEI8EnG9ef/rgZNPvMe9ttJwW0G6QIbDcBAn/XfXbYQSyUVc+iSImwOvQTY9/OGKEeNPj7+Gnr8/dvY6fuRMLeqbvjJIXZ69/8A6FMAfKhXQSHpQLGeSFdCwwN3kLN3379uiHdjP0yYc/6jSyKjmHTp5tVlMzE9dJixNM6jxx4e7VVYWUfD57yaCRqOQclZyjUYnUCoFSxpWLWSIemctcpJNnSYsTXObCEv42lTjFYeAJ+DGjXgwqWNGQRatgJkPmRtE/6GZO99tXUCMTte2ul9IR6/FO4+yoG/UZNlaya53Up+cbe73CoJk8WK0gWtHbTaS5EGoupcOIWTd1+waNRJAKeXfvjBOXFnE4HI1GEXAZTBrhqmcc9jv0kDSIWYVcEmJSgjKWjEd0mZX1fCgVQnwObTHpddtVPpeGx5i36GUjtTx288O/n7nz44mb78tETBZtYQk/QVoczuVKBHTczC0OgzB5++MbH73jsGoJuLt3xq7NT48RcHepxOlOI8ukzlOJ0ywaTi5m0EgzS/g7agXvCoWwaLir5PVWYkps0ivUCoFUyJAI6HIxA5AwxXwKl7nIos2TFu/KRDQRj+T3wk47aNAKS3lfMeXGHKpWeegS+C/fv/I5wVTYEvPDxzuNw61arxn/6RdnhaSzWQqsNGKHW7VWLpDymc92lzGLUimgDEX/RUwDKDnYXpsc/0QLKihLCxKxcH52bnR0lERaolMIE7c/8XusfDbp/HTXagRVco6IR5YJKGHMoldyO5X450+Ot3rliNeUCiHVvL9ZDs/evdaqJEa2V/OLM9dm7r43Nf7B/PTY1J3rEgH99s0PiAuTwwYzFT/68bsyEXM4pstcopHm5qZujn78rkI6hK+4mZsCDpGyNEUnz/LZS/jZMamQtjB3SyKgZhKYTEQfgkaAe3VnLbBKD0mvUhsIcDUqgRYUalQCCwzIRDSnDXLZNTqIHw5Y9nfalWIggsGFpDOAQq1ysF0JXaGNQtK51kl9/flp0K3pNeNRnyETteXiSDU3NB2KovpeJRb3mKDh4OctpZBVSoclfOboR++/XcNTSERiHoc7Nja2t7dDXsLh5+6qFYJ03Pe3v/1VoxKRCZN89hIMiRqlmJCJN0HCKGb22iG3FYxgsFJK2lorSPmEo53uyP5GWa9izNx9b2Fm9IP3fvD58wuDRkYmTEuFjCX8BJkwPX33k/npMR6LOD76/tzUTeLC5Ozk6LAeYACuDhqdPKuQsuanRxfnx4VcEpuOtxqVGGoU8ymAhCkT0WGt1GpU6tQSPSTVQ1JIOeQMagUP1kptJlUq5k5G0ZDPeri7gjqgWjny2fN7qyu5QhIdxqLgy8WRzV7um1f3D7dqjaI/HjBevQzFlCsZMveacY9dEfbq9nqldj6olTBQGFCLmYylKa1cUMvHTToVeXGex6JrQZVIIJyenLp27aNyubyIm+ZzqM1qJhp0/fEPv+x1ykzqPKTkKyWMXMLrc2gNKl7ApYdBfiJgc5hksIYTDcAC1nwxjY0kQgYpf+69H/1nIZuAnx3/61/+YNDI5qfHZiZuEBcmF+Zuj4++b9IrEhHP+Oj7LNoCCPAZFJzPbXFYIatRSSVOK2VsBmVOwCGCAJeyNMWm4/WQOOy3q+QcWCvlMhchJV8uZhg0MgusQiyatw+CFNZK7WbQ4zSY9LJCJuBzG7969Sib8mBufT6D7e80a3l/PuFwmqXFlKuWx/742y8fP1i/gh3ZmL3XjJ/utytZTzXnLSSdPidYiDgGzTTAWUr5rAYFn0udVwiYEi51e723MDsp5HIW5+dApeqjax+SSBQymXx3/IZRr3LadAwKrtPI59MhhxWik2dVUqbdOGQFtMU7OgWHT59PBGxOs1zMw/U7iajflAwjIz6XQsCaJC180m/n74xd+/DH/+PWjR8TFyan734yN3Xz9s0POAwCpBTKREy7GRr75J9qpaROLdGCYjGfwmEsiPkUuxl02bXDPGpRy0R0Onl2Ye6WUScjLtzlsQhM6vzba6iwGkG7GXLadChicNm1TpvGadO47NpsEgtilmox+s2XT/xeOBF1bK5XTw671dzwlNXyWDU3VAdqlgLfvXl4uFXb6udb5WAujuysFSOYPh4wbvZytTxmUnKaWb/XrOpVEiLGInHuFmrWqiScTr0s4jLVCkDE485MTY+N3pyZmZuZmXHaTXTKglTIkItZDqvW7YBJixPD1MZZ0ip5xaQXBvl2g8xtBWGQ7zTLg16t0yotZbwvnxyNZCIm3MS7HOoEfvrG5O2PF2fGyYRpEm6CShy22ZlUPJM0T8DdFjCJ5XxkcWaYuaQ8Coro8FOjJwerAiZBJqILWUs8FkEpY4MAl0GZW8Lfubp9VOK01aikLM1oQbFRBxg0sqsTdxUyswHQqAQepz6IWcr5cK0U67Yzlxc7rXoiFrY2y+GVRiyfcFxRqGTI/Ouffbq9WsjFkQAKFZLOq8t7b6+VjljrBV82gvgRrVJAyYZRPh1PX5xymKDRa/+I2o08JhXWqskEPJtOIxEJ87Nzw9+Zu7jZO0v4CZ1aMjNxQ6eWUJamVBKWWs62wQACy91WEBCQe420UkDpNZN7g3LQPTQW79bjI26jlI4bJUx8PPr+D1Gr7oMf/T1+agw/cYOMv+s0guPX3x0OOnOWhjsvAIc4dyvoMfkcepWUqVfyw5gJlDAZpGkpl2RQC/WgQKPg8lgEAu52t1XEz47bTGq5mKUChJBqyEM5DIJBI4uH3YhFHcSsboc+7Leb9LJkFC1mg6Vc6P/+5fvffv9lpRja3qjubdT6nSTmAmtFX6+dWF1OFdKuYgYt5zzRAOx3Q+1aOODR7G1W+p1kxGfMxtF4EPGjMI++sL/RWZza3z/6AAAZIUlEQVQZ87ktV7S3XSvYTUP5HBaVWMqnFFKRyQCJeazjvQ0OnRj2ubQKoYQ7LKkOJeHlHNSi1kjZ93f7WhnLrpP6rOpcyB5ygi5YdLheamaxEa9JJiBNESdH58Y/MoJSNgk3O359/KN3hprqNz9Ymrll0UrlfMrM+DVQwuRSZ2GQ3y7HOJQZIRPfrSUVQgqPNkfG3c5EUCmfvDR/y+3Q81gEEY9KwN0lLcwwyAszk2M8NgWQsAEJm8MggAAfUvJBgGvQSFx2rVEndTt0rVrKoBHv77SzKU8h6ytkvZ1aLJd0hDBd2Kff6OdKWXezEqzkvY/PB5gLbFaCyYilWsAuTvvVAhYLmIOYxWZShXw2BmXOoJEszN3qNPJiPu3O2LV8OnS4s85lkBZm77KoBLtJT13Cx0PerbVlMY/htBpCHptaNrRzFrOIhQSWDDqUApoJFL0831NwiTG3MYhA7RwWcap65VAuZB2xqNg6MY2Buzszdu36ez/gUfG3P35XKWQsTI4qRXSDSnDl6iLlLsn5pH4zE/dbITk9F3dSF26nQggkYwICsk7BsxsA2tIkj4HHUOPbd1NuNYLJqNdsUEIqCSDlaVQiuxm6Gg0z6mRiPuUqarBWoodE6bgnFXPXyhHMrW83ksUc1qpECmlXJm73OlXLjSjmAtMxWyxobNfChzv1vc1KreiL+A1ba4V8yulzaZw2yO8xGzQSLnNRzKcwKHP95QqHQXA7YLVCkEuGOXQiizpcxaCTFj9+/11QLlRKh7xYD0kVIhYJN2FSS1jE2ULMmw2jAI8S9Vi8ZtXBak3CwCcxU78SDlplsJxWijlGVLwF9sJtEW2eirtDxU9cGRcsTI7iJz+58nq1aKXrnbwJEnKps0MLGd6iywLYDGIpd+lgo7m5UnorbKzRAlwpnyzhkUCA+7Y8yQMkbAGHrJLzBFwam0FcmLvNYRBkIqZUyLCZVFpQ6HboYyGnx6m3GhV2syoedkZDNheirpUjLkQd9ZvSMVvEbwh4NPmUM4TpsgmkmEHzKeeLJ7srrTifNZOJ2+Mhk98NBdw6PSQa9GtsOp7LXNRDYipx2mHVkhanrEbwnR/+nddpmZ0Yk/CZ5MXZyfFR1G4GxFyzHlTJeRPjH0Fyvk4pCrpMyYBTziWbQJEe4IVRk1bCyIUcYad+OR8KWRUb9chPX5x4jNIRs5I5N/puxGUARYzJmz9WCGkaOYdNnmUsTUk4RCl3KewxrrayQ4k/+oxKQqERxmE112YQGiHe+nK2UQhbdRK/U2fWiCCAo1XyzAaARcOF/fbZyU9EPCqLtgCpRHwOGQT4MhEzFcMssEohZUkEVBGPrJCyQj5rELP43EajTppJum1mYHujnkt7A25dJuZIhKwBty4bd4YxuJByl7NYtzF8/h+fbf7zLz6LBcz39pdjAXPAbTDqpOen2w4rJBczzAZAreCJeFSJgK5Rid5/9x8OtteI+GmPwyxgU41asFkpTN26rgEE2ZgvgFp0SoFKwvI74Bhm31ttFGJeFAb2+9Ugot1o5cKI5mKvs9NK/eTp/p9//erFg42R+1tVHvGOUy+hL9zhUObGP/7HxenRuN++MHVdyMTL+aRMxBny6PutlMeuAoREDUDzIsp0xOowyVQSihZgCxi4YtKrkbOcFhAC/gOjqRVX4VuwmyEqaY5GnpeLWQwKLhp06SEpm47XqAQKKQvWSjkMPKTkGTTiQiZQK0e0al4AMy630omQ9SpMLquinMW8DnUx7UmGbWEMjviM+5v1zX4xHrTEAmYPApaz/mHQE1i1GFPJOQaNpFFJsmgLi/N3fG7L7ORo2OcCxNywz6UDZZjLTiPiZHxmNuaTCxhahTDoNoc8loDTWM2G/vb//tWsFtsgUTsf1kmZe72KUyvGzPLLvc6L0/7//sXL/V5+5C///Hq7k1ZwF2Zvvf/Fs1MtwJZylyxaMW7ymoiNoy7ectuU3715+ORswCLfUYqJMj4+6IY8dkXQrbPqRaW0h02ZTARsBhWvlPEtzt5IRlGljCUXM7SgkMciDoNFxc9Njwm5lCvox2EQyIRJtYLHYxHeElIGYgFhreTR2e5yK+33wiqAWcj63HZVLGCO+Ix2o7SQcifDtlYlUkx7gh59Nu7EnNBKM5lLuHqtVCJkNWqEUiFVzKf43CYBh6hTi6rF2Pz02N/9l/8U8iEyEVMp5WMu65VOtQ9FHBb9/MSYF4GlPFrIYzOC4qDLtN4qeCzQn371jVbC4JNnPrvYl9Ln29nAoJ7ymmT73fTjg+agFo6hmhGfVWwEqF6LTCEg5uNuQECmLt4qZ7zUxVtc2jSfMd2tR3Nx5MXljkXH8zlVahlZr2JoFTTMoXKa5Y1iMOY3IbAclNDjQZuIs2gzKdUKLouGs8AKIZdi0Mj0GtnwuJHmJAI6g4JjUHCAhOlxGiAl36CRGDRixAIqZSyHVY06oGzKEw3ZfB4D5oSKaQ9qU/pRrR/VFlLuVMQeD1qW63GLXlTN++vFYKcW67VSQY8+6IGVsmGNE9ZKZSK606axwAr87Pj//O//VaeWKKQchYQ3PzUuYFPnJm9x6ORqIUUjzAy6NdSqK6WDUa/tYND59TcvURP42cU+JKKFHLp/+1/fXakkW1W8k0H15f3V7Va0lXalPfqRy6MGKJi3qJnE2Y+tepFKQqEu3oxgep2SoZZRFCJCJmo9O1q+vL/qsopNWpYHkTktIouO57YBzVIgHbG6bYAB5OhV7HjQBgEsq1HBYy2q5GwtKGBS53ksgtmoMBsVYj4NkLApSzNs+qJMRL8qwLFoOMQCWmDApJfpIZHPYwj5zQ6bqlmL+1G9z6XLxFx+VG/WidNR52ClmI46gx64kPKWMr5YwFovhq8++lw6xAJeIe07Y+9nk74gZn3/3X+4dePHIMBfaZc0SglpYYa8OEtenIUU0oAH+fDdHxwMOjHMbtMBQZcp5rMVYl63Wf3kZMOk5JWjrr/99Q8GKcMKclbyAVQr+O1XFykUtChoj3bbIw8PKi4D2wULgi5IA9AQo9hmEFayHq2CBskpIvbswWZld5B/cNS6fNArphGlZNFpEb14vAkIF+2wqJRG3/5LymfM+lw6r0Mj4Cx5nHoQ4Bh1UqmQJhPRJSLa3dvXtKDYbFC+Fb3nsWi4KwLvsms1Kr5SxtKphQ6rGtYNA2cySDC3HrWBiAmoF8MKMbVRiuys13750+ftajzogZNhJBtHMzFXLGDNxlHMqY0FrHIxw6iTyUR0k37Ysd4etEY/fpdBwZkNylYty6ISmJRF0sKMDpTtb62jdqNGxn90sq1XCPQKgVkz3GbORz3dSmKtnrZBovVa8unJwA1LyjFHEtVp+ISwVb5ZC1Uj1q1mbOTJSSOISEJO4MFBO+Y3VHMeDvUu5lASZj+0GQQ2mOcwC7fXsk/OV/c2cnqQolEQMzHj/mYxF7dbdPxU2II5VFa9yAjxMCeE2pR8zkIi6oCUPFgrscBAKuY2GuSAjAUphSa9wqCRmQ3Kq7dCwCFSidOwVqKUsdQKLmIBuSycC1HbLQozLL2aOAp5jUaNMBtHz47XPr3YbZajhZTX59KFvMZy1p+OOlMRh8OscNuHXbF8OlDOR7wumEqcDvlst29+IObTVHKeUQewaUtE/DSkELNpS/tb6xE/yiLOV9IhLcDNRFA9wANFjONB83CtDsvYlRi6u1w4XqsFLYrjfinmgDoZr0VOfnJQP98sN5KOkaf3mxGXtJQwiVhTYa826IZSYXM8AIOyJSF7yo8qrQbu7iD7ky+Oz46bIa8qFtDsrGe6jcCDw45OyajlMY9dgTnUChGpmvfLBEsOm8puURh1UjGfLBfTA14zgzaP2CBIKUxEPCDA97pMsFZ61bRXyTmIBTQb5BYYGPb3hCSHTeVFdWZY6nVoShmfWScupLw2WLZcTwY9cK0QqhfDHgTKxFztarxTS2TjKGoDDWqhQSNJRNDNtYZczLh76wM+ewk3c4tFWyAuTIIAnzA/ySAvCDnDdVeVTLTWbRCmx32IIeQ2oRZ1OekvJ/1BRHt/ezlkhzYa6Y1GuhJDnxysHPdL+8u5B4Pqctr5aLuc9+midsUwavW0JRWArDqOQU03apgWPadV8eGm3tOpqOkoHPKqylnk1bPti3vNbsMX8akGK9Fq3pmN2TJRazZm77cSNoPQaZaWs5jLqkjGnBaj7KqLDkgYsFbCZuItJqWQS3E7YJWc57TpYK1UCwr9HrPZABh1UsQC+txGm0npdmoQ6/B3iD/cxkLKF/SYSplA0GOK+Kwuq7pdTeaTWMBt7LfztUKkUYr5UdjnMph1wxKe1wXHwy4+e+n6tR/KxYypO9dvXn9vbuomIGHLRZz5qXFYo5CLOHq1YqPfJs6O6xS8R8ebuYi7nMT69XTMbfzsYh+BhMWwI+aAKhFkt515crCyWYudb1bLQfhypxIwie6tFkZenLd2VsJ6gLDaCtuNfKOG6UeVmZhZwpu1GtgywWw5i5SzyLdvTs5PGvub2UrOvjtIdxsBo4bZqYb6rUQ+4VhfTnsRZb0YjAXMZlhqtyisJrleIxDzyWI+2WGHNGrBVaUoHfehiMFuBlFEBwJcEOCa9DKbSelx6mGtJIAZDVqhx6U1aIWYU1/OBpNhZyLkCHpMqYgr6DHlk1g1H44HkUYpFnAbrz4GPSa7UYGhRocVQhEdZWnqg/f+G4uGw83cmp8eG/34XSGXwmdRMvHglcsD5rJ3qvmZWx/+4uvna828QfEfQ8Vvnp7+4btXV9YC51vNsE11ul4922xsVKPr5eDFZnmvFbEClMvd+sijo9JuL1JJmdbaEQgg5ZM2CCAV0zYbzElHYZOWUc7a/KjsxeO1i3vNB8eVbtPbKDtWmv6gB2yVA6W06+04VKiWx8pZzI9q4xGkXom6nRrUAUFKnlEnjYYdsF663qv/eyHks2fniYjHbgYRi9pmUpVyYRTR6iGR1ahwWNWIVakBueGAxWKU2WCgkgv5UTgdRa0GebMcD2OWeBDp1FKlTCARcvhchngQKWeDQY/Jg2jtZhAEuCiim5u6cf3aD++Mvc9jEc0GJY00Nz89ZjdpC+moFYZAubCcSwVQ2/TYtV++eR5wGDqlxOPjwfMHO3/719/F3Maff36xUow8O17tFYKvzzZ///XjrXo849HuNEKdlP1K4n5ku+PdaKJ/+7efVbMOs45dzjpRmyQW0GFOGShb6rfDmFMW8alfP9852Coc7RQ++3TQawXiQe3hdjmC6XbXi/kE0ioHO9Xw4wcbuYQrHrSk4g6bGXAhah3E93thHcTXaUS1UjyT8vU6RSeiDfttiE3tduisZqXLrgFkdJtJWcwHnHbQaJCk4i6DVqhTC69OWTbu8SDaViVRygRqhUg5G1xpZgup4fhbIuRoVWJehyYb9/g9ZlgrdVghBgV346N3Rq+/Nzd5SykXRPyogE0Neh1DSUgetVFMdutFWC3lUnDlpN9hUBRi3m4x8d2rR99+/vD33758/XC/EnfuL+caCdd3z0+eHXWfHXXXy/561FSPwrWYaTnjGrnYTpxthgc1JOZVbvdza+1E3G+I+w2dit8EsdtlXzpsLCRsT8/Xnj8cnO7VL447g+VEp+J/drHRKYfysaHe/0otWky52pVQuxI62KwOybbXYIMlYQz2IKAHAUN+oxNRV2uxSins9ujdLq3Pb3I5IBeqRWwqhxPUaQRWG2A2SdQQx+vRRkI2l11TzofVCm45Hw5iltVuKRNzFVLe9W6h18rk4+5KFkuHHbW8PxW2xYO2YVp06FEHzKQRpiduTk7eBBUSFpMyXI3i0O0mrVEHqGWc+3trK/WMSsR0GJRMwrTbDDXz0VLUu7tSXm9kOoXQ0Vp5u5M+WislvdpPj5a///L+0OSjHljJIt2MvRzUNhKWkcu91Ivj9MlqIOVT13Ierx1wmSUBF9hvxmQ8XBBVx/2GbNR6edp//XT/0b3e2WFnsJxabQ2N6fvVaCXt7lYjm93soJNuV0KJoGm5FsnFh8WJcs5zVZMIeDSIVeZAlMmUKxK12RGlzw+HI9ZA0KTTC2Cj2GSWulDIaJLARjFsFFttgAvVqhScWMhh0svq5Xgi4mrX0+mos5TxdRup5XqymvOtNBLVnK9ZChWSzmrOF8YsGGqElEIhj353/AZufkoqESgASbmUk4q4dBJ+qCqvkd3b7eYiLodBHnQaueR5CyTdX2vmgq7728t7vdJGKzVoxLvFQNAOBOzSy/3G7765+PLR+pOD6uuz5Z+/2D7byJxt5kbONmOvH5T2l735sL6ecSE6btyrCSDARjsuZkwmfbpsyJj06fZXc2+e7X/z4vDT0952N7XWiBxtVXfXCrWcJxezrdQjJzv1XjOWDJmWa+Fa3ru6nKwVsWzCHg0YihmXz6OxWeWRKOIPmMuVCOYzejE4ELQ4XRqTWS4HGMGQVali2xEwGLKaLYDFqkCdunIxEvJZm9VkLGwv5obobLmeHKzk++30ci3WayazMXsmamtXQg/vrVVygXTcK+JRRXzajY//iUbGC7gMhUzYbpS1KjlhflIDDL2yB+18ymfd6hQqcZ+YtgAJGS/PDrJ+x6fHG+c7yyeD6qAa3etk0l5tM4V8dbn5xcO133x576tHq1+cd/788/OXp61vngxGjlfDby5b+x1fJ+tYqQQws6SV90Rd4P5qTsXD1dLOFKZL+nQbzdi3r+59/+bi0VFnbyWz188eb9fu77fa5UDMp69k0NO95mo70Sz5l2vh1XZif6sSC8KlLOpxKFrVYD6DRsKWRBL1+U0XD3fCEbsXg70YHI05EIdaBXJWegWtTggbpXYEVIGcQNCSjLtbjXQ0iLRqqXDAUsgOKVS/ne02Es1yuN9Kney2d9aKzVKgXvBt9gqdSrxRisn4VC5z6cZH7zBpBCZliUEmyEU8pZgLCJkh1LxSTe71SuU4erLRWKunxXScmLbw5ZOTQsj5+HD1+f3B2U7zbLN+tlVdq/i3mpHvXu6fbxV/+fnh14/Xf/Jk9U+/ePDV5cpPnm2MHK9Gv33ef3ZUWqtg3ZLXY+BVk7a0FzrbrcLSpWxQH3UAxahppx37/uuz3359frSeO17NPjpsHq4X7u83NrrJatZVyblO9mq9VmRrNZOKmva3SjuDfCGNdFrhcFCXTduLeXe7mUqlsUTSc3i0mi+EwhFHJOq0I1ClGtcbpLV6EtIIbXa106VTKDlezOR2aeNRh8MOthrJeAQZMlOvvt2IH+20GqVQJe/dXi+eH69s9fONor+SxVqlaC7mkXJJHCpuYfoWlThLX5pnEHF2GNKrxGzSnE7O3elVBs302U7rzaeHh/0KwFrgLU19erzeTvvuD2pfXOycbzW+ON866eebCfugEnhxr/PFWf+nTzZ+/Wr/u5eDX73e/upy5flpc+RoNf7qvP3V5cpq2bta9mUwTSFoyPl159sVL8zPYJpyxNTOOBtJ+0+f7f3pF08v9xsXO9V7m8UHu/UHB839QaHXCBfTyL39+mAleX7SSUVNZyedTj241k00av5CzpmMmxv1ULOeSCQ9O7vLxVKkUAx7vMZsLmCAZZmsXw0JvJgJVPNRt8EfsNoRKBZHk3F3KoH6MWO9GsumPK16IhqybKyVLu6tDVbyK614txnb7OU61fBaJ7W7XmoVQxG3cShJQhtqVJFwE0wSXi5gIEb10DOQsZgNO7/9/LyacD3abV9sN+9vNUwAm4Uf3+8VBtXYQTf/+nzr/qD62enqxVZtsxb67LR3vlH43Vf3Pz/t/vHb868ul189bDw/rZ9uZ0fOtopPTxpfXq4Oav7NRrhfwuIuZS1ufXzQLAQNCVR1pSmV8+s+e9D/8y+fPb/X/fSovddLPbrXPT1oHO1UtlYzlZzr6cP1/a3S2Uln0Esd7VZbjeD6arpWwdJJa38lsbaabdYT8bjn7Gw3nw9ns0Gv15xMYoGAXSZj6fWyQMCOIFqdTgpBIo/HVKnGu518qRBu1hPVcqRZTxRy/kox9Oh8u9NMrPXy5yerpwfdewftXjuxtVY42KyutdLt0nAfiU2epS9O0RenhAyiSsQOoUP3cCmbuN7IfPX4yA1LPn+w8eSge7HXiaFa+vyNtVpsr5M97hdfnq4/2Kg9PVx+ea//2WnvN1/cf37U+f7V8esHvd9/c/+bZ/1fvtl+/Xjl4XFl5LOLtS+fbP302c5RP7NW8TdTiEVB6RW9bx5vtTNOq5JajpiO+pmVgufLRxvff3n/qJ/59Kj96LB5vF3Z3yyeHbcv7i0PVpLfvnlwuFNZ6yYuTrsrrcj2ZmG1lxysZfyY+vLhWm8lvbvXjUbRfr+6slIul+PVajIYRKrVJAwDLpdBr5eZzSqLBTSbVQiiVan4qYQ3FLBtbTSr5cjOVjOddHfbmZfPTgar5bVe/ni3vbdRu3ywcf9o+fxe73CrdjCoPT3binpMFPydiRs/5tMWZFwan0bwIcZU0CVmEo4HzVcXez4L8POXp/fWypeHK/WUmzp7vVcO7/fyZ5v1p0e9863G5w82Lnebz49Xnuw3v77cefNw4zevT3/+cv/zR8v/8qsHXzztP3/U/f9M8tpr0iTupgAAAABJRU5ErkJggg==;" vertex="1" parent="1">
          <mxGeometry x="90" y="370" width="103" height="141" as="geometry" />
        </mxCell>
        <mxCell id="1CqdtWAffQ9HiO-EJ7Oa-15" value="" style="shape=image;verticalLabelPosition=bottom;labelBackgroundColor=default;verticalAlign=top;aspect=fixed;imageAspect=0;image=data:image/png,iVBORw0KGgoAAAANSUhEUgAAAGcAAACNCAIAAAAl/PNKAAAAAXNSR0IArs4c6QAAIABJREFUeAF8ulVzJHmW7Zsf4r6cM3OmSpmSQswMwczMzMzMzAyKCClCUoilTKWSmauyGLp7ep7ul7kWGdVlfXvGjtkyNzeXmR5+sdbe+7/db41PjHz19f++M/zV+MTwyOjQ2PidUcDt/66x0aEJwO3J0aF/0RTg9vTYnakvf5oYGZoC3J4ZH56fHF2fHUeuzuI359ioTR2XELeq9jL+q1buSa/x5qLz4mTnxcnOx+v9X55d/vLi8rsHx5+uOt/fO/h01nrRKd2vxo9T3t2QueHRVxyqsl3V8OraAXMnYm35TQkNz8Mn+/gUFwvn45DCQlpCxi7qpV2f+X4++rKZf7tX/qa38+mw8fGg/qyeebGTf7GTf3tQe31Uf9DO7Wd9GYfKIqJwsUD0xixoYXxzbmx1BrA4OTozNjIFGJ4EjE6NASbGAWNjowDACAAwMjo6PDJyZ3j49vDw7ZGROxMTY7eGbv/710P/9r/+9//zH1/9r4nJkeGRr0YBQ/9dY6NDk4ChydGv/0VTgKGZ8TvTY7cHz2cnhpdmx9cXp6Grs2TIqogANvCIbgU7ZpJVg5bjUuRht/ThqvPN9f73D49+eXb2+8vL315c/Prs/OfHxz9cd98eVa+r0W7EUnEosyZRWi9I6ngpvaDp159mvA93EvfKkZJdHpTSIjKGm4XzcQlBASUuZRb14n2/+WEp9r5b+emi85f7R79f93652n/dLjypJu9mA/dL0aft7KNW5l49cZj25hxqm4gmwEEo4DXMxiJ8ZX5rbnp5cnx+HDDb1/jMxPgA3IDdANyA3ejo8K07w/8xChgauv3vI6NfT8+MDd3+9/+ObBQwNDY6NDU2NA34+r9paGb89vTY0BTg65nx28uzY1urc3DgKgG6zkVvKygwE4/gkjEiBlEtZLmsJZ4fVl+dNN6eNz9fd39+fPzbs7Nfn578+ODw41njph47ybjqHnVSx/FLyB4hwSsi+MTEgJRSsIq7UfPjVup5J7fj0wQk5JCU4mJhPZwv4ESUjJrX9uivC6F3++W/Pjj++5Pz/3x0+pcHxx8Oa0930udJ90nCebcYvK5E7lfjF8VQO2pPmmU2EV1GRhG3VlCri8D5mZXJicXxsYWJ8aWpqfnpqYlxwPgX/QnuT9PdGjCamgYsLE6Pjw9//fW//XdqAMDQ+OhQ31aAr///+moW8NXc2NezgL4WJ+9sLk4igMskJIiNg0pJcB0D7RBSwlp+waXpJFxXtfiDduZhO/PqqPrdvc7PDw+/v+68Oixd16L7cVvOLExoWQEpycXH2NgIGxvh4KJcfIxXhA/JKTkT/1458Pao1I2a/BKiV4i3s1AOFsrFQnu4uKiMXnMoztOe57vZn+52fry799156/ur3XeH5WftzFnKfRi1HsdtJ0nHScp1GHe2AuacTRXSiBxitppBEhLQJAgQurq8Pju9NDmxODE5NzUxOTE2MQEYHx8dG+trENWxsdF+QicnR8fHh2/f/j8jI18BRoamJkYBI0OA0b65/qHbY6O3J0b79Wtm7M4s4PYs4PYM4PbM6O2Z0aG50a8Xxm8vjA0tjd/enJ9AbCwSoBsMNEREQuiYWL+cmbcrq159J+48THuOst7LcuTpXv79SePz1e67k/r9WmwvbM6axSEF3cXHOLgoKwtuZkDNDKiVBe9T46EdXJSDg4rIqadp58fjSi9uDYqJXh7WQUc46AgnA+Fho6MSSsUiOYpabyrht4eld73ym4PSh+Pqm8PS827uouDrxSzdoK7tVTU9qrpLVXNpig51wiiLGRQ5tyXntfv0KhGVCF9fXZ+dmQOMTo+NzEwApiZGJ8aGASNDo6N3xsZGAIDhUcDw2NjorZHhr0dHhvqkRobGR26Pj9weGx4aH+7fT4zcnhy5PTV6py/A8JfAA+bGRucAI3Ojw7Mjd+ZG7iwAbq9PA7ZmxiCLk0TgKgsFZiKBXDRYSUU7+KSCTd5LubtR2/164n4tca8Sfblf/v5u92k7d5rxHcadR0n3ftRec2tSep5LiLNxkUYGREvZ1pK29BSgmQYxUkAK9IqJAkqqGCcJ28deeder9vEwPjbKRYE4yRAXFepnoRISSsUg2PWoj6Lmm3LwZSf78aT66bz+6aLx9qR8sxM9Ttk7AU3ZIigYeXmToOHVtEOWkkuXc2rLAfvdveqD3m4x4pOxaUQ4ZGVqYn5sZHESsDA1Njl6e3jo30eGv56cHB2bGBkB3J6YGv+D2tjwUB/WF2p9ZMNDfyAbvj09cqev0eEZAGAGAJgdHZ3tUxuZB4wsAIaXxoY3pgGguQncxiITvs1DQ0R4uJ5N9sq5MTWv6lR3wtZuxHavHL2uxJ7t5t8cVu+Vo92IrRO2XhZCD+rJ81yg5TdkjAIzE25iQAx0sJ4K1JG3tcRNLWFTg1vXYNdsdGhWy7mX9348LNWskgAP62EgXCSwiwh2kSE+BiImJObV7IZVuufVnCRsN9Xwq/3ch7Pa53utb652Hu+lTrPObkBTs4mKZn5axy1YJFV3324lr6Hst7ZTgZcXvXc3F+d7Da9JR0bCNudnVmfG12Ynl2cmFqbH5qbHZqbHpqbHJqYAE1Nj/zO1iX8Y7Q9kI3dmRoanh0dmRkZmRofnACMLY6OL46PLE4D16THI4gx4fpK4vSImobQskpFHtYuYfgUnY5QUrfKGR3eRDz7fKzzaST/bzd/UEr2E67oSe75XeNurve3VHu2k2wFTWEE3s+BmFszChJnoECMNrCcDdcQtLWHTQNzycNFlk/D5TuLNXjan5QS5WDcN7qHCPFSYlwYPstBxESmvZtfM4l2P+jLnedpMvOuVvrlo/PSg+8vjg893m892k4dhQ9ujbHlUZZukZJPlrbKohh/RCqNGWdFve3a6/+Hh1ftH9y73W0mfi0vGgZbnV2cnlqYBS7Pj8zPjkxMj4xMjk1OA8cl/JPSfvTZANvElmwNqM6PDfWp37syM3JkFjCyMjy5Pjq3NjG/OToIXpzEby9iNRQ4arGWTzUK6kUc1ckh2ASVtENXdmsOE8/VB+d1R7WEj9aSVeVBPPG3nfrze/9vzi18fHn17sfuyWzzNeot2qUeEd/LRVhbcRIMYqSATDWJlwKwMmI0OjcmpTafi02HpQSmYUtD9bLSbDvczkH4GMshGR/j4lJRa0HKrFvGeV/OwGn53UPjmrP7xrPbpvP7dvfYP9/c+ndVuyv6rjOss5Wh7NUWLJKHluoVUt5ge0orqYfeby6OPD6/e3r/4+Pj6wfFB2u9mE9Dg1YWFieGFqdGF6fHpiZHx8eHJKcDE/4Xa5Jdy1uf1p4bvzI0OL44DVqcntuamwUuz8JUF9MYSDbbNQUOkJLSWRdQyCXIyUkND+2TMVsB4UfA/3c18c9F8upu5qcfeHVe/u7v7y8PD3x4f/eXpya+Pej9cdz6c1p/tZU8y7pCc4uJjDFSQCr+uxq0byEAHG+nmYXx8bNEkOAwZPx/XjoLGpJTqY6E8dLiXDvczkUEOJiYkZhSMko5XtYjbbtW9gu/tfv6b88abXvHpbupJO/lsN/18N/VqL/VqN/V0J74fMqa1vICE4hZSgkpuRCcuei0vzw7++v7Fpz6480fH+yfNit+kZRNQmwvTi1OjizNj8zP9kE7PjP3P1CZH7ww0BfgD2SxgZFDL/kC2MANbXUBvLuOBa1TYloiAFOLhbMS2CA/VswgaOsbExhcc6hed4stu/uV+4eV+4X41+mq/8ON19/cnx788OPj9yfHPNwcDgr88OHzaTu94NQEpyc5BaombUuSSDLmkJWzamHAvHxuX01pu5f287303XzeLYyJSgIPxMBAeOtzPQvWNJqMVtdy6RdJ0KroB3b2C791B4bvL5seT6ou9zE09cpZ19eKW64L3WSP2ai9zlnKWzJKokhmWM5MGcUQjSJqVVzuFn188+OnFw++f3by86D086jTTMbtKSoSB1ucm5ieHZyaHpyZHJr7of6hr/0LtD2SAkT6yqfHNuWnoygJma5UE2aTDgSwkiIsG8bEgyvaiAL3lkjBcYrpPzjpIeb45b73eL77s5B/vJK/L4U+njW/Odj6dNj6e1H972Pv1weEPd/d+f3T064PDy7w/pmL6JUQHF2WkgNS4L14jbdsZML8Al9dx9/26N63000qkoOFEBISIgOBjIsN8fFxMzqlYNZNoz6U6ChlP47a7Wc/zVvJDr/T5rP7tWX0A7iTlaLgUez71YUh/kXYdx6zdoLHp0RatiqJdlTHKEgbpXsL3rNf69eXDv7x99s2Dyxdnh1etejUWNIi56O3VxanhmfGh6cnhyck7E5Mj/0pt4suQ8Y9u0K9i/VFjbHQeMLI8Adicm4SuzGO3vyBDADkoMAu+Td5e5CE32bA1BRHikTK8EkbCID7LB5+20893s6+6+fuV8GXe93q/+LSVftbOvOoWPp3Wv79q/3y/+/uj3rfnO2cZT0bP8whx/emMjbTQoWYq2EqHOlkIPx9XNglPYtZvDkrXaXdaTo8ICAkJJcTDpWS03JcO0PFoTqOW66znYTn0tBF/d1B4u59/08196JW+Pau/PSicZ1xNl2LHIS2b+FWLeMehOAxbTpOug6h9L2QpOzQxtSBv1/ay4bdn++8uD18cd54d7T0/2T9vlAtBj4JNhazNL02Pzs8CFuYnpqb+qRsMxo6J0TvTYyNjd74e+fr/jN35ehYwsjg5vjgxtjg2ujo5Cl+ZJ0O32RgYBwPjoMEcFJiLAvGQWxzYmgi9raUizSysS0BKG8XtkOkk7bqphi9ynpZPc5y0P2rE7ldCD2qRJ83E8930m4PC54ud3x4efH/Vulv0502CQe13cdEOFsJCBTuYcDcH5eGidxzyx9XIp/3iZcIRF5EycnpGTk9KqSk5Pa/j1qySlku5H9Bfpl2PKuEnteiLdupFO/VqL/PuoPDuoPCsmbjKeQ5ChppFWDHxiwZ+2STacSj3g6bTlOc8GziIuWoefc6sKDp0h6nA407l3dn+p7vH7y5PzmqF41o+47MLaATg2tzizMj66szC/PitwYj757A2oDYxcrs/sg0PzYwOz48DlibHVybHt2bG0euLDASIi4XxMFA2EsiCb/GQ2zICVIIFKghgHQ1hoCEtTFRQRi9YxC2vuhez7AZ0eSO/6VWfpZ1HCdtZpo/ycSP2spP9fN746+PeL/c7D2uRql06cJmDhbAz4WYKyMGEe3mYgAC361G/7+S/P6peJRxpGS2rYKTl9LSCntNyalZJx6/d9ah3nIpexHy/4O+rGHjWTLzuZJ83E/fy3pOE7ThmPQwaSnpu1SQs6vkFPb9mlTVdmoOw9SIbuMqHz3PBhseY0ot3w/YPZ3v/9erh318/+vXpzbNe57JZaSRDPrOGS8FsLk+vLEwszv2D2h/z7WBM+2K36bGR6S/dYH4csDo7DVycw2wu02FbPCxMgIfzMRAOapuL2BRhgVoaSkNB6ChwPQWuI0F1ZIiDjQnLqGktu2wR5fTckJiY1XGabmXdIdvza89SjofV8Ku9zKfjyk932z/dbb/p5k6S9oic6uSgXGyk4x/U/DxsREQ8Chp/vWj9cFy7iNkKanZexUrL6VkVq2QUtL3qu3nvddF/krBdZt2PKuG7Wc9hyHiWsF9l3FcZ92ncdhgy7gf0Laciq2TWzeKSjpdVs8smccko2nGqzlOeu/nQvWKkG7IXzPKW3/zqoPZfL+//vx+f/f31k093Tx8fts93iu183GfREFGglYXxpfmxL14b7R+k+keo0TsTXxro7ARgYXpifmp8YWJsdXYatLKEA2+LSBgpBSslowV4GBcN5KK2xTiQkgTTUhF6GtJARWhJEA0BqCUCLTSYi4PyC3ARKTkgxNsZsLCEmNWxM1pW1SbuBvXXRf/zVuJ5K/FqL/3puPL9ReNNN9dwKSIyio+PdXNQVhrEwYD7edi4lHKZcPzt/v7HTv44aCxruQU1OyOnF7ScqlXc8qge16PfnTc+HVfeHxbf7xceVkI7DvlAbZdyz6PpeLUdn7Zhkyal1IZFUtLxMgpGQcdPq1gFvaAXsZ4mXMcxZy/i7AZtewHLSdr39qD+++PLXx7dfX/ee3PRe3bSPW9V6tmITsYDbS6sLk/dAoz2D+d/Iht0g7nJseW56dX5mY2FOcj6KhYK5hBxNhnfImSpGUQhDsZBbPFR20oyXEtDKQkQPRVhoMA1BKAat6UnAi1UiI0OtTOgThbMRgcbSZseLjIiJUakxKKJt+tTnSatl1nnZdb5oBL40Cv8en/3x6udy6w7p+cGRQQvD2OnQe00qI+LSSkZDwuBXy/bD3K+tl1eVLHzCmZWTi/peA27rGaX3iv4fr63+/enx7/ddH+4bL7t5nthU8ulLOh5STktJaOVdLyWXb5j7VOrm8XFL9TyanZCRkur2HteXS9sOQhZjmPOk7hr12fccWsvMv7X3drrg+aTvfrHq5N3d08uWuXDei4VctJICODmwh/UBi7rGw0wPD02MqC2tbKE2N4koRBsEkHBYQb0CrdCYOBSxQQ4B77JRWzI8GA1CabAAQ00uJEKV+O3VJh1HWHLSNo2EDeNxA0jcVNPWNdiVxwMiI+P9gsweT2n5Zbv+lS7PtVBSH9T8n86Lv18t/ndee2mHMzqOB4u2sVGWilgGxUS4GELOu7zWuz9Xq5tlxfU7KyMnpHScnJGSc9ruhQtj+o4YXt7UPjro8Nf73e+Pa19c1x52Ur1wqakgu5mIrxMZFxMLmg4/WAqmVWjsKTj5VSsnIqVlNKSckbNIt0PGHth63HMcRCy7DjVdbvqIGS9ykeuy5kHO6U3J/tvLnsXrfJxs9gupwxKARK63qc2DvgjmJOA4amxkbkJQJ/a7DRkY5WMRvBpFDmXrRfxvGqxW8GzCuhKClqA3GZDVnjQFRFyQ00AW5goCx2pxm4qkSsa7LoGs6ZELanRyyrUkhK5oEQsWMjbTgbUzYKnVfSigVuziVsu+UFI96Dk/3hY+HxSebefu8p5ojKKiQw0U0Am4raVAg7x8XWz+G078yDvj4tIMSExLiQlROScglnUcVte9UXOc1XwPWkmfrxqfXfeeN5KvmilXu9mzhL2vI7r42LcDESQi01KqTkVq6jllvX8ko5X0HDyanZGwUjJGHk1d8ehbLnUHZ++49PtOBRVi6Tl0hxGHJf52JN29XGn9vSodd2tHzXy+/VcxGvBo0G3vuzO+oeBieGhyZHbc+MjS5OA1elx6NoSHY0QUolaAduqEJnFbIeE7VNwfTKukYkTo7a54BUuaEmM2DCQ4TYm5gu1LQV8VQFflUKXROBZKWxeCpuVQmelsFkjccPOgDiY0KAYF5dTSmb+nk99nDA/KPvf7mffH+Sf7MT2wyYXB61ALitRKzrsho0KiYhJbafidSt9GDB4mIgAGxXkYmJCQlHNrhgF+yH9k2b8VSf7Yjf17Wn181ntuug/TdrOk47ThK3j06bVTAcdZqdBY2JSQcsp6XkFLaeo4xa0X6gpGSk5LSmj5bTckpHfdCq7fl3TqSwZBWWzuOXVn2QCj9rF62buQadyc1A/amT3a5liws8gIm+NDw9Njd6ZGRsGfPVvE1//n5Wp0c2ZMQJoTS9khk1qj1ocNiriZrVDxHQJaGmDtGhVO7kkGXJLitxU4cBWBtZGx5opSD0eokJuySCrou1F/uYcb3OauzXOBY4LQJMSxJyOsG5jQtxcpE+ETWuZRatgL6A5TllvKoG3h7nX3exZxp03iYwUqAi6wAPOqFBrdgYiIiHt+bSPKuGSke/nojxMmJcFT0hJDYtw36+5m3c/qAS+Pa18Oi692kv9dLf5oBJoOKV1h2TPrz6MGEpmvoMJtVKBYRE+paSlVfSMmpHTsnJaVlbDTClpcRk5JiWllPSaVdT1aw+CurZbWbUI++As4oZXd5jx3NtJ3d/LXTazJ/VUr5apZ8JSLuXW2J2vZsaGl6bGpke+mrnzH2tTo8jVOZOInfNaSn5r3m0seExxoyxllMU1gopDs+M1egQULR6iQG3qiTA7E+tk4MwkuBq1LYGsiLYXRduLEtCyCDTPWB2mLH/N3BgRw2cVmCUDZSskI5ZswoZH3g6o90LaTlh3lnU82ok8acZO0664im0gQxToNTlqVYvdNJPBfgGu7VHfFAMVs8jPQ3vZiIgQl1MzmnbJSdT0tB550U58c1z6/rz2sp342Cu+3kv1944GTt0u7gY0dbskLCF4eaigCBcWE/6kltexc1pWRs1IKqhxGTmpoJZN/F2PsuNTN52yillQNPJyBm7KyK8HdMd5/1UjcdFInVQTvUqqng6phMx/UJsemx+7vTI5igevm8ScYtC1k/DvpgIJi8qn4uccmqJTkzVJ2gHTcdqb0gn8IqqJCrcxMHYm2kZDGYkQNXpLBluRgpcl4EUpZFkInKMuDXG2x0SwGTl60Ujd9omwMRU1Y2DXXNKmT9nyq3oJ800teFMLHsbNVYfMLyLriCAtYVtH2NZgNrTYDS8Ps+tVX2XcdZs0KMD6eeisil4zC7pe1XXW9eEg//mk8s1R6Yfz+qt28lkj+uEgXzELUkpaTstq2CU7DmlOy0oqqBExwc9D/0mtoOcU9JyclpVW0Qfg8jp2wy5pueQNu6RiFhQM3LSWGZBRMlZxO2Y7LgVPq/HjSvygnKgmA2oR69bkyNA0YGh+/M7ixB3ExqKKS80HHK1U8LSWKfnNHgXXr+IXnLqUUZI1i7sRy0093groa05VSEoNSqguDtZKhVsoUCMRrMVuqhBrUsiCaHtOuD0thc0pscsG8paTg4gpKTkTN2NgZ/Sslk/V9CobbvlZxv6yk7ou+0pWYUhCdnFxGjxQS9jW4DYViBUVai0gxO8H9Scx645DFhETwiJ8zSw48GtOo6Yn1dAP5/W/3HQG4N52MjdF34tmvO1WpFX0uIyc1TBLRl5Bz8nr2Ak5JcDHJOSUlJKW1TDzOvY/2y0qIaaUtKKBW7UIa1ZR2cQv6DkpDSMgI6eMgkbQcJjznpajR5XYfilWjnmVfPqtubHhWcDQwtjt9bkxJhbm1cvLYXc3F33S24noxSmLsh6wRDSCoJJdsEn2Y6YHjVg3atoLGvImQdbAT6gZcTk9LCF5uVgbHWokbGvQq0rEshq9YmdAzJRtFxueVNFKZn7NLt71qXpR455f3fIoWh7FZdb5cjd5U/a3vcqsjmtlIFTYLRV2QwpfEoPndbjNhJJ+FLXsB/QNuywhpyQV1I5HeZWyPyh4XzbjP13u/NeT3o8XjXfd7IeD/P2C9yrjPIoYCwbuAHFCTsmoGSUjL6dlhUX4iJjwpYrRMmpGVsPMaphpFT0hp4RF+AG4vI5dNvHLJn5ex05pGHENM2MRVH2aTsp5XAyfVOOH5Xg17tMIGLcWJoZXpkeBS1Po7SUpgxB36PfzsXu7pdNyIu/QtKOOnE3lElJDClbFKe9E9OcFT9OnrLvlRaugYBaUrIKWR1k08cISooUKVCGXxKApwdaECDipxa26OYgBsh2XrBPQ9KLGs5Ttuui9m3fflP1Pd6IPKoFOQJPVsQJCggq7KUety1GrfNCsBLJgpyPyBl4vYt71qGtWSVbDLOjYvaDuSSX4upV4s5v64bz+1wfdn6+aHw7ybzuZ67znOGo6iZnLJn5YhPfz0GERPiGnDPIYlRD9PHRIiItKiAPTpZS0QTyDAmxQgI2ICQPHDSinNIyUnpMy8gp22U7I2MsHz2rJs0ZmLx91aqS3FsbvgFdmaSgwn4hUc6lRm+akmrrXzlf85k7CXfeZgnKWV0QNyeklu7gdVB8mTBWXOGfipvXMqJISkhJcbJiNDjKSNnW4VR12RY9bNRI2zOQtJwsWEGJDYnxIjE9rGE23/DBi6EWN3aC2G9ReF70vd5P3S75dnyqtYTpZSB5wVgxbkiFX+MBZNXo9JCKXLaJOfxpQVMzCfoLMgpOI8U07+W2v+G4v/e1x+Yfz+s9XzR8vGk/rkXs592ncchDUlYy8iJgQFGDDInxMSsppWXkdOyImuJgwLwcZFGCjEmJcRh5oQNPHRQX4mLiMnNexiwZuVstKquhxNTOiose1nKJT0U15Lhqp673SebOY9Tturc0ASPAtGYOgYBF1PGrQIG3G3bsJd9mj3406UnpRXMMPSOlBGSVr4lTdklZQVbDy4mpqWE50cuEONtRKB9oZICtt28EE+3hIPx8VFKIjEkJIjA+LCRkNo24X77hkZYsgq2XldOyaTVS1iY5j5gflwHna3nBKYzKykQRkrk/wQfMy5IoIumAkghIKRtEkaDjldZu0Yu5XnJZTdh63vO9kfjqv98F1Mu86mc8nlZ8udx4UfRcp+2nMvOtWVM2ChIwcFuKiYkLiS4HLqBkhAdZBh7hZcB8XNQAaERMGQe53Zw5y4M2kgtqvenpOQkULSkkBKSmsoGct4m7Sdd3KPjqoXndru/n4LQJkXc4iqbgUGQ1r4FOiJlnFby44NVmLvGhXxrX8sJzhF5GjKlrKwEgZ6DkLO6Ii+kQoNx9uY4GcHIiFtulggSy0TTcXmlZTcjp61co/ihrOk7bTuKUXNgw6+qDQloy8uk3c9WvOk7aLlL3r16RVdBsNrEAuCUBz3O0ZGXJFjlq1UmFRKTWpYlQsoi97RNmeT30UMd7Pud/tpX+/1/7r/b3n9cijkv9JJfiiEX1Q8PaCuqZd0nJIOx5lQcuKCHERIS4lp+TUjKSMHORjnAyoiwlzs+AeNsLLQfq4KD8PPUAW4GPCIryXg3Sz4CklrWoRpjUMjwAdkpPiGmbBJj3MeB93S0969Xt7leN6/hYDDVJxSDo+VcMmmPjkoFZQ9uqzVnnOLM0YRUktzy8mBcSkiJwS19LiOmrKwAjKcG4+wsmFWpkgJwdqoW662JCQBBtXEGMyQlxOKJk43YD6Mu04T9rrcVuZAAAgAElEQVROYubDkL7jUw/6et0mbjplB0HdWcJ6Gre03Yq4jGwmb8vgi0LQHA84J0OuqDDrdjoiJqdntOyGQ9Z2q1ouxa5HeRw1PS4HPh3kf75o/HLReLebflj0XSSs5zHzecxyFNS17NK6RbjrlOU1zKgQFxHgUjJyRkFNSElBHnpAzcWE/V+ouZiwhJxSNvHTKrqXjw5ICBEFNWsS7MedDzvF5yc7Dw8bJ/X8LREFpeGSjAKqSUg2CchuGTPvUCf0wrRBkNCykxq2h4cJighBCTGsJIWVpKiK4haibCyolQk204E2JthAXHcwIREpIamiJhTktJpWtQiaLtmuR7nrUbbdipZL3nTKmk7ZjkPadMo6X/b3x1HTQVBXtQhDQpwBvyGDLYghC0LIogK9psVvu9mYpIpVMgt3verDkLHr1+4HtOdJ2/N65ON+7vNR6dvDwrt26nHRfxzUt2ySlk2y55Q3reKakb9jEeWU9KgAF+FjE2JiUkKKCfF+LsrJgP5pt3/x2qBRuFlwBx0Sk5L6k4eS5hdi/WJcQEyMaZgNv/6yGn96WHt02Dht5G8pWXgNl2AUkK1iqllAsglIKZMkqmJHVcyYih6RUdxctJeHDnz5Fx4RxifGWVkQA2XbSN0yULYsdJCBuBEQYqMyUkJBqZgFbY+i69f0woajiPEobOiF9AdB3X5A2/WpO15Vx6c+COoOQ/qDgLblkue0LB8XpceuyaALUtiSBL6ixKwbKRA/n5DVchtO+X7QcJawnyXsFyn7/YL3WS38upV4t5d+3Uo8KQUe5r3HQX3VwCuomVUDr2rglbTsip6bkVNjQnyEj40J8TEhPtz/wgHhokP+pPan3Xxc1KCoBQVYJwNqo4IiYkJWw0zIKREpISDEeQTYgJSUMQnbUdtFLXFvt3jRLN7ScogaNk7HwVuEZBMXb+LgIhpuUEbzi0lRBc0vwHq4SCcD6uOjnVykjQ23cxA60qYKu6YhrGuJmyYq0EwB5g3cvIGXUjPqNmnHpzkI6u9mXC8a0ef1yONy4H7OfZWyn8XMRyF9L6g7CukPA9pdl7xq4idlZA8TZsCtKRBLcviKAr2hxm3aGIiwmFI0ijoB3VHMcpVxPywHn9YjzxrRp9XQ43LgWS38rBq6m7RfxCz7HlVFzx3AKqiZGTk1r2KkZZQBtTAPE+Ki/WyklwUfUBusXv6F2qCHOugQC3k7wMcMjqhxBTkoxnn4aI8QF1LQM1ZZO+Y8rSTv7VVvqdk4BQOlpCP1bKyBhTGxMEEZ3SsiunmYkITk5iBcLJiNBnJzkBYGzEgDG2lgOWZVilhUoFfVuHU9aVuL28hoOTsuZdUqKRoERYOgbpMdBg2XSdtFwnoWMx+HDb2g7sCv6XpVXa/qMKDdcyvqFmFOzYgIcW4G1EzY1KDXFMhVNW5bg99ycjBxOaNqlR7FLOdp58Ny6EUz8baTeb2belYLPyz6bvKe+zn3edTcdSvrJkHVwGuYhXWTIK9iJMTEtIySlJDiIkKEjw1yUH4WwsuAuRlQJx3i+Ce7eTnIQU49bMSgM9ioICNhw8dFxaSkqKRfcMISfECE9YvxASklpuVVfcajUvzhYfOWgoGWUuASEkRBgWnpSBMb6xWTHVyMi4v28nEeDtJGBdnoIDsTZqSCtSSghrgtRiwJIf0RQYlZ1xOBSuSqm405CJmvsr4dh7JsEjWdyrpNWrMI6/+khlXUsIpaDmnXq2o5pGUDt9/aeGgXHWIjbxvxWyrUmpbQP1F5ebiUil23y89Sjnt578v+yiz9tpPpg2slHpcDA+eeho0tm6Si51YNvLpJMHBcQc1MiAgJMXFAzc9CeOhQNw3SNxoN/M/UBnbzcpADaj4uykoBGvDrHjYiIiGGRfiksh/SiIwUVdGiKmZCx68HzOe19LOTvVsyClxMAIkJQDkZqqUjLRycR0yxczBOHs7Jwbo4aAMJaKVDrUyEhgRUEraU+E0hfJEPnhPDlxToNRMFYqZAzGTwftD4plO4yni6ft1+wNB09k/CDZu4bhXWLIKaRVC3Cnds4pZDuuuSN6zCgoaZkBCDXJSHAXXSwFYyUIfbNFEgViqk/3ZGy91xyk8Ttrt5z+vdzKt26lU7+WYv/XY39aQaukhYDwPaQ5+mZRXX9LyqnlvWsAsqRlXHrRl4cQG+D06Ij/AwwS/UPFSImw5xMaAuBtT9T8OHl9Mvam4WwsPu+87a99q2k4UICgl+ITYsJYSlhJiCEtcwElpuxixphCxnleTT4/YtCREkxG2JCUANA2lkY608gk/GcAlJTj7RwcWb6EgtCWKho+xcnJIIVBCBcvyWBL0mhC9KkMsq/KaFAQ9JyTYmPKNl35QCL5qJXshQMfLLRl7RyC0YOQUDu2jklM28uk3YckjaTmnDKqyaeEUNMy0jRwXYIAfpY/YT1J9COciQsL/SqZiFLZd8P6A9jVue1MJP65HnO7EXzfjTeuR+wXsatxz6NW2buGUW1vvImCUVo6RmVNTMooqeFhGSQnyCj43y0BE2MsiCBxkwHxPmYyN8bISfg/T9I5s+LsbDQTmYcCcL6WQhbXSYmQK10OAuDsbDxzq48KCMEFGQQ3JyTMMu2BQVr6EVdd3sVm+JCUABdlOE31bR4Hom2sjGOkUUp5Ds4BEtLKyeitCR4WYGxsbFG9koDQ2mJIFUJJCWDDLQoEYa1ESD2phwKx0aFBKaTvmDkv9xJXjg16SVVB8PGZHgs1pG1Spo2MU7dnHDKqxbBDs2Ud3ML+vYOQU1ISZEeOggG+FhQK2kLQcdEhRg06r+mrDjUx9HTedJ21XG+aDkf1qPPKoE72Zdx1FTvy/7NS2rqGni13ScsppRVNKLSnpJ1b/JSIhpMSH1BVyM2wcXYiH8LLiXCfeyvoiN8PwhlPvLi0QXG+Vkomw0uJECMdNgDjbWzcPaOXC/FB9VUSNKakTJTBlEFbeum/I92K3eEuG3eeh1PmZjkNBBaXMISA4e0UBDakhQPRVhpqPNLIxdQDCwUTo63MBEOHhYlwDv4GLMdJiOsGmlQuw0qIeFLOk5Vyn7s1r4Oueq20UDNWyinS9q2sVNm7hlE+9YhDUjr6RhZuWUhAgf4WN8LLjln6jVbeKB0c6TtrOE9TLtuJdzX2WcZwnrYGbec8l3LMK6kVfWsgoqel5J+1NZOSUjI6ckxIQIHxNgI3zMlx8G6WFAPUzYQG4W/IuQrr7LEC52//te6xdqJirUzkI7uWg7B+6TYGNqWkxND8poYSW77NIe5cMP2tVbAtwmB7nKRa1JCEAlGaogglUUmIWLt3JwGjJURQDrqQgjDdlnx8EY2WgTG23hYAbUXHycnYXU4TfsdKiHjXKz+hFISEl1i/AopLspuC8ztpOo4TCg3vcq933Kw4D60Kdq2UR9m1iEDSOvomXl5JSkCB/moT1MmJ+LikqIOQ2zZhXueZS9kP4kajpPWE9ippOo6Sxu6d9HTV2fuuWQ9tGb+tTyKnpOSc0qaXkVPa+iF1T0nIqWlVNSMlJSTIiL8DEhLsRDuxlQ9z/AfUGGcLOQbhbSxUa6OegBNT0JZCCDrQykg42yc+FecZ9aXMPwS8h+Ka3s0p6WYjftyi0edoOJWGbBlwXYTQluW4TpX7V0pIGJVpEgSjxIS4bpKHAVEawkgfSMPjszB21mIixMhIOD8fBwbg7Ky8P4edgAHxsWYGMiQlxMyCiobYdk1yXpeGT7Xvm+R9Z1yzouyZ5DvGsX7TnEHYe4YxO1TLyqhpGXkVISfEJMSMpIWSWtqGPVzPymXbzrlO77VOdx81nMNNB5zHQaNR4FtV2vsmkX1y2CioFT1DLzakZOTS9oGAUts6Rjf3lCzyppaTk5KSMlJMSIEDeI56C6DcYOLwft4aA9XLSHi/lCDaYjAnVEkJkGt7OQDh7CK8ZGlJSwguIVEf1SetmlPSlG+9S4mHU6dJEOWeAg1wToDR5yjY9ckxFAagpMRYIq8SAFDqQigBV4oBi9piKBDAyEkYk0filqNibSxUb7eNiQiBjk430cdEJCqhp5dSO/oGZk5JS8mlrWM+smzo6Z1zTzdkzcppnXsYsPnNKeS95zybo2cdPAqShpBQWloGYUtcySllXWc6pGbs3Eb5gFLbvkJKQ/j5mvEtazqOk4qDsKak/DhpOwYdcla9rFNQu/bOQU9eyinlUysMtGTsXELRv6T/JaZlZNzyipKQU5LiUGuKgAFxXkoYM8dICP+SKcn4/19A8/GDcbY6FCtYRtLWHbSOnPDC4+yifBBWVEnxjvFREjKk7Voz/MBu+3yrc4qHUaZJECmmfBVzjINTZ8lQNbESA35HiwhoJQECBi1KYcs63Eg8TINTl2U00EGWhwCxNhZSKsNLiVCnMxESEBISYiRQT4pIRUUDHzCnpWTqnoWFU9q6Zn1Q2cHRN31yLo2ERdu7hrF/ecslOP8tSrOnLKOmbBjoZZUdErOnZFx67qOVUDt2bg1vv0eU2r6DioOw3p+6SCuqOA9iigPQnpT0L6rlfZ9sgbDnHFwi+beWUzr2LhD1Q280ombsHAzumYGQ09paImFeTBFqR/FeHDfREiYlJI2H/V7+Nh/6SmwW8ZyBArA+4Rov1SvFeEdfJQXhEpZRDVfcZO0tunxoSvUMDzZOAcHbLIgC4xoEsc2AoPsSbDgTQUhJIIFSE3JKhNBQ4oRW9IkGsy9LqaCDQz4A4WysFAOhlIPw/rY6P9LFSI1z8tZ2SUnJyak1PyCnJBSamoaHUts2nk7Fr4XavwwCbuOaQnbvmFV3XhU525FT2buGPktXTshp5b03Nqek7dwG0YeTsmftMi2LNLjv2anld56FEe+dRnIf152HAa1PX8mn2fas+raLmkDbuoZhXWrMK6ra8v94KqRVAx80pGTl7HymoYaVV/8xETE2JiQlxKGqwkB9QCQnxAiPdwsFYaXEcEavBbOiLYTId5RVi/BOcRYhxcpEdETOj4JaemGXHcbRRvkUBzJOAscWuGsDlN3Jwmbc2wEasCzKacCFGR4UoiVIoFChBrAtiKBLkugi0LoUti2LISs26iQD0cbEhIjAiJYT4+xMWGOJgIFxMX4NMSclZKSotwWQmuJCfV1LSWgdWx8A5twmOn5NyruPAqLjyKS4/i0qu89CqvvMozt3zfJt6zClsmXtPIbZl4e1bhvlN66JJ17eJDl+zEp7oI6a4ihquI4TKsPw3pDnzqfZ+q61HuueVtp7TlkDTt4h2bqGXvT4V7LtmuS9ZySOoWQVnPLmhZBS0rq6KnFdTsl7eiGTUjIiYFBfiEkh6TU4NCkouFNlIgX84nIBMV4hVhnPx+Tj1CrJOPc/KJYRW36NafFFO3iMA54vYs4Qs1wsY0aWuWCVvhoTakeLCSBFOSYDIcWITaEsDXBJClPjL4igy1psZu6AlAMxni5+LaDsWOVVrVC4pqdl5Oy8moORk1LyVnBNicGFuWEusqalvH6pq4hxbBsV084HXlUd71qu751Nd+9Y1fczegOferj73KQ5ds3y7eH9Q+t7znlh84pEduxZlfcxnW340a70WNd6PGy4jxNGI4DumPAtp9r6rjkrcdkqZN1LSJO25516M88Kr2vcqOS960iesmftXIq5kFVRO/bOCW/nizx86oWSklI6liRGXUgIDoYqHNNJiBDDGQ+3Oog4ewsiA2NszRX1ugbRxcUMHO2TX76fAt/NbsQLjNGfzGDHFzlgZaYsPXRRigjABVkOAyAlSKBYmQG1zgggCyKIGvKFDravS6CrWmQq7qsZsBDibAQgWYqAADGWIgIixUjINO8DAZPiYvxJQlhLqC0tYwugbOoZl/bBNduuVXHsW1V3Xfp34Y0D4O6Z+EDY+ipodxy3XUdBXSn/nUJx7lsVsx0JFLfupVXQZ111HTTdxyE7fcj1uu45a7CetFzHwW0vd86q5L3rZLmmZhyyrqedU9X1+HXtW+W7HrkLYsooZFuGMVNe2ShlVU+fLWKqthFfS8ooGfUjMjUrKPh3cyUVYGwkJHWOj9VYWZCTbQtow0oIUJNTMQZibaJ2WkLcrduP8WZn0KszGN25zBbfSpETZmKdsLdMgyF7EhwgAlOLAUD5FiQWLUJh+8JIAsiqBLYuiSFLoohSxIwfNy0LwCPKeCLugRK1bspocECtBgURYqwUFnuKgcH1US4eoyUktF6+hYB0bukUVw5ZTdcyvue1WPAtqnYcPLmPlVwvoqbX+RdT1JOx4mrNcR42VAe+ZVnbjlx275mVd1GdBeR40PE9bHKfvjtP1RyvYwabufsN2NWS5ChiOfet8ha1tEOwZe0yw49qp7XlXPrdx3ybt26a5N3DYLd0yCqpE32CCU9JykgpqQU3NaTsHAT6oYQSGhj4wGtzIQDjbazsJYmXADdVtLXtdTtkx0sIkOH1DL2FTdVOgWYnUCuTaJWZ/Cbkzj1vsibM6SgQt08DILtsZDbAhQWwLUlgi5IYKtCCGLfNA8b3tWsD0jAs5KQfMKyIIKuqBFLJvQ6w4i0EeBBOnwCBMZYyFSbHiWCy8J0HUJvqUgdzT0Az3r2My7ckruuWUPfKrnYf3ruPl92v4p5/pQ8LwuuF/mXc+zjsdJy03UcBVQn3sVZx753aDmfkT/KGF+lrG/yDlf5JzPs44naedN3HYvarkMGk686kOHfM8ibhn4uybhiUfdcykO7LKuVbJnFrVNwl2TcMfIL2pYFSOvauIXdex/fKtAT6uZURnFzUGZSGAjEWShw50cjJODtbGQRhpQR9kwULetLJiVhbJxcCElp+Q2nBSTt2DLY/CVcdTqBGZ9akCt77jNWdLmXN90wEUGaIkJXuaAl4TQZSFkUQCaFwDnRMBZCWhODl5QgBeUkHkNfKlPDb/tIYF8ZLCfDA5TwCkWNMuGlfiomhjXlJM6atq+jnlk5Fw5xNdu2WO/+mXU+D5l+7bg+b4S+FwNvi/53pV9b0veVwX3s7TtYcx4L6i9Cqjvh/UPY6anadvLnOt1H26f74us61HCfhOzXofNlwH9mUdz7FT27LKeQ37u1Ry7lD2brGsRd0zCPZOwaxK1zMKynlMzC/p2s4nLJn5Oy06rmHE5LSgiWKgQFWpNje6vkR3sATWEhQUxMYBWFtTFR7sFeK+YkjSIGyHbZTV3C7I4ClsCIFfG0f/suLVp3NoUbm2KsDZNXJ8hrc9Q12fYW7N80LwEuqyAryoRKwrokhw0LwPOqSALOsSyBbPhwm97SSAvCeQhAgPE7SQTmmFBCzxkVYRtyoh7Kuq+lnFkYF/ZxfddsscBzauY6VPG+X3J/3M9/NNO9Jta6Jt6+Jt6+FMt9K7ke5l1PklYHsVMD6PGJwnLi4zjTcHzruR7V/K9LXpf5z3P0q6nKeeThONhzHoTNl+HjPcChrsB/b2A4dKrPXUqelbpoUV8aJH0bNIDh6xtl+46ZfteVb+HhAy7bmXJyE8oaF4eRoffFEPmJbAlHQlkY/UTamMhnDyknQNz8VEBKSEoo0aUrIJduRt3X1QztyCLANjyGHJlArU2iV6fwqxP97U6hVqeQC6NIxfHUUvj6OUJ3PI4ZXWCB5qXIlZVqA0NckMNX1WAFxTbc3r4shG5asNsuHCbbvyWC7/hxG548RsJFiTNgeb5yKoY21SQ/kioiXvlkt74lE8j+tcp68e8+7tK4KedyM/t+I/t+I+7iR93Ez+0E9/tRD9Vg+9K3tc519Ok9UXa/irnfFvwvCt63xW9b4ueNwXPy6z7Zdb9IuN+lnI8TTqexK2PY5ZHMfPDqOl+UH/Xq75wys/s0lO79MwhO3UrTnyqY5/qPKi7n7TepB1nYUPDKkooaHYGTIZaZm9P8aDzCvymgQo30ZFWFtInxnolGK8EG5QToypaUs+teTSHGe9lLXkLujQOW56Ar0wiVqcGQq1NI5YnoQtj4LkR0OwIeHYEOj+KWBjBL41xwIti2KoQvCgFL2rga3r4mh6ybIItWxDLNtSKE73qxq57CZte0naQCkzxYFkBvChG1xXEPS2tZ2KfWPgXDvGNX/UsZnyXc34seT9UvB+r/s874Z92478fZn8/yP5+kPltP/1rN/1LJ/nzXvKHVvRD2feh7H1f8rwrut8WXG/yztc55+uc603B8zrvfpVzv8w4X6Sdz1O25ynr86T1Rcr2PGl5FjM8Cmlv/Mp7HtmlS3LpkV2HNZc+xV2f6lHU+DhhvQhoGyZBXErSETe54GnK5jgDMsdHrYoxmyoC2MJCBZWkqJbsl+O8EkxERc4YOc2A5qIYuNdI3IIsjv0J7k92sOUJ8AJge3Z4IND8CHT+DmruDmNrpj+1gRfkkGUDcsOC3rIi15yoNRdm3Yvb8BM3Q2RghAaOMiAJNiQrgOdFyLIUs6MidfWMIzPn1Cq4dIgfBNQvEub3BfeHiu9D1f+xFvzciv24l/xtP/fbfua3/Wz/epD77SD72372l07q20bk23rom1r4UzXwsRJ4X/a9L/nel/2fav0sf6wGP1QC/ZpY9L4tuN4XPZ+rgU8l77u842XK/DSiexhQXXtl9/2Kx3HDg4j2cVj3Iml5mXHcRIwduzQpp2hw61zoLA04TYfMs2BLPMSqHA8yMREOATKowPtkWI8YFZTjE1p61S07ybmv6/Fb4AXAANyA3cB30KVx0Pzo1sydzenbWzN3gHPD4Nnb8JmvaBuTfPBCnxp02YTesGO3negNH24rQNgOk0AxKjjJgGXY8CwPmRcgiiJURYpuKHB7GvKhgXVi5p3bhHdd0sch7auk9UPR96ka+lQLfdOIft9O/dTN/NzN/dLN/rqf/+2w8Jde6a9Hpb8dV/7SK/60l/lxL/3jbvr7duK7ZuLzTuzzTvzzTvzH3fQP7eT3rfh3zdh3O9HPjfC39eB3O+Ff2vEfm5HPNf+Hout1xvosbngc1jyOaJ+nLc+SphcJ8+uM/U3B8zRl63lVaSVNiVnhw+eY0Hk6ZJ4KnGWA5qWYbT0Vqiat2/lwjwgdkOHjWlpKzyzahN24pU8NODcCmh8FLwDAC2P/wPeH0Tambq9PDm1MDW3N3AHPDKHmbzO2pwXQBSF4TgaZN6BWrKg1B3I1gNsME7fiFFCaDsmz4SU+siLE1MSYhgzbUuA7KtKBjnZsZJ9b+Fc28T2X7FnE8Cbt/KYS+lyPfa7HPzeTP+xlf97P/9Qt/HJQ+PWg9PtR+a/Htf88q//9bOc/z+p/6VV+65V/Oyz/clD4pVv4qZv7aS/3cyf7S7d//akPNPlDO/FDK/Z9M/pDM/pTK/rDTuS7euCbsvd9wfkma3uVsrxImV+kLS+zttdp2+uM/W3B8yLrOvFrUwqqArXMh8+zoPM08CxxY4q8MSVCbmjIEAl6UUfbtLIhARk+b+WVnaKKS7oXNfWpbc2MbM+OAucAoPkx0PwYeGEcvDAOnANsTg+vTQwNtDF1GzQzhF0d5UBmRYhFEWRGCp7RwhaM0AULdCGI34gSN5MUYI4JKfOQdRGmKcG35YSOirivIfV0tBMD89zEu7IK7tklN275y4j5fdbzuRr9fif1fTP9Qzv7U7fw82H558Pyr73Kb0fV309qfzvd+c/z5t8vWn+/aP3nWfNvZzt/O2385aT++1Ht117l18PKrwelX7r5P8H90E5834p/3zdd5FPV/6nq/6bs+1T2fiy5P5bcH4qut3nHi7TlTd7xJmN/lba9/TLBnAX1KQVFgV7mweYY4FkKcBq/PkFcneBBV9QksIq4oSGtq4mrdg4sa2Q3PLJWQNNL2a/rsVub08Ob08MDdn/i25oZWZ+8vTL21crYV6vjX69NfA2c/gq3OsKBzoiRCyLotBQ8rYHNGaHz/x9l7/nUaLateeaX+TAxPXP73nKZCQgkIe+99xJGBhDCCSEBQngjkAEhLyQhAQIECO+9S+89mZhMIC1JZlZW1alj4va5Y3p6+l+YeKFO9bndN+7ERKzIUCTffvGsvdbe+9nrtUhIgVxudx4/ViCMa6Vj5fJpU858jXqhXr3UoF5p1KwCyLRbbfor1vJrNuNNR82ToHUv5jlMdB9N9BxN9h1N97+Zj79bTrxfHf2wOgbE2tjJ2vjH9YnTjYnTzclPm1OfNqdONyY/rk+crI29Xxl9v5J4tzT8dm7gzVzs9Wzf8UzP8XTkXHEvx7peDLl3hwBqQAw5z2Nn0PGo1/p8yPm83/Gk1/487t4Z9m52mXtqNbVyhlaEV3MxORyMkglQKxFQqhU8c5G4pYBfq6A35rE9lco+c+mYq3alp+PKSPACCwNhY6Hn4Lh42Dm+c6HREKDzYKBSuZiUTAq4UIDWSwkGEa5KhG/OoFoyaB2ZtIhG1FcoGdLKxg3yWVPecoNmvbl43Vyy1lSw3ly00VKy1aq7YjFcs1Zct1Xd6qx/Fmrf7/cej0aPJ2OvpwaOZwbfLSQ+rE6cbk6fbk5/3Jg6WZ88jw9rEx83pj5vz37amvn9Tx/WJt6vjr1fGXm3GH+/NPhuceDtfP/budib2d7XM0C2vhoHUvXlmP9g1Hcw7Nkfcu8CBaTz2aDj5bj/5Yj3+UDnfsL/ciJ0PWLvbyxuULKLBVgVE6FkIXPYmDwWtpBHrMhgtmhE7boMa5HYrOFbikSd+qxIU/FMoOXKSNcFJgrMRENYGCgbC2Vj0znYdDYGykSDaYhUCiyFAkuhwUEMZCoXA8qkgAt4yDIxziDCmcSE5kyqPZvhVrL7SmRxXdZ4uWKuWr3SVLxl0V2zl19rL99q1W216bbbyq5Yyq/aKq7bTTc7au64GnfCjv2Y/zAROZ7sez018GZu6P3i2Mna1Dm13+mcg/u4MXWO7HRz+mR98gzZOEBtdfRkLXGyOvxhOf5+cfD9wsBZ9L9fiL0FKm/0eCp8ON51MOLdjbueD3TuDHbuJtyHE4HDUf9e3H0wGng12X2r1zHYrK1XsIr4GIRjyY4AACAASURBVAUdpmShcjk4NRtXwCWWiakNufxOg8JdrrKXSFs1/NYCgbtCEbdVrMVcF+iINDoijYEEM5BgJgrCQIIp6SlkaDIRfJkIvkyGJtPgqUwkWICH5HLQRUKMXkKoEBOqRIQGCcmayfDm8mK6rGG9YrIqd7GhcMOiv9FpuuOtveevv+2uu+WsuemovtFhuuGoue1suOtpfuizPI84X/R69gYCL0cjr6dj7xaGTlbGPqyOv1sZe786/n51/GR98uMGAPHT1synrZmPG1PnAvywNvE7tQ9ro5+3Jj+uj50sj7w/E93JytDntcSn1ZF3831v53pfT0cOJ4IHo77dYffzuPPFkGt/zPtiyLk/5N4bcj+Pu1+M+G/0tA80aaszaYU8tJKJyOVi1DxCPgdfxCMZJPR6Fd+mzegsU9hLZLZCUacuw1eV091QNNxR+xu138HREWmU9BQSJIkIvkxIu0SCJP1GDQfJYSEL+ZgyEalCTDKJSQ1SijWL6c7hdxdKe0tk8TL5mCl3tqFwubV03W644jTd7TLf9rXccjfdcDbcdDbccjXf8Zjv+y1Puzuf9bie93v3hoOH4z1vZgbeLQ69XRp+szjydinxdjnxfmXsw9r4yfrERwDf5OnG1CkADvj9cWPyZH3i7E/jpxvjH9eBKvFxNfFxdfjj6sjp6vDHlaFzam9ne97MRF5Ph4Etx2TwcLLr5YR/d8R9MOzZiwPUdoa817ptsYaif5NaqZBcyifWKjjt2iyXXtFRkmErFHeWZXVVa3pa9P+NGg2eSoOnUmEgMjT576lRYSBAazhIDgN11nlQKiVUk5jaIKW2ZTHbFZxOBcet4vrVglCRuEeX2V8hj1epxuoLlmxVS1bTkqVqxWpat9duOxpuuJtv+9oehNsfRxxPe13PB70HidDhZPR4pu94Hiijb87L6PLwh5XEByAHx4DquT4OxHklBQoF8J8na2OnGxOfNie/bE992Z76cXPy88b46drI6drIl/XRz2uJ05X4x6WBDwuxd3O95zuNo+ng/qj35VnOPhtwPhl0bQfbeusK/k1qOhFVLyRXSCiNCm57kcyhzWwvlgFWPmNeV23xBQYSQkekUWEAL0o6iAw9T88kQtolQtplEiSJCgMxEGA+FppDRxdzieViulHKqBbT6yS0ZhnDnMFoEpNbJOQ2GdWSRbMrmB25LIea4yoQdWnlQa2yW5cTK1cnqkummwxLlqqNjrobvtY7Acv9sO1xr+N53LMPLDGho5metwuDb4FcG36/PHyykjhZTZyujZ2ujwFd2/rY6erYyWriZCXxfnn4w9LI+5XEx/Xxz1tTX6/O/nx97uerMz9uTX5aS3xeH/3j9dk/XJ3+aWvs89rIx6WB8w3G65nw8Uz4YMx3Tg3Y/w84NwPmaA3Qr/2PGVohZbXkSasz2VUSWh3g3RS7y+TeihxPRa7fVHCBiUqnIyBUWBoZCiJBUs6DCE4mpCXhUy8TwcmU9FQGAiLAwvKY+FI+tVLKNsnY1WKmSUirFdEbJPSWTKY5k2HOZpjlDLOCYVYxzCpmi5LdmMVpzuKZ5XybSuTWZIa1ypghL2EqWmwzrtpM287am4Hm+1Hr00HHixH3y4mud/P97xb63y/GT5bjH1eGT1eHP60mPq0nftwc/7Ix+mktcbI89H5h8M187PVM7Hg29noh/m555FySJ6uJd8vDQBM3P3CyMnSyHP9wViLezfe9me15Mxt9Pdt9NB06+JvWAGr9/x41YwbHXqxsK8hoUgrqslhteULP2SNhb2WupyIPoEaDgynpqSRICiEtiZCWRIKk/HfU6HCwEAsv5FANInZ1pqAmk1clYpVzKRVskpFHrpfQ66TUGgnZJCFWigkVYly5CGcQEcuF1HIBrYJPqxJQ68QMs4xly2K7cwS9ZYrBipyJOs1iW+lmZ9Wtrob7PW3PBh3H092vpyNvZnrezvW8n499WIh9WBw4WRo4XY6fLA28nes7nAzvJQI7cfeTmPNRzPlwwPNwwPto0Pdo0Av87nc/jLke9Dnv9bQ/6HM8jjl34p7dEd/BWNeridDhVPDlRGB3xLU/5H4xCByc/PsZWi5hNuVIOkpULl2OvTDTppE6tdn+ytyAUe0qz/mNGhkKIoKT8amXf6eGT738u9bocLAIh9AKWFUyQV22pC5LaBQyy1jEUhq2hIoqpsALyelqEkRFAMlxyZnYi1LMD1JcspKCVpIxKhJaTUYX0bB6Js7ExdcLiZYMeqeCFSwQDJRnTzVqVtvLrniq7oabDhLeg4Tv5Wjg1XjgaCJ0PBl6PRU+mgzujfiex12P+9rvhMxXPfXrHcYlS/mCpXyxvXreZjo7sK2Ybq2YtRjnrFULtqolm3Gl3bTRWXvF03Qz0Ho3bH0QtT3p79gb9e7EO4FG5IzasyHPWTUoNv1bGaoX0qpk7LZ8mVuf6zXkObXyzpIsf3lOqFrjr9JcYKHT6YhzrQFZSQAnkaApREgyIQ0gSIQkU2CpDARYjEfoxezqTH6jUtwoF1aLmQYWoYSCLCSl5+PAudhUOTpFirgkhP0gRFzkIn6gpV9mIGEMBJyLRgsxqEwCVo5HFtKxpUxsBQdbK8C1ysiefE6fIWOsLmehrfiax/S0x7LTZ9vrd+zHXS+HPS+HPQfDnmcDjpuBpuu+pk1n7by5LFGjGaxQ9RkUfQbloFE9YMyLVeRGy5SxirzBqoKR2pLReu18q3HRUrXWUbvhqLvmbroVaL3lN9+PWHZHPTvDwMHUi2E3cLQ55Lketccaiiuk5AIeWsVCqjjoXO5v/ZpWQDFI6KYsljlf4ipT+gwqr0EZrMyN1mp6GkousDHp523aeQEFOls4iAxLIUKTiNAkMiyFhkxjoiFSErJCyqzN4rSohJZccauCXyemlrPQJWRILipZgUjKRCYJoRd56ZcySYhMGpaFw5BxJAwcT8FS6FhyJovLhMNFWEQ2EZlPRxfR4FoapEaIceTQuwq5w1XyzXb9dUfFfU/tTrjtIOZ4Oejc7+981tt+N9i63mFaa6+eM1fEjfnBokxvvsRXKOsqzggVy/oMiqhOHizOipuKJhoNs62mWXPVlqv1mtfyuNfzLOZ9ORw8HgvvDXj2hjy7Y769Sf/BRODlRNfOkOfxoOtmT0dPXUEJD53PQ6nYKDkLoWAgVQx0HhNbwCXoxFSdiFQho7Tk8TwGeaRGHa3Oi1arB1t0ADUWGspAgs8qKQiopP8jNQxESoJXSBn12WyrWtxZKHMVSttz+a3ZzDoRUUdJL6OjdCxcERNXyCGVyXgmtUKvVvNYQgKOjoHj6QSaNidfzuVKSTgRBipFpymxaSr0pUJCUh0f4VBQY3rZsrn4ekflA0/dbnfbq37HYdy9P+B81tPxoNt6w9eyaKkcrSmKlecFS+TufGlnrqgjVwiMrNNImuUca67EV5oXMWpHmqvHmqunW2s3XW13u50HifCrRGh/wPNqyLs75NwZcb0Y9+6P+19OdD0f8T4Z8tzqc/TVFxVzUWouUslCypkIOQOpZKLVLFwBj1AiIhcL8HoRoU7JcGilQaMqWp3bW6MebNZe4GBhLDSUiQL6D0BucBAVkUqGpZDSk0npyedaY2GgUhJcL6LWZTHt+RK/Th4pV0XLld16RVCb5SuUeYuzXMXZLl2Os1xjL8vvqNC2Vxu1eQU5maq8DEUWl6+VK2oLNTVqZSYeJseBi6iIAgJIg71oZICtGYRwsWCqTn3dUfXA17jbYz8a8hwlfPtD7p0+x/2wZdtVv2CpGKktiuqV/kJZRw6/OYNZISDnUNEiNFiChRXy6OUyYamQXSuXtarlXl1+j7FkwFS80l5z3dN4N9D8Mu56EXc8Gmx/NuraG/O9nAzuJfzPR3x3+52xhuIiDlLNQagAZHAFA5nDwuSz8QU8QrGQVMTDlvKxVRmkNjXPp8+KmnJidfkDjSUXuDj438uNhkilIlIpcNA5NQocREeB2ViolAjT8fC1MqpdLQzpFYPVmtGGovHGkokm7Xhj6YBJEzbk9NVqE/baYXt9wtk2EfIGLJam8somg6G13BCxto76nOFGUzGbVEBFVvKJZXRYAe5SBS3VmkHoLhZO1edfd1U/CpkPBp1vx7veToZfjQaeD7of9nbcDFqW2k0xo9qlEdkU7OZMehWfoGHiZHQyn0ohwdNlTHplvrq2SKPmsRryVZainCaFsDGD4ckXxisVc80FWx2G697qB/3WJyPOvTHf4VRof6zrxaj/br+rr6GogAnPZcGUDPgZNVQuC6PhEIr4xBIBqYSP0/KxFRJ8s4LpKpF0G5V9tfmxhqILPDyCg4X9vroBikOmnScp+WyNO6OWLiPCdFxsrYRoz+OF9fJEnWbWXLpkNazaK1fajRMNJVG9MlKeO9ioG7GYZv22KyO9W4n4bLR7NhLeTgw+WpjeiHUPWxuCVSWhCk3UWNCew6tkwCrpaWYxJlQomG4svOVvfNprPxrvOpnv+7jY/3omujfa9WTQc7u7fcKsD+nlrkKJRcluzKBaACedMkskEomk8HQEDoXJV+VY6urKcpSOmkqdhNucJ7OqRZVseLMIOVghm29Wb3Ya7sfanow498f9xzPdB+PB5wn/7VhnT21BPh2aQ4cq6LBsOlzBQOWxsQVcYgmfpBNRysQkg5hklBIbsukdGkFXeXa0OrevruACn4Dk4uC/5ykDCaYh086TlAxLoSJSGWgIB5eeQYIbBITGDIojnx81ZI/XFyxadBuOyq3OqvX2iiWLYaKhuN+YF6nI6a7KH2jSjzua5wLO9b7w/anE49nRe2P9t4ejj8djDxORrS77mqelvyrfkkGtYyOaBZgujWDOrL3X3fZiyP1uvvfrxuhPW2Mny/FX09FnI/5b0fZld/2Su36usyZoULbIGcHKvITX3lhTm5GlzM5SCfni/Jy81tr6qVjf9tSou8ZQlcGuEpMbZSRnHiNSwh0xSq96Kx/2W3cSrleTXW/moq8mQs9HfDej7d1VeflUsIoGzqalZ9NgyjNqhTxSqZBSLmOYshi1cla9nN4kZ9jUXI9WEqxQ9NRqAGq/y+23BQ4FPk/Sv6MGy6IiazLpbUqmt1gcMyqnmopW7AbgFsNZtWHVr9vKV2yGqabieHX+QG1hf01hxFjQX28YaKwcbjHFGyv6a3SjLcZZe92srWbOAjRZcZPGny+2Z9JsMkqkWLbaXvUo5jgYD56uDv/hxuyvN+c+bY0fL/TvTXU/Gws9HQ/tz/U9nexe8jbG6ovG202bw5GZ4SF7m6Whuqa2otJtsQ6Hw3u3bjxamZ8NuoZtdRFTQcggj5RJBysz5lryttzljwftu2Peo+nQu/meV+PBZ3HPtZA1WKFSU9KUVHA2FZpNg6kYqHwOrohHKhNRTVmchhze2bsAnlnFtuZyOgsFvrKMSLX6gpCEFhBRfw+O/nfUflvXMNBMCqw2m2FXc/xaacyomG4u2uiouOGpvheov++vv+WuueKsWrboZ5q102b9aIO2tzxvuFY7VFvaY1D3VxaM1usGjAUDlZq5tspZc/lCW+VMsz5hKohqMwNqYX+ZYtle9TDmPJiKfNka//X2wq+3F75cnXy3Nny0OLA/17c327s727szFXk4Frw77Lsz7L8z0fdodfHOymLUYU8EfHcX5w5vXdvbWruR6N/qDdyKh7ZCtnVf06an9nqg7n60+Vao/tmw42DS/2Yu8n6h9+VY17O450pXm1ubkUtOVVLS5LR0BQOex8YW8UllIlqFjFWnEJjV4vaijI4iSbtGYM/nOQoFbq00ZMy5IKZgJVScmIL9nR0DDaEh087L6G8tGwIkxKbqhXibmuMuEoZKpRMNmk1Hxd1A/bNI65Nw86Ng031/401P3XZn9Vp71bLVuNBWOd2kn2oom6rXTTeUzTWXL1tM6+11267G6z7zVXfjut0021g6WpU/Upk3UVO40FZ+p6d9f7rny5XpP9xe/Hp99nR78uP2xOnVqQ9b42/WRvbnY0/GQ3cG3dd62ze7rZuRjjvDkcdTQy9XZ99eWXl3dfV4c2FvafLpZPxOf/DeQNeDQf+TuHdn2LM74tlPuPdG3fsTvuPZ8PvF3g8LvXsjvmdxz4a3uUXOyCOl5lAhOQxEPhdbIqKUZ7JrFIKGHHFLntRSIHUUZ3p0WT5dlrc0w62VuEokHl3mBREZI6ZgRWTMOTU2Jv1ca/+q0UWABJhULQ9jzmV3Fgi6tJKx+vw1u+Gmp/ZJd8tur/V5tO1ZuO1RsOVuoOmmr+map/GKq2HLUbfdXrdlr91qr7va2XjT03I3YHkQtD0M2+91Wa67GlbbKmZri6dqCufqtas204N+96u52Jer0z/fnP+8PfV+LfF2beTj9sQf7i59uT7zdj3xYjp6N+650m1d9TUtOKonG0vnzBWr7XVXfJY7EefDfv/jePjJUPfjweCTweCzocCL4a69kcDL0cDhmP/VROBwJng8F343H303F90b9j7qc8xaKmvFxAIqNI+enstC5vNwZ9RYtWfUzGoZsP0syfKVZXfpFV16ecCQ5ddn+Q3y36gJSejzsvA7NVJ6MgFymQC5TEpPpsJTuKiUfCaiXs6w5nE9ReKhGvWipWzbYXzQ1bgfa9/vs+/1tj/vsT/tsT2J2h5FgHgctj8K2x+FgB9PIx07Pc7dmGev3/Oiz/U06rjna922VS81lM3XaZeb9JvtdY/6va9mBz5vz3y9NvdxY+LN0vDrxaGT9fFf7yz9dGPu4+b4q4WBp2PBO/3Oq2HLtrt+o02/aS5bb9FvtFVe6ai97W190O14GvPuDoV2h0P7I+GXo+HD8dDridCbydCbme53i9HjufCb2e7X0+HdQfftYOtgVX45G1nCQhSwEWo2Op+HKxaSDTJmjZzfoBK3qoGJ2S5ttl8POGcjxtyoKSdiyglWqoB1TUTGCEno86WNhYaedx5EaBIBchkPvkSEJlFgySxEkpwENkrJzUqWQyOMGXNmmkpWLfqb7poXUetu1LrbY9/r7diNOV70d74YcO0OuA/6vQf9vpcDvleD/sNB/2E8cDzUdRQP7PW5n0ccD32t12zVqw1lS3Xa1Sb9Vnvtgz73wfTA6cb0l+2Zk7Xxt8sj71dHTzcmvlyZ/rw99Wlj/P3qyNHCwN5UdCcReNbf+bSr5bGn/m5nzc0O001H7W1X412/5VGk8+Vo98vR7ldjkeOJyNup7nfT3e9mut/PR09W+o5nw8dToVdjgWexzm1XXagkU8+EGwS4Ej62gIfT8HDFApJByqjO5jeqxDZNZkdhhlubHTAouitzewGXuqa/viBak39BQET9XhDOu7bztuMcGR58iQC5TE5PpsMuizDJpQJ8bRbdksvtNshHazWzTUWbtvKH/qZHgZanobadbtvzHseLftfuoHc/7n812HUYDx4Ph18Ph18PhV4PBY/jXYcDvueR9qdB631301WLcaVeu1xbvN5UdsVe8yDq2p/o/7g29WVr9nR96uPa5Jet6Z+uzn3Zmvpxe/qn7ekft6dON8bfLQ8dz/a+Gg28iFh3w207obanobbHQeujkO1huONJjwu4Zh2LHE5EXk9F3k1H3s9GPsxFPiz2fFyJHc8Ap+G7Q+6H3dZVuzFQIK0W4quBJ4jEYj5Bw8UV8Yl6YNPOa1KJ24vkncVZbm22v0zeXZHTa1IP1GkGGwuBLpdPQAqIqPP0PN+Qnm8M8OBLuLSLuLSLv8kNeokNu1jAxhil1BYlJ6DLGqzKG6vJX2rR3uisvu2sve9tfNzV+izS/iLm2ov7DoYCL+PBw6HQ6+Hu1yPdb4bDR4Ndr/p9+z2uJ4G2h96WO476K60V6/Xa9fribbP+Rmfdk5jv1VT80/rs1+2FL5szXzZnfrm2+Odby3+8vvCnm0t/ubX0p5uLv1yd+bSaeDsfO54IH8a9h3HPq7j3YNC3O+DbGfA+iXmeDfheAtS6Dye6XwNCC7+fDX+YC31YjHxY6j2aDh5NBJ/1O24HWhbaDKGSTHsur0nOMmZQtUJSAQ9XxCOWiWmmTG6LSuIsUTlLst3FWT5tZrBMETXm9NWoBxoKgX0oD4/gE5B8AvK80QVuW2AgEjQJn3YJm/oDNvUHXNpFIuQyCXKRBv4ul4EyiCgNcra3JLOvIme4Mme2vmDbVnGtveq2s/6hv/VZpONFzHMQ73o5HDqjFn4zEnmTiJxTO4h5XkQcD70tDzzNdzvqrrVWbjXptpvLbtqM93zmg0Tk/cLYz9uLv1xd+nFz7sfNmT9cXfzLzZU/31z+5zurf7239p/urf755vzXrfEPi/F3s7F3M31vJnsOxyL7ifDucOj5UPD5cPDFSGh/rPtgDHCEHE+G3k4H3810vZ/t+jAXejfffTwVPJroehy1XXfXz5nLestzggalOYdXnc3UiSkANS6hTHRGLUfiLs1xl8jdRVnuYhkAziCPGFV9dZq4WXeBQwCo8fBILhbOQkEZCDA1HUQ+O1871xoOfAkPuUwAXySnfSunInRianUGo0Mt6tEphgyq6er8rTbDDbvxnqv+caB1J9K+1+95NRw4SgRfxQNHQ11vRsJvE91vR0JHg/79XtdO2P7A23LX2XDDXn3FXL7VrL9urXzgaXrR63w3F/+yMf3HGyt/vLH80/b8j5szP12Z+8P1xV+vL/zp1vI/31v75/vrf76z/Mv12c8bE8C91ApgAXkzO3A01Xc41Xs41Xc8Ezue7jsYj7wc7341AZxovp4Kvp3uejvT9X4m+H46eDzmPx4LPAi3rdurplv0sSpNb22RtVBmkrNKBKQCHr6ETywTUasy2E05os7ibFdJtkeb5S3N9JVmBvTZ4UplT61mwFx6Afg6AQHFw6F4GAQHBWPCIVQIiAoBkcHAOTgenIQFJ2HSLmPAP5CgP0hIkDIpvUJErheTgwXSuE4+aVBtN+vu2queeptehCwvIva9vs6XQ96jRODVoPvVgOso7nkz4n+bCB4Oena67Q/95nuepitW40pj6Uq9dr1Jf7Ojdq+n82Qq9tPG1J9uLv31/uZf72/8+dbKH67N/3xl9uvV2Z+uzf18Y+HX28t/vLvyhzvLP99c+HJ15nRr8uMacKd3sjwCGGfm+o9n+o6meo6mooBxZqbnzUz09TRws/d6OvR6KvRuMvg24T3ocxz0O+8GzHNmw4TZ0FtdFK0r7dTnlkloOQxUAY9QJqboJVRjBqNByTPn8BzFMn+5MmTMCVYog5XKsCk3UqeJ1hedUcOjeDgkDw3nINNZcAgNAqL9a2poMECNCP1eSATrJPRyEaVOTPbniwZKMsd12Wu1hTdaDQ87a594m54GzM+6rbsxx/6g8yDm2O/reNnfeRR3Hw95D2KdT0Ntd90N1+ym1SbdapNuu63yisV0o73uecTxcab/1ytz/+nu+n9+fPU/P7n213sbf7yx+NOVmR+3p4FqcHX2pxsLv9xe+vn20k83F368Pvf5ysynzYlP6+Onq6MflofPfAu/mWXezvUCAdyHnlsHw2+mw6/HAntR2/NQ26Mu801v05aneaSxrNtUFKgqqlMJ81gYOQVWwMOXSSilQpJeTK7NZrWqBe2F4vOZMl1GVbAqJ2TKDVWrI/XFADUOkJ5I7v8XNQLkex4+VSumVYiptWKKO5ffUygZ1mYsVKm3GrW3bMZ7ztr77oaHgeanEctOb/vzqO15BOhIgLPZfueLqP2Br+lGR/Vma/l6i/6a3fTAZ37oa3voa3vV7/txYfhPV+b+97sb/8/T6//l6fV/ubfxy9W5z+sTpytjp2vjnzYnfzzr436+Pv/LjYWfbyz8dG3u6/b0162pL4DpaPRkZej9EuBbeDcPmBbez/e9nwc8hGeGy/DrqdDRqH+3x/4iarvjb9py1c/bqux5wvpsdqWMkc/GZpGgWSRoPhenk1J1UkqZiGjMoFk1Ims+AM6ly+wyqsLVecGqHGBsSV3RBebZSESAGgrGRkCZMPC/qTU0+Acc+Ds2BlQsPpu6ISK3y9nBXH5/oXS2Ime9ruh6W/mdDtMdZ+09X+OjUOvTqPVJuPVJyPws3PYiatvtbX8abrvjrtu2Vqw06a7aqh74Wp6FbTvhjr1e1/uxyE9LI3/emv0/7qz918fX/svjq3+9vfrz5vTpUuLDwvDHpcTp6tjn9YkvW1Nfr8z8fG3ul+vzQFyd/fnK9NetyS8b48C938rQydLgh8WBD4v9HwBwZ5fH00BNOJroOkz4XvS27/S23wm2rnbWugulGmKaEp8qQV4WY0EZJGg2FZ7LxuhkVJOSa8xiGDMo1gJRay63LY/nKJYEKpXh6ryAERi+FK4tPKOGQ3KxwKL271K7iEv7noFMKhSRKzMYJhG5VUZzZbOi+cJJg2q5tuBKq/5me9Wtzpo7noYHXa2Pu4EN1sOu5sch87OIdSdqexxqveWq3WjTL9QV33LWPw5a7vvMDwOWV4P+0+nYz0sj/7w993/eXvuvD7f/7wdbf72x/IeNqS/Lo6eLI6dLIx+XR05XEp9WR7+sT/y0NfXL1dk/XJv75drsz1envm5PfNkc+7yW+Lg8dLI0cPIbsr63s5HXU+Hj8a7DUcBHtDvofBBuvd/ddqfbMmur1DHgkvRvMzHJHOh3XMSlLBpCwUTJGQitlNJYIGlSC2vkDItGaM7hmHM49gKhR58VqFT6K4H5XsHqggsMDIyNQ3DOSgEbAWWkp/3bWkv7AZv6HQ12sUBAMmYyq0TkBjHJLqMG83gJnXy2Sr3erL1iKb9mr7rRWXPH1/QgaH4UNP+NmmUnansUNN901qyby2arC244au+4GzfbKretpmfdHe/Ho18Xhv6yOfMv1xb/r1ur/3Jj6S+bM7+sTvy8MvZ1ZezL8uinpZGPi8Mni8OflhJf1sa+bk7+tD31y9Wpn69Mft2a+Lw++ml1+ExoQHqeWxReT4UOmvtb7gAAIABJREFUxwMvR7x7Q64Xg51PY8DF4O1uy62ILVZTkAn7TgD9JosIFqCT+JiUbDoym47IpKQXCPD1GnFbsawln2/O455Ts+TzHSUSd1mmv0IRMKq6TJr/H9QwKd+SoT/k80mVWexKEalGiG8Vk7wqdn+RdNygWKgrWGsu3TAbtqzGawC4xseh1kfBlsch807U+rzHfq61lebSgSLZlFE9ZVQPFGX0F2Ys1pc+6rIeDwe/zg79sjD6h6Wxr/Mjn6YGTqcGPs/Gvy4lfl4d/3EpcbowdDIX/zgXP10c/rwy+uP6+M/bkz9tTfy4MfZpdeTj8uCHxf6ztaz3zUz38VToeLzrzJzQCZhM+2wPotYbQfP1sGXd32RWsnlp/8CFfiMlpImJYDEJKiFDxcQ0CRGcw0JWyJmWkoz20swmFes8Q9vyeJZ8nqNE4iuXB015gap8gBoLC2ejYeyzAvrfaQ0HTsKAL6PBl9BpP2BSviWCv8/h4MuzWOUiUpUA1ywmdsoZ4Xz+oFY2UZkzW6NZqC9eaS7bsBpvuOoehcyPQuYn3W07Pbbnve1Puy33/I0rLaUuKcUhIlo56CYarJkOd8vo4xXqm52Nh/2B1/Hg8WDwcCDwqt9/0Oc7jHd9nOr/eWXsy+LI6dzgh5n+DzMDH+fPwY38uDF2ZoQZOV0ZOqf2YaHv/VzvG2AtCx6N+Q+G3S8GHM/67I97LHe7Wzf8jWuBlsn2Kg0VwgH/Rz7yopiYJiZBJJR0Pj6Vj0sRk9KUDHiJmNCo5tlKZE0qVlsez5ovsKh5rXkce6HQa8gOVauD1ZoLdAyMgU5nIqEsOIQFhzBhYDo09ffOA6CWdhmVdkYN9B0O9I2UDCsFXolSjEJCk5RszaB4lKxwvqBfmzmsV4xV5s7UFq6YDVcc1feDLY+6W5/2WHf67M9jHTt97U97bNddtd5shh75vfKH/yk/5T+UQL8xoC7ZBYQRnXKr1Xjb0XCro/5me90Vi2m+pni+TnvPa347Fnk32XMyE/s4N/Bx/iwWBj8uxj+tDp+uxH+L5cHT5YHT5f6Pi33vprvfToWPJ84MzYOdO332Jz3Wu5G27VDrarA11qyTIL7nQP9JRgKLiGkcTDIPB+LjU0XEtAwKNIeFKBJgDVJSdTbNnMe15gtsGqE1n9+m5toLha6yzK6qXKDzoGNgTHQ6C5XORkDZCIDdOTUKBPAw/D01XOoP+LRv+bjUfD6hXEqrkpDrJMQWKakjm+7P4/YWS+O67ERFznRt4XKL4UqH6W6g6UGo5UnUck7teazjWa/9XldLolxVRwHnJf3P+Sn/S37K/6pO/g9VuBS3lNaTK5ow5E1V5A8WZjqFZBM2pY4I7s4VXO+s3x/0/bg88uvW5NfVxOnC4Keloc8rI6cAqcGPy4MflwbOAkB2stD7djr85m9a2x3oeAb4vttud7dthtvmfc31Ko4Y+QMb9i0XncRBJ3GwKVx8qoCQJiaBs6jQPDZKK8RXZFBqFYxWNc+mEf4raroMf6XqN60xMTA2GsZBwc6bDzo0lQ5NpUAAixEekoxJO8/Qi3jwRULad3TYxWwawpDBMGXQTCJ8gxjfJiU5FYyQRtinzRgyqCaqC5aayzbtxpueujv+hodh85ncOp7HgHjaY7/urIsVy8xsZDURVI6+XAL9phjyT5XopA4ewZ/J6lNLhkvkg0WZXQpul5Ib1yk2bFX7cf+vm5N/uTb7ZWXk3Wzs42L8y9rIyWL/eQA+mgXghPZkrufDbPTNVPB4InCY8O7Hnc9jtqc9bQ+7zbe6WzfCloG28mx8shh9iYP4gQ77no64xMWn8YhpQiJYSoYo6PBCLlYvIVVn0xtVLEu+4HyukVUjaFNzbQUCZ6nMW67wVeaerWsYOAcD52EQAiywQ2Ckp9GhqdQzagRIMhacdLY3uEgAXyKAvyeAvhHiUnVSmimTbhTia4S4RiHOlknx5XLCheKYNitRkTdbV7LaatjqqLzmNN32NzwE8tT2rK/9LEntD4Jt2x3V48a8iEYUzBV4s1mNdLgeebGeDGljocJK3kx14ZbNtN1efaWj5paneafP+WEu9uv21C9bkycLg6+nez4s9H9aiZ+1ssD7l/dzPe/nou9mI+9nIu+mu48nAkdj/pfD7r0Bx06v5XHEfD/cfLO7dbmrxVqcwYX+kwSXwkMlMeEXWegUHgEsIEHEZGgWFZbHQpUKCFWZ1EYVp03NtxeIOookHUUSm0bYpuZaNfxOrRSYL3pOjY2Fc7FIAQ4lwqMFWCQjPY2RnkaFppKhIAI0BQdJxkAuY8CXAK2Bv8cl/yMLflHDxVXKqEYxoVqIrRVgWmVkl5IZUPMjBZIBnXzcqJmtK15s0a5ay644q275G4AXJVEr4PWPWO8EWm75mrYd1auW8pW2ivkmXbxMGVBxA0p2rFi21mp4FLY+7+vcG3S/mQifzMdOFwe+rA3/tDX2dXP00yrQlH1YAlrZN2dvrd7MdL+ZARayt1PhN1NBIDdHfYcJz37c8SJmexZtfRxuvh9svBZsHrGUF3ExQsRFCR4kwKbwsCABEcrDg8XkdCklXUFHFnCwBjGlXgGo7Hy+XWeJ7HwA4Dk1oP/QZ/uNeb91Hjw8SkTASIhYER7NhIGBSpoO+AD/Rg2opFhgXfuBAPqGDv0um5JeJiKaZORqMSC31gyyQ8Hw5HACeYJogXSwVDlakTtRnTvbWHAO7ra/8X7I/LC77VHE+jhqv+1vvultvO1vvu5u3Gyv3myvXrMaE+WqqWrNTU/DQdx7NBp8N9PzdW3k562xH9dHPq8Nf14b/ro1+vOV8R+3Rk9WBt/M9xxPh4AOY+rMszURfD0BJObxOJCbgNAGO3b6rE8j5ofBxruB+lWnqb1QIkVflmFBEnyaCJ8mIkJEpHQuLk1ChmVS4TlMdDEfb8ygteRyOwrF5xPGzv+1F4gs+UDz0VEMTO/7TWscHJJPQIuJWBkZLyZgmDAwUEnT0yjpqUQoCAdJxgKr2yVU8ne41O/J4B+o4O8E6KQiPq46i14tIdaKCK0ZlA4506Vke5ScrlxBT0HGQGlW3JA1alLNNRWu2wzXXLW3/U33gi0Puy3P+jofdtvuB9vuBMw33E3X3Y2PIx3PY+4Ne9Vya/ndrtbjMUBiXzdG/3R95terUz9vj39ZHzldjX9aH/68OXKyMfRmqe9wJnw4FTyaPIuJruPxruNxIDEPx3wvh90HQ67dgfZnvZbH3S33uxpu++umWksL6TAB/KIEAxLhUsVEiIgI5ePAXAxIRoFn0RB5LEypgFidxbCoBW5thrcs21Wa4dFlubQZ7YW/UWsvApzgLoPyAguP4BFQYjJORsFLSTghFnVeSRnpYCrkzEAJTsGBk7Gpl9HJPxBAFyngyyTQdwzwdzk0ZJWMXiuj1UspLZl0WxarI5vVmc32KnkhtThaJAUeIpfLJ2rU883aVWvFtqPmpqfpbqD1Ycj+ONz+MGi7422767U+i7pfJ3o+TPbv9QeeRj1HieinhZEfV0Z/2Zr6y42FP92Y++ONma9Xxj+ux9+uxl4v9xwuRg7mgnuTgf1x/8E4YBE8BHgFjkf9Rwnv4bDnYNC5N9D5rNf+uNd2P2K5GWpZd9f49dlC+EU+MpmHSuZjU0UEiAAH5qJSuChQBgmWTYWrmWidkFQnZ9sLJJ5SYHSQryzTV5bpKZV1FImsGr61QGAvlrbrsuxligsCKkZCx2ezyHImWYRDs2EQEQbJR8JZ6VBqWiopNYUISiakpuBTk/GgJHJaCik1CXfpG8IP/8iDJBUy8XWZvKYsbpOM1SJltErp7RlMt4IbyBN15YsC+fzuYklfWVa/Xj4I1NbClVbjDWfzfZ/9nsd612W957Y98bsOekLvhwc+TSY+T0+cTo2dzox9WZj8ZX3m1+25P16Z/+XKzI9b45+3Ex+34m/XY0cr3fsLXS9mPc8m3E+HXc9HPPuj3sNR//Fo4HjYexR3vxpw7vZ2PO/reBCx3ettv93n2Oy2hGs0eQwEDwXioMFnkcZFp3HRID4KJECDpLi0LAI4j4YsF1PNeaJOrdxdpvSWZQXLswJ6qadU0lks6igWt2tlwKCsMkVbmeqCkIbL5lCyWRQpCStAI/hImBiNFCAAarS0VDIohZSaQkpNJaaCiKnJVEgaFZxKSrlIuvQdB5KcR8GWixh1Gdx6KatRwjRL6bYMVqec480V+NVCby7Pm8t1KljtmbSODIY/RzBQqpowFs1UlS43GNebqhery6cNpYumitu2tv1I6HRs9CgW24t2Hw70fpwe/WV1+pf16S8royeLAx+WY+9XYm9Xeo4WQ3tz3p0p19Oxzicjf0/N/zu1vbN7sp2492bUfrWnY9haoeXjRJhkDjqNhYayMRAOGsJFp/HQaQIUSIhKkWJT5URoIQtjygTm9DpLFa5Subs0I1wpDxpkPp3UWSLuKJHYtTJ7aZZFp2zVqS5IWUSVgJnFpPCxSC4iXYBGiFAIPgIGUAOnkVNB5DQQGZxKgqQSwSAqDMyAgangZAroIhuanIWDFTLxVWJmjZheL6I3ialtMoY9m9Wp5Hpy+D61wJPDtWdQm7gYEyW9kgiuJqWb8FA9LKkGm95AQFSjIAZwcjkkpQGHdHJYfQpFWCYLyqTx/NzVetNjv+MoHn430fthtu/dTPfxdOhgwvci0fl02P4obn00aP/XWvtv1Hb7Op72djyOOe/1O5f9zS15XCH8Gy7iIgedyjpDxkGDz6ilnlFLlmJSVWSYTkBqzBF2auWeMpWzJNNVIo1UqcIV2X59pksr7SiRnlHLtuiU5lLVhWw+XSVgZtBJfCySg0znIWECFJyLSGdCIVRwKgUMokBSKUBlSCNBQTQ4mImAMGAgGiSJlZ4kRoFUJLheQK0QkKuF1HoxpVlGb82kW7MYDgXbq+YH8oWBfKFLybGIyCZKein8kgb0T7kX/zf1pX8oTPqnkpTvdaCLJcnfF3z/j5pv/qH4229Lvv2u5LvvDMmX6pDQdgaxS8bpz8+YNRUu1BeumEs37YarLuMNX/XNQM3d7uadIefzEfffMtR/NOI9jLtfDjpf9HU8jNpvha13+l09tQVKfJIA9o0Q0No5NTAHSM80Hhp0Ti0Tl5ZHR1ZK6ZaCDF95nq88t7M4w1ks6a3Ji1QpAuXZbp0MGAmozbSVyn+jphRxsrl0CZUgImB4aDgbDuEhYRw4lHl2ZESFgGjQVBocTIWDybBUKjyNDk9jwEGM9GQ2LEmISMnCQYo4+FIuoYIPzPaol1IaZZTmDEprJq1TxfZrhFFd1kBFTkyv6lKL7WJqEwNdQ0yvI8HamAR/Jn9Ao4gXKHuUsqCYH2Czg1xuWMDvFvK7+Gwng9iCS69FJtegk2qxlxtIIBsP0Z3LnKpWXe0svw9Q63wx7DpIeA/HfMdj/sMR76sh98uzZ1KP+jpuR2xT1kqjiMAH/0cR4oe/o5Z2Ri31jFqKGJ2iIEILWNjqLHZ7ibzLqAlUqp0lmc5iaX+9pqc6J1gp9+gzO7UZ7WfU2nSKZp3qglLMzWDTJDSimIzjYxAsGJiLSGfDIL8dfkBBdFgaHQmhoyAUOOA8JUOTKOmXGbAkDjJZiE7NwEPyGegiFqaMhzMKSTViUq2EVCchNUrJHUq2K5cbLJT06RWDFXl9OmWXWtwuppkIkEYa0iVmxItV601V91yWpwHHbpf7TXfofbT7U3/fTyODnwZ7n7tsyxXFQ3mSeL54QC3oVwviRaIJQ9ZSg+aKXX/HX/c8fk7Nc0YN6GxfDrtfjngOEr6HfR1XAi0WFScD/p0Y/i0P+i0XcYmDTmVjAKGdUQPxUCABCkjPPDpKyyPUKbgdpQC1oDHfrct2l2bEG4v6avPCVSqvQd6pywRKQam8TadqLlVdkIu4mVymjEEVkfDnWuPAoawzanQoiJaewkCkMVAQJgZCRaYSYZfx4O+J4O/psMs8NEiMA2cSoTlUuIaB1HKx5UJilZhoEhNMIny9hOTI5TmUHJeK588Xh4syuvIlzmy2mUcwESE1REgzDemWMBOlOVut1Y989oOw93V38F0k9KE3ctIfOe72P7A1zes1I/myab1qta7opr3qcaD5RdTyosfytLvlSaR1N965N+x8mfAcjnmOxryvEu6DYffukOtJv+NqoLnXmKulp4uh34gQ3/PSv+ciLnHRoL8hSz0roCkCVLIMl1bEwemF5Holr0Ob3WXMD1Xle/UKn14+1Kztry/oNuX5yhXOsux2Xba1VN5aqmrSKi/IxTwZhyFjUHk4NBsJYyPS2WfnRYz0VDoMRIOBaIBdEsxAg2lIECn9Ih78LRH8LR1+kYdJEROAx/AKanoeHVHIRul4uHIh3igimESEeinZrmTb5SwHMHuB71OL3CqeXUZr5RPMHFwtJb0Sk1KNS7OxcWGlYESbM1tRvFFdvllTsVlbsVqlmy3TjBbKB/IkicKsq20Vtx01j/zNLyLW/b72g4GOl4OOl0Od+0POlwnXGbIzaqOe3SHn45j9qr8p0VBcLcRpSKlKPEgI+06MuizEgPhYMBfQWioHaNNS+OgUMRqURYSU8omVMnpjDr+zJDtoVAeNap9e0VWujDeX9DcURmvyu4y5nnKVQ6+yl6ladTlNpTkXinIUXDKBT8QxEOkMGJQJBy5cziKVAU+lw1NpCBAVAaIiU2jIZCr8EiX9ByrsBybiEg+dLManZRIhCgpURYHmUqEaOqyUg6oQEWpl1IYMar2Y2CKj2LKZHQqOU8ntlLM7spg2CbWRhawhQ8rRl3Ww78oRF2vwqWY6ys4huPhUr5DhF7N8YqZXwgxmcfrU4snyvLvuhp2I7WjI83oUWPJfDbkOR1xHo57DhPto1HM85jkedx+Oe/dHAGQ3go2jTYXNMlIBMaWACtHQEVm4VDE6WUqASMlwAT6diwaxEUkcZJIIC8okQHNoiDIhuU7JM6tFzlJ5qCo/UJHjK8sOVeb01RXE6gv76ot66otCNYXeKk1nhdqizzMb8i/UVei5JAILh2Gi4Ex4Oj39DBkczICnMhD/ChkDmcRAXGYiLrGRl/mYFCkBLKfAVDS4kgxVkaG5FEg+Nb2EhdDzsVViUq2YXM3HNYiIrTKqLZvpUHA6lRyngt2ZzbRLKa08bB0FWolNKkdcLEdeNKIvV6GTKpFJtXiImY62cwkuKT2cIxguVSw1aJ9G7LsDncej/ndToXfTwBb99bj/eMx7mHDvDtj34vajMdf+SOf9HvPNUOOqy9ipYZezYQXk1FIOWsvDq6iITCI0iwKXkOBCPJSHBnGAHUKSBJeWTUpXM9CVUnqjimfOFbQXyfzlOX6D0q+XR6rU/Q1F/Y3Axz+iDSWh2mJvVaGjQmMtz7caSy40Giu4ZCITi6bC0hnwdBYCdnaoC2Yi0hgIYFoADQmioVLoqGQm4jILcYmDShJgQVIiREGF5zLRaiZKRYbmkKA5JHAeGVJIS9eykeU8rJGPq+Jg6vj4JgnJks3oUHJceXyvmu/L43tzuC450yEj24S4Ni7azEa0MuGtbKRVgHdlMsJ5olgJcNw031i63VFzr8u8Nwi8+3814n0zGXw/F3k723007t8fcuz22/b6rS/6Lc/7LTsD1ruRxkVbacQgq5diyljpWhbMICKW8AgKMkyKg2SQ4BISTIiH8FAgLlDHUmQEiJICL2Rja7LZzbmCZhWvTS10l/7m8eut1gw0lgw0lfY36XobS0N1Wm91UUelxlpR0F6tu2AqK+WQiAwMmggBM5EwAQ4NUEOkMc8GLNBRADIqKoWOvMyE/cBBXBKgk6X4VDklPZeB0rAxBSx0HhWWR07PJYHVJLCGAimmwXRMZDkbXcXF1PLxzRKyNZvpzOX7CsShYmm4WBrUCMOFot4S2YAua9ggT1QoxiqUY8ac6brCxZaydZtxq6PmqrPulq/pYbf1eX/n+b3c7qDz1ajvzXTo9WTwYNi102fZ6THv9LQ8i7Y86Wl5EGlcc+qjBkmbnNiYgasSY8tFuDIRUc1AijEgHiJZiAVLiQA1PjqVh0oRY1OzSOl5dGQJDw8MLc0TNirZZhW3s0jiKc0MlMn7agr6G0uA7ws1l/U1l3U3lPlrS51Vxe1VJe3VZRcajBVMPI6KQtCQcB4eIyBgWAgoCwlmIdMYqDQGCkRHg2joFCYqCUCGSpLiQHIyJJeO0LDQRRxsERtTyEAU0uAaSrqGBCkgQYspMC0NoWciq/m4WiGhWUI5pxYolEZKM3vKsqJaWb9BPlajnjdrN+wV11w1t7z1d/xNd7vMjyK2Z32OZ32OJz3tT3rad2KO/SH364ngqwQwLeFw1PcaON7wH8Sdz/usz6MtDwM19wLVt/1Vy5biHr2oI5dqUZHNKkptNrlCSizh4RRkqBCVzEeBRDiIhJh+To2PBknxYDkFrmFhdEJSUy4wRbJRwW5Wsh2FYleJzK/Lip598KWvoSTWpIu16HuaykONBn+93lWn76g1XDDX11IwKDICzsZjhSQcGw1nIQFqTFQaA51GR4PomBQaJpmNSZLi07JJkFwqTMNCF3NxWh6hlEfQ8fBlXJyWhS6mIYoosCJSejEZpqXCyxgIEw9fw8fVC4ktMqpdwXKrhaFiaY8u62xmYt50Y+GKVX/VWX0n0PgwbH4ctTzt6dgbdL9K+A8TgYNh737c/XIYGJf1YTrybjL8Zjz4eixwlPAdDnteDjp3+6yPuuoe+E1X20sna7KjJVxvPs2ZT+/QMFtzaXUKarmEUMjBKKiwTAJURoBJiXAJIV2IAwswqUIsSEaAqOjIIi5OL6Y05Qpa88XNSk6LCqDmLJa4S2ShSlXEpI7UFvQ2avta9LFWY09rVbe5qstc422puVBZWgp8LxqNomOQTDScjoCwkOksFOR8agwDk8rApDAwKXwcKJeBKmRjSvnEcjGlUkqrlFArReRKIalSSCrn4sqYqFIaooQC01LgpWfUKtmYSjbKyEHX8HHNUrJNznTl8cIl0tEazXhdwUxT0VKbbstRectX9yDU8jhiedrTvj/oPh4LHI8Fzhp9z9Gw9/Vo4N148P1E6N148GjYu9fneN5j3+21v+hpu+Ou2LYVT1TJujW0LjU1WMzxl/AcBSyrmtmoYlTISCV8vJqNVdJRMiJMhIOKz6lhQUJcaiYJmsNAlfCAa6OmHH5rvticw23L5TqLJc4isbNI7Ndnd1WoQiZ1tKEkZjYMWEz9tro+W0NPe0u0o/WCSiqmYlAMHIaQDsZDQBQ4hIFKZ5694mOi0tiYNBYaxMWAsiiwMiGlEjCvMeuzWA1ZrIZMRr2UUicm1YqI1QJ8JRdjYCLL6Agd7SwYCD0ToWfADQx4JRtVy8e1yCh2OdObLxiuUidM6om6gvkWIENveuoeBM1PotYX/Q5gyZ8Ivp0MvR3vej3qfz0aOE74D4c8xyO+oxHvXszxJNR6z994399wx1uz3JI/VCbqzqdHC9kxnai3VBgqFviKBJ5C4DMTNVk0nYik4RGUDLQID+GiUgQ4iAAHEeLAYjwkiwRTMzGlAnKVlNGsFFjUYqtaaFPzOwpEjkKRs1ji1WcFTTmhGnW0sWSgzRi31Q22Nw06WuPujrjPdUHCpLMJODoOTUJC8XAwCQmhoqFMHAx4C4RMFRHgIkJ6JgVZJqI1yXlmBa9NybequFYFuy2L0ZpBbpESmsT4RhGuTogz8TGVXHQ5G1XGRJYyEKU0WCkNpqPDDUxEFRfTICK2ZVDb5cxggThSkhE3qKaAm1P9VYfpjrvhflfz+R3g3mDny2H3qxHPYcL7asRzds/U/qK/43ms/WkUuIfe7qhcbikZNWa7FcRAHq2nhDeolw4ZsuL6rP7SrN7S7GipwqkW1cnopTx8HhubTUeISRDu/9vUeTenla35Wl9hamqm+qT2OQ6yco6ghCREzjmDyDmKnDMIECIIBAhJKCBZOVrBlqOc7XFPT8/MPfd+mFvIZ/requePXbX/4ql3rb3Ya6/313pvsOHnkdoxusfQzkZUVzNpoJ0L6pdBhrXIMT0aZCFOzeBAKuRgLS2ADffwUTE1JawgxzTMrFmatarnLdqs07IY8OUCwbrhrg5gRyugs62vtbGr6XFX06OO+vu9zY/6G2vHHye6mrAjvfRJoAA6rEWPz2BAZhzIghuzYobNqEETvNcA6dJMtikn2mSgVtFYM3+4mQtsYgEamYM1d4y+ekZfPau/njvYIBxuUdwt32xooBs3GqaAUxxUUUxcUzG39dxdM//EJT33KX5sPN/MztSIGq7Duqc+5VOf8tynPHKKtwzsogQ3xwQHSUMubK+fDJhljqe40CwPmeYgkkxEnIEI0+AWzJh4vJcObMUONEP7Ho933R9quwdoujfa9miqsxHe1YjpbqEOdghAAwrIsBYxqkOOzmDHzYRaU3obfapmbRoVVhCjKsqcnrNgkxfcxiW/cyUSXI3HlqKxuomBgYmB/rH+vsHO9u7mxvbHD1vu/7W78WHtk5mWR9D+TiEBqWORlQSYkQCxEqbsJLCTNOkkjNtxwzb0oBnRq5tq14DblRPt0rudl+nhFu5QDTagiTXQwOx/xOx7WBungw0iYJNstFUP7jJBe51oQIAISjCgGR56UYQry0ibeuaWkbNr5R84REcuyZFLcugUHzhEezbBEzNvXccoSvEpLixCGfNiB92YvgAZGGWMzvMgOQFyUYjN8TFpDnqOhQpSYEbUsGCsizLQhO5rgPTWT3TdH23763DLXyc6HsG6G1E9TfjeFjqwUzQBUEFHNLARHWJEjxq1U6YCdzk3TjbMM40KSPFxLTNlEuQdytWwYzcdP1zM7uZzm+lMHXwUhABNQEdBEwDgUE9vX1tr68MH3Y2Phztrf7Mwo0CrlB+d0VjYFBMRbidBnWSImzzlJk068aMODMCK6jfCugzQTg2kUwnulE4Q+42yAAAWeElEQVR0iEBtgrE2/mgbb6SVA2xiDdQz+h/eiXs0PVAvBDTIR5pVY62GyQ4rvM+DAYZIY7N3rU5zQnRBgluSE1fV1IqGVtHQflys6xhLcmKKCwuTR73YQS920IcDBIjAKAM0x53MCZFFCbYkIRSE+CwPl2SjfaQpPRzAG24n9NYju+sh3Q8nux6A2mvTGaSrHt3bhO9rJg20cka6ZGCgFj6qgw/rUcNG7FiAi06rmbMSooeD8Akwfgk+YWBnrZJFl2Yj7j0r567Wlk9Xy3uFYh0egkSOQyaBo8O9g30d3d0t7d3NrQNt7eN9/ZP9/VQoNGo2FYJ+n2TaQkI4SVAPBeqlQLzkSTdh1IkF2NH9FmSvGdFjgPdooLU3a1Jwl3iiUzTRIQC1TY+2sIENrMF61sAjzsCj6cHHfMBjIeCxZKhBOdqsm2g3QbvsyD4XesCHA0apoBh9IsmGpHnwLB+Z5SMz04jMNGJBgJrnQKNUUIAwVPNFGIpQRmfpoDkuOC2AFiSYspxQlpGKYsICH59goz3ESQ2knzXYjO18AOt4AOl6AO56MNl5H9LxANXTQOhvJg220ABt06BuJWzIgB6bQY2ZsCA3HZ5WMZcsoqSC5p9GB8U4v4SQ0HOyNmnRo99M+GrWNpbP11YOl5bqyAgCdAQC7AL0tvV2t3R3t3UP9QFH+wBTwDHECGiaQJr3+CqJxKxWYaei3DSYnw4L0mFBGthPBnmJw24cwIEZsKMHzMh+A7xXC+1VQnpk4G4JuOuHON5IMwfYwAU8ngY2ioabREONQkC9aKhePtKoHmvWTbYapzrMsC4bvMeF6vNiB4PE4QhlbJY2Pksbj1JBEcpYmDwaoYz9IEoF/bgVY4ynau0X4UUptqwglmWkRTE+M42Ls5BO/IQS3Evva0C23YO0/W2q4z64q+YO0fUI19dIHmyhAVtZwx3CiV4NYtiEH7cSJx0UyJyUsu6sBQCkVYyICB+RkUJySkzLTVukRa9hPebZy80dl3MnK8X94mIdBUmZGoYMdgEBvcOjgPHxYfAUCAoeBsNHIdgJuIzBy/ij68lMyjTjYeGDLHSEg57loGdZ8ChjKkwdD5BG3dhBJ3bQhh4wIfv18D41rE8J6ZVP9YgnOoWgdsFoC3+kWTDSLBptkYFaZWMtIuBj8fBj+UiDCtSkmWjRg9tmIB0mSIcZ0mGHd7vR/T4cwI8HBghDfjzwR3EFicOhO3e/W0swJzLT0JwQUZLhynLCkoyUE+HmedgoC2HHg2ST3ZSeenjzX8AtP4M7/gbpegjveojprif1N9IArcyhds5opxjcp0WNWGqB8DAfG1kyCY9i1qpXnVEz41JyTEGPqlgRNTdplBQ8MysR51rcX03H9gqZnXymbpomRk0RRgbAo4NT4DEkHIxBwwgIMAo1iSLC8HKWaN4TWUvm8g5HiE+LcnBxHm6ej5/jouNs2CwDHKaAvHigBw904QA2DMCEHNTdiVNAemWTXdKJTvF4uwjUJgG1SsfbFBPtiok26WijbKzpH8qm2magHSZYpxnWZYF12eHdLnR/bebCA2vgAP7aeKyVW+iOMGUsShuPMyfnOVM5ASIvQhal2CUZviQjLojxyWlMhAW3YEb5I634jr9Bm/4Mbv4Z0nEf3v0I2VNP7G+k9DXSBlvYIx3ToC4pdFCHG7NRoW4WKiwkrDkVZ/O1FLqcnjsnp8/VVrbCkIoX0fDTdk0paCuHHSsx31Ym8SSfqtPKLGyqCAOnwqaIaASVgGOScCwimk5EUuhYupguCJk866nCajCUVPDCbEych8uISEkeOsaCxhjgCGUsRBkLUsYCFJCXDLLjR4xogBber4L2qqG9KmivCtKjnOpWgTuVkx0/rKnB7ZqpdgOkwwTvtqB6bJg+B27AjQf4iMN+4nCANBIkj4YoY2EqKEIbj9InYkxwjAmOs6YSbEiCDZnjQJNcaJYPX5bjSxJ0UYwpSfFLctKijJQS4sMshA4OIHbcgzz+aarxj5CWe/Cuh6i+BkxfA2OondzTQOlr4I11SqCDSvTIDBniZGO8PHxSzVl1qo4TrrN5T8WpnFexU3rBgl0T1YmcIrpfOb3oMy9H3cWQayUW2Mmn6mwzASFPS8LzMEgGHssmE3lkAo+EYxNQNBqWKWGIQxb/eqq0FonmtOIEn5ASEHNScpqPSXLh8xxojDERodV+Xpg+EaCNu8ljVtyIEQXUwQe0kN4a0Bo6aI8O2qOHdOuh3TPwHiOi24LstWH6HbgBFwHgIQ75SMMBSk1W6IcsxsQsc7LmizWV4EDvTMHmefAUH5HmIzMCZF6EWpbhyxJMWYItywnLSmpBScmIiSE2QgXtI7T/DHn8E6TpT5Dme4iuh+i+RmxvA6WvidzTwAC0iSGDKsy4mjA5Q0O4eISogr1gklR8hqN570nKX3Fq0xp+dka26DJk7NqgWhjSivI+cznqLgTthaBjIz1bF/Km1XI7iyYj4vlkooBKEVHJAipxmohm0nBsGUsWtobWM8tbieSSSZmWUBcklIKClhXi0tO1Z1ySPZVgTsZZ4BgbEmVNBRhgN2XCTgBZMMMGaP8MbMAI7zchBy0ogBUNtGMADgzAiQU6cQA3AeghDfkoIwHqWIgGCtPHI4yJCGMiypyMsafiHEiCC53jwX6QnIbP8xFpISorxixIsDkprijDrcoJK1LsipxQUVEqGsaSmpaVkoNshHiiA9v6J8jjn6DNf65Z63yI7W/C9TWSehrJvc3csV4lelxHgumpcCsb75MwEgZxzq5a8Zt2E579hLdk0yTVgoxRUQ7YV6PutMMQM8rvrLlyfkvaY1qO++vmZktGvZ/HUVPIIgpZRKdJmXQJkyYmYlg0HEfBVUUckc1cZS+zULHr8nJGXkYrKekLInyGj1rgI9NcWJoLSfNgKT5yno+KcxFhNszPgHhIk1ZkrZudAz3kutsY9ZFAfhIoQBkPUmqdm0M0UIg+Hq1pmphlTc7WvP8/WT80pQTIlAA5x4Mlp+EpATIjQi9IsHkZvqAglJXEdSVpTUFYV5E3dYwNA7usZWSkZB8Tyh1qRDT9BGn4Cdrylx/W8APNxMEW6kAbHdDBnwQosWAtGTHDxLjFzFm9JGlR5tyGcsC6FfduzXpzFk1MIUjNqNZm/Xu5ucqsP+OcWQxYy1FXxmtMOnWlqKsuM1+xmsKCaT2NJqFSJQymnMOSc9kKIpZNxXNVAu2sK75VWD8plLa95rKGW1IyyypGXkzICdCLQnSOj7iblVF5CS4nxWfE+DkhNjaNjrDgXgLIRxgPECeC5MkwdTJCn5pl1HIiYsypGGsqzpqKscFx9mTsjjgH/Ht9/a4sLUSlhag5HuxHoS1IsItyQlFJKqspFS11W0ff1tK29YwnRvaWkVfWMpJigoM6Qe17AG34F0jDH2D/Y40IaKUNdXJA/TzQgAg6qsBBVCSEgY0PqIVppyHrMZXCjrW4fy8b20/PllyWOZ1ywTqzORc9WynsLc4vRdxLEWcp4sh4DSm3rhhx1C0uVJ32mFhsYrAUDJaCzVXxeGoBX0PEcyh4rkZsiHnmnpQ2L1cqJ7PeTbOkop9e03PKCmpJRliWE0sSbFGCKcnwZSWppKIUFdScnJyWkJIC3CwDFqPDEgx4nAlPsGCJ2jcyNZIc2B3QOQ4kwQEnar5+8I9R+f9by4jQv5dYSUVe1tIqBuaGib1t5hyaeYdmzoGZt2/lb5unS2pajI8xEUbwHX8BP/pnSMMf4K0/Q5rvITsekoFtzLFeIWREDAMpMFANGaWmog0cYkAnyfqshbBrbT68u5i6qJQuV4qbs6GczVz0OLdTicuN5fNKcSszu5rwF0K2jNew4DfVrJWLuz7PvFJh5/F1PL5uWqgXCHRikYFE4FLwXK3UGPcld8pbN5vV5wuxA69uxy7fsYk39Jx1HWNTz1xTU8oy/LKStKqhrmjpy1pmSU1fVNJzUnKKh8lwa6S56BQHOc+Gz7Nhd82uESkuPMWFJX9YY0/G76iV3v9MZ7+Ly4rRRSVpSU1e0dHXjawt6/SOQ7DvEh+5xedO8ZlDeOoQHTpE21Z+QUUNc5E69CCq+aeJB/8EbfgDou0epOlnRPsDCrCdDeoXQcflaJiBijexqToWSc+heDTipNucD7nXUrGDcv759vpNdX17Pp53O0p+75NM6mpz9dnW6lE5u56O5ALWjHemGHEUIs669dWjSCin03pEYpNQbBRLzGKhUSKaoZGFVAJPLTXGA6mdle1Xu3tvVxcu4o4jv/7ArXpiFe5Ypnet/G0je01NXtdSN/T0dQNrbYa1amAt65hLatqilFSQEPMiYk6Iy/IxGR4yzUOkuYgsH5WZRqS40CQbPMeajLPGE8zxGHM8xhqPsyfnOJAkDzLPh6eFiIwIlZdiVnS0tRnGppmz4+QfeqUnQfl5WH0RVl36FJdexblHceKW79jFy3r27DRGBe1FNPzr5IN/hjb+Edn2N0TrfWx3A32kmz0B4EImlWSiXTjtV8ltEoGGTTNL+GHrTMrnWsskD1ZKF5trl9X17YX0gs+d93urmfTFxvqzJ9WLzcpeaWE5ES5EfUvx4FIsWLe3c5maWzYZghKxRSKyyKV2mdgqFszwORoaSSAV6OLh9M7a7u3p6Zfd1bdLsfOEvRbU41EceWTHbumhU7hn49awcnetvG0rb8s6vWWdrlp4azPsip61omEuqagFOTEvwS2IMAsiTFGKz4lQaR60powBitFHE4yxOGMszgQl2BMpHiQjhOUk6KICu6QiljXEioFetbL23cLTkPwqpnueNNykTDdzxuuQ9nlEfxHQnPtrkRt7blVWRhOPtMEe/Qus/id445/Q7feJfc304S4uGMiBgNhwmFksidlshUg07nDKmUwZne416DNB/265dLq5trtUOFpbOVwtF2PRbDCwnsmebVSf7e69Pj55eXh0uf3kcGV1LZ15UijWHexdZ1KrVlNULrFLRTaF1CEX2aRCs5CnpZMFIr4mEkxWK0/enp59O6y+r6Sv0r6TqPk0ZDgL1Rrfn/nlxx7xsUd07BYducUHbvG+W7Lvluw6xZvm6XUTr2LgLusYJTW1oCAtSgmLUvyiDL8gRqd58Dk2OMYYj9HH4vTxOHO89nKRO5XhwxfEyIIcV1YTV3TUygytaq1V2XFAdhHT3MwbX2TMr7K2VynLzd3hj6twLQzi2K/ecSnmxWTBUAu8/l/hj/8Ib/oZ3f6A0NdMG+liTwI4cLCUSvMZTNlgpJJeyEViZplMTKMFTeZSIrFbXjqrVg8rq2fVzafb1UomnY9GnpSWrncPXp+cf7x6/uHy2ZvTp1c7+0eVjZdHp3UnRy8LuarLPqdWuOQSh0LqVIgdCrFNzDfQyUIBVxXwxteXq69Pzr6f7HzaLNzkoxdJ99Na90vrVcx0GdGfB9XnQdV5QHkWUJ0G1CcB9XFAc+hTP3FKtxySWkCSib9q4JS1jCU1vaSiLspJOQkuxUfOcaB36/7JOBMcZ4OTPFiaj1gQYxbl+LKGsmqgr5vYVRtv3ys9DiqexvTP0uZXOcebguu24LnNOV8nzW/nrTdx41VUfxJQbzulcUGtPwei4Sd405/hrX9FddbjB1qpoF4WZJiPRVik8pQvXEnn98prGwvFsMUhIFGDZtt6Nr9dKJ5tVk83N692dm8OD7eLpWI8cVTZ+KHs+6u3v7y+/Xrz6v3F9cuj0/+4/VB3+fR2tXwQ9C3oNX6lzKWUulRSl1rmkgnNdLKYx1K47dGV4saLo9Ovx3sfqksvinNXmdBV2n+dcj+bs1/FzBcRw0VEfxHRP43oz8OGs/DMWdh4HDIc+LV7Ps2OR7XlkFXv3FWMvBUDp6SiLcpJGRE2OY2Y48D+sfTnwdMC1J0y4rKWtm5kb1mnnzhF+17pWUR7GTc8T1tf593vSr4P5cCHcuBj0fsuY/mQtb6ZNz9PzJyG1FWHKDqNZg48Qjb/hGj5GdHxANPbRBzuYkwBecgJGZUYNttK8fR2sXKysbO3vJkJzPIIVK/BXM0vrS8UjtY2z6rb13sHL49Pd8ur5WT6rPrk3cXVl5tXv95++O39p19v3397+eb26dVv7z/V3Tz7vLVxHossmWeiarlXKXWrZW6twquQ2OhkMYsmtZkCpdzq84OTT0d7t9XyTSl9nY89W4g8ywSez7uvE/arWcvVrOlq1nQZNdXiZ6KWpxHLWdRyNms5iZqPwjP7Ae2uR7XtlFcd0g2bcEXPXtIw8nJyRoxNC9EpASotRGdEmAUJblFOLKtpazPsbZtg3y098ivPwtrrhOkmZXudd79fCnxaCX9ejXyuRD4v+d5nLZ9z1ncZy6t549OI9olTHOWhGP0PkS1/RLTfQ/U8xgM76JMAHhosIaP1fF42OLuaKe2UN0+rB4dru4V4RkBl21SGjfzyarawX9k8qT653Dt6fnS6t7q+litc7O5/eHbz9dWbX99//O3j51/ff/z+9t3bi6svL1/XvX31fX/neWpuzW5OaJV+lcyjlnkM6oBa5qKTxXSy2KT35NPLV3vHn4/332+vvlrJvSilXhbnXi1GX2YDL+Y9L5KOmzn7TcJxM+d4nnA+SzivE66rOdd10nWZdDyN286ixuOQ/sCv2feqdtyyTYtgzchd1jIKSvKijJCXERbvKMiJSyrqmp65ZeUfuKWnAdVFVH8VN75M2d4sON8XvJ+WQ19WI18r0a+VyJcl74eM8Wve8nHBfJs2Xcd0e25pjI9mDdSjWv+E6riP62+mjvXzEJNyCk7PY7g1mkq6sJFf3Slvn28fn1YPV9JLWoHSJNNu5Fc2FleO1nfOt/efHZxeH5werFX3K5svT8+/vX77y+37//z05T8/ffnt4+d/f/fh/fXzr6/e1L2//fXk8OVCetNpS+pUAZXMo5F7ZzRBrcJNJ4upRIFe7VxILl3tHn87O/68t/F+o3RbyX9YzX5YTr4rRN8uBG6z3tus923G9zbje5Pxv077X2X8LzP+l1nfTdr9fN5xnbBczBrPwvrTkPbIr9p1SLZtgnUjZ0XHWFZTyyrKP1CSVzW06gx7zy488SkuI7rncWOtw23GfptzfSz6vqyEvlUiNVbDX0qeD/Mz37LmL1nzx4zlRXzm0CtPCrDcwceYlr9gOx8SB9tZ4CEJDqnnMBwySczm2Fuubpeqe8u7FzvnFztnm4trHoPTKNVVC2t7KzWVV3tnL0+unh2cn2zuXh8cf3z+4rePn//r89e/f/v+92/f//vLt//48OnTzctvr9/W3b755eTwRT676XGmZnQhjcKnU/pNurBG4WLRZGQ8T6eyZ+aKz/ZOfnl6+m9HW1+erH6qlj6v57+spj6W4x8KoY+LgRr54IdaF43Qu1zotkbwNh94veB9lXG9mLdfJyyXMePTqOEspDn0yPZckm0bf8PIXtMzKlp6RUtfrW0UUDf0zB0L78gleRpUP4sZXiUtb9K2dwvOjwXv1+Xg90r0l/XZ72vRb6uhr0XPh6Tha8b8OW16nzK/jBtP/Zq0mCQANuNb/4rvrKcBewTwSTWZaOHzfCpV2h04XT/YX9k7qOxf7l5c71/srjyJuaMzUl21uHayeXC5d/bs8OLV2fWzg/OL3eM3F8++vX7331++/f3b9//zy7//7++//K9v//Zfn79+ff3my6vX/xfKleey7ETtEAAAAABJRU5ErkJggg==;" vertex="1" parent="1">
          <mxGeometry x="707.5" y="620" width="103" height="141" as="geometry" />
        </mxCell>
      </root>
    </mxGraphModel>
  </diagram>
</mxfile>
